<?xml version="1.0" encoding="utf-8"?><svg xmlns="http://www.w3.org/2000/svg" xmlns:xlink="http://www.w3.org/1999/xlink"><symbol viewBox="0 0 284.929 284.929" id="angle-arrow-down" xmlns="http://www.w3.org/2000/svg"><path d="M282.082 76.511l-14.274-14.273c-1.902-1.906-4.093-2.856-6.57-2.856-2.471 0-4.661.95-6.563 2.856L142.466 174.441 30.262 62.241c-1.903-1.906-4.093-2.856-6.567-2.856-2.475 0-4.665.95-6.567 2.856L2.856 76.515C.95 78.417 0 80.607 0 83.082c0 2.473.953 4.663 2.856 6.565l133.043 133.046c1.902 1.903 4.093 2.854 6.567 2.854s4.661-.951 6.562-2.854L282.082 89.647c1.902-1.903 2.847-4.093 2.847-6.565 0-2.475-.945-4.665-2.847-6.571z"/></symbol><symbol viewBox="0 0 47.971 47.971" id="close" xmlns="http://www.w3.org/2000/svg"><path d="M28.228 23.986L47.092 5.122a2.998 2.998 0 0 0 0-4.242 2.998 2.998 0 0 0-4.242 0L23.986 19.744 5.121.88a2.998 2.998 0 0 0-4.242 0 2.998 2.998 0 0 0 0 4.242l18.865 18.864L.879 42.85a2.998 2.998 0 1 0 4.242 4.241l18.865-18.864L42.85 47.091c.586.586 1.354.879 2.121.879s1.535-.293 2.121-.879a2.998 2.998 0 0 0 0-4.242L28.228 23.986z"/></symbol><symbol viewBox="0 0 483.3 483.3" id="email" xmlns="http://www.w3.org/2000/svg"><path d="M424.3 57.75H59.1c-32.6 0-59.1 26.5-59.1 59.1v249.6c0 32.6 26.5 59.1 59.1 59.1h365.1c32.6 0 59.1-26.5 59.1-59.1v-249.5c.1-32.6-26.4-59.2-59-59.2zm32.1 308.7c0 17.7-14.4 32.1-32.1 32.1H59.1c-17.7 0-32.1-14.4-32.1-32.1v-249.5c0-17.7 14.4-32.1 32.1-32.1h365.1c17.7 0 32.1 14.4 32.1 32.1v249.5h.1z"/><path d="M304.8 238.55l118.2-106c5.5-5 6-13.5 1-19.1-5-5.5-13.5-6-19.1-1l-163 146.3-31.8-28.4c-.1-.1-.2-.2-.2-.3-.7-.7-1.4-1.3-2.2-1.9L78.3 112.35c-5.6-5-14.1-4.5-19.1 1.1-5 5.6-4.5 14.1 1.1 19.1l119.6 106.9-119.1 111.5c-5.4 5.1-5.7 13.6-.6 19.1 2.7 2.8 6.3 4.3 9.9 4.3 3.3 0 6.6-1.2 9.2-3.6l120.9-113.1 32.8 29.3c2.6 2.3 5.8 3.4 9 3.4s6.5-1.2 9-3.5l33.7-30.2 120.2 114.2c2.6 2.5 6 3.7 9.3 3.7 3.6 0 7.1-1.4 9.8-4.2 5.1-5.4 4.9-14-.5-19.1l-118.7-112.7z"/></symbol><symbol viewBox="0 0 14 14" id="imo" xmlns="http://www.w3.org/2000/svg"><path d="M11.95 2.05A6.954 6.954 0 0 0 7 0C5.13 0 3.372.728 2.05 2.05A6.954 6.954 0 0 0 0 7c0 1.87.728 3.628 2.05 4.95A6.954 6.954 0 0 0 7 14c1.87 0 3.628-.728 4.95-2.05A6.954 6.954 0 0 0 14 7c0-1.87-.728-3.628-2.05-4.95zM7 13.558A6.565 6.565 0 0 1 .442 7 6.565 6.565 0 0 1 7 .442 6.565 6.565 0 0 1 13.558 7 6.565 6.565 0 0 1 7 13.558z"/><path d="M2.591 5.298c0-.242.135-.363.405-.363s.406.12.406.363a.356.356 0 0 1-.103.271c-.067.064-.168.096-.303.096-.27 0-.405-.123-.405-.367zm.776 3.435h-.744v-2.73h.744v2.73zm3.228 0H5.85V7.14c0-.197-.033-.344-.1-.442-.065-.099-.168-.149-.31-.149-.19 0-.329.07-.415.21-.086.14-.13.37-.13.691v1.284h-.744v-2.73h.569l.1.35h.042a.749.749 0 0 1 .317-.293 1.02 1.02 0 0 1 .476-.107c.409 0 .685.133.83.4h.066a.739.739 0 0 1 .322-.295c.144-.07.305-.105.484-.105.309 0 .543.08.7.239.16.158.24.412.24.762v1.78H7.55V7.138c0-.197-.034-.344-.1-.442-.066-.099-.169-.149-.31-.149-.183 0-.32.065-.41.196-.09.13-.135.337-.135.62v1.37zm3.062-1.37c0 .27.043.475.131.614.09.138.235.207.435.207.198 0 .34-.068.427-.205.088-.138.132-.343.132-.615 0-.27-.044-.473-.132-.608-.088-.135-.232-.203-.432-.203-.198 0-.342.068-.43.203-.088.133-.131.336-.131.608zm1.887 0c0 .445-.117.793-.352 1.043-.234.25-.56.376-.979.376-.262 0-.493-.057-.693-.17a1.161 1.161 0 0 1-.462-.496 1.661 1.661 0 0 1-.16-.752c0-.446.116-.793.348-1.04.233-.248.56-.371.982-.371.262 0 .493.057.693.17.2.114.354.278.462.491.107.213.16.463.16.75z"/></symbol><symbol viewBox="0 0 14 14" id="smartphone" xmlns="http://www.w3.org/2000/svg"><path d="M9.939 0H4.06a1.03 1.03 0 0 0-1.028 1.028v11.944A1.03 1.03 0 0 0 4.061 14h5.877a1.03 1.03 0 0 0 1.028-1.028V1.028A1.03 1.03 0 0 0 9.94 0zm-6.44 1.867h7v8.866h-7V1.867zm.562-1.4h5.877c.31 0 .562.251.562.56V1.4h-7v-.372c0-.31.252-.561.561-.561zm5.878 13.066H4.06a.562.562 0 0 1-.561-.56V11.2h7v1.772c0 .31-.252.561-.561.561z"/><path d="M7 11.433A.934.934 0 0 0 7 13.3a.934.934 0 0 0 0-1.867zm0 1.4a.467.467 0 1 1 0-.934.467.467 0 0 1 0 .934zM6.067 1.167H7A.233.233 0 1 0 7 .7h-.933a.233.233 0 1 0 0 .467zm1.633 0h.233a.233.233 0 1 0 0-.467H7.7a.233.233 0 1 0 0 .467zm5.51-.101a.233.233 0 1 0-.33.33 2.24 2.24 0 0 1 0 3.162.233.233 0 1 0 .33.33 2.706 2.706 0 0 0 0-3.822z"/><path d="M12.227 1.597a.233.233 0 1 0-.33.33c.289.289.448.673.448 1.082 0 .41-.16.794-.448 1.083a.233.233 0 1 0 .33.33c.377-.377.584-.879.584-1.413 0-.533-.207-1.035-.584-1.412zM1.121 1.396a.233.233 0 1 0-.33-.33 2.706 2.706 0 0 0 0 3.822.233.233 0 0 0 .33 0 .233.233 0 0 0 0-.33 2.238 2.238 0 0 1 0-3.162z"/><path d="M2.103 1.533a.233.233 0 0 0-.33 0 1.983 1.983 0 0 0-.584 1.412c0 .534.207 1.035.584 1.412a.233.233 0 0 0 .33 0 .233.233 0 0 0 0-.33 1.52 1.52 0 0 1-.447-1.082c0-.41.158-.794.447-1.082a.234.234 0 0 0 0-.33z"/></symbol><symbol viewBox="0 0 14 14" id="telegram" xmlns="http://www.w3.org/2000/svg"><path d="M11.95 2.05A6.954 6.954 0 0 0 7 0C5.13 0 3.372.728 2.05 2.05A6.954 6.954 0 0 0 0 7c0 1.87.728 3.628 2.05 4.95A6.954 6.954 0 0 0 7 14c1.87 0 3.628-.728 4.95-2.05A6.954 6.954 0 0 0 14 7c0-1.87-.728-3.628-2.05-4.95zM7 13.558A6.565 6.565 0 0 1 .442 7 6.565 6.565 0 0 1 7 .442 6.565 6.565 0 0 1 13.558 7 6.565 6.565 0 0 1 7 13.558z"/><path d="M10.964 2.697a.22.22 0 0 0-.234-.02L2.183 7.098a.221.221 0 0 0 .002.394L4.421 8.61v2.215a.222.222 0 0 0 .328.2l2.558-1.421 1.958.839a.222.222 0 0 0 .31-.157l.495-2.477a.221.221 0 1 0-.434-.087l-.442 2.21-1.812-.777a.221.221 0 0 0-.195.01l-2.324 1.29v-1.98a.221.221 0 0 0-.122-.198L2.77 7.29l7.754-4.01-.673 3.364a.221.221 0 0 0 .433.087l.763-3.815a.22.22 0 0 0-.084-.22z"/><path d="M9.531 4.505a.221.221 0 0 0-.29-.051l-3.83 2.358A.221.221 0 0 0 5.304 7v2.358a.221.221 0 0 0 .419.099l.868-1.737 2.922-2.922a.221.221 0 0 0 .017-.293zM6.254 7.433a.221.221 0 0 0-.041.058l-.466.93V7.124L7.87 5.817 6.254 7.433z"/></symbol><symbol viewBox="0 0 14 14" id="viber" xmlns="http://www.w3.org/2000/svg"><path d="M8.333 0H5.666A5.07 5.07 0 0 0 .601 5.064v2.402a5.074 5.074 0 0 0 3.2 4.71v1.557a.266.266 0 0 0 .445.198l1.546-1.4h2.541a5.07 5.07 0 0 0 5.065-5.065V5.064A5.07 5.07 0 0 0 8.333 0zm4.532 7.466a4.537 4.537 0 0 1-4.532 4.532H5.689a.266.266 0 0 0-.179.069l-1.176 1.065v-1.14a.266.266 0 0 0-.178-.252 4.54 4.54 0 0 1-3.022-4.274V5.064A4.537 4.537 0 0 1 5.666.534h2.667c2.5 0 4.532 2.032 4.532 4.53v2.402z"/><path d="M10.523 8.13L8.885 7.065a.798.798 0 0 0-1.107.235l-.077.118c-.71-.234-1.491-.533-1.96-1.889l.195-.168a.801.801 0 0 0 .078-1.129L4.732 2.758a.267.267 0 0 0-.376-.027l-.805.7c-.706.614-.376 1.522-.268 1.82a.264.264 0 0 0 .018.038c.028.05.696 1.243 1.776 2.343 1.084 1.104 3.04 2.123 3.1 2.153a1.335 1.335 0 0 0 1.844-.392l.58-.894a.267.267 0 0 0-.078-.37zm-.95.973a.809.809 0 0 1-1.128.222c-.02-.01-1.963-1.023-2.988-2.066a11.901 11.901 0 0 1-1.68-2.21c-.211-.593-.174-.957.124-1.215l.604-.525 1.107 1.273a.264.264 0 0 1-.026.376l-.327.285a.266.266 0 0 0-.08.28C5.737 7.334 6.821 7.69 7.613 7.95l.116.038a.266.266 0 0 0 .308-.108l.189-.29a.263.263 0 0 1 .368-.079l1.415.92-.435.67zM7.608 4.332a.266.266 0 1 0-.146.512c.397.113.714.43.826.828a.267.267 0 0 0 .513-.145 1.743 1.743 0 0 0-1.193-1.195z"/><path d="M9.637 5.924a.267.267 0 0 0 .257-.339 3.386 3.386 0 0 0-2.317-2.322.266.266 0 1 0-.146.513 2.849 2.849 0 0 1 1.95 1.954c.033.117.14.194.256.194z"/><path d="M7.463 2.021a.267.267 0 1 0-.146.513 4.827 4.827 0 0 1 3.303 3.31.267.267 0 0 0 .513-.144 5.364 5.364 0 0 0-3.67-3.679z"/></symbol><symbol viewBox="0 0 14 14" id="whatsapp" xmlns="http://www.w3.org/2000/svg"><g clip-path="url(#ha)"><path d="M7 0C3.14 0 0 3.14 0 7c0 1.317.366 2.595 1.06 3.705-.277.969-.776 2.801-.781 2.82a.268.268 0 0 0 .339.328L3.392 13c1.087.655 2.332 1 3.608 1 3.86 0 7-3.14 7-7s-3.14-7-7-7zm0 13.461a6.446 6.446 0 0 1-3.428-.982.27.27 0 0 0-.222-.03l-2.423.746c.178-.65.498-1.811.684-2.458a.27.27 0 0 0-.033-.22A6.437 6.437 0 0 1 .538 7 6.47 6.47 0 0 1 7 .538 6.47 6.47 0 0 1 13.461 7 6.47 6.47 0 0 1 7 13.461z"/><path d="M11.573 8.65a19.89 19.89 0 0 1-1.229-.755 6.502 6.502 0 0 0-.531-.328c-.35-.175-.614-.051-.715.05a.269.269 0 0 0-.033.041c-.363.544-.837 1.065-.975 1.093-.16-.025-.91-.451-1.655-1.072-.761-.634-1.24-1.241-1.31-1.655.488-.502.664-.818.664-1.178 0-.37-.865-1.918-1.022-2.075-.156-.157-.51-.181-1.05-.073a.272.272 0 0 0-.138.073c-.065.066-1.596 1.626-.869 3.518.799 2.076 2.848 4.49 5.462 4.881.297.044.575.067.836.067 1.537 0 2.444-.774 2.7-2.308a.268.268 0 0 0-.135-.28zm-3.321 1.987c-2.764-.414-4.504-3.152-5.04-4.541-.53-1.379.449-2.608.694-2.886.2-.034.41-.048.498-.034.183.255.818 1.454.846 1.67 0 .141-.046.338-.594.887a.268.268 0 0 0-.079.19c0 1.41 2.974 3.365 3.5 3.365.458 0 1.055-.77 1.395-1.27.02 0 .053.007.1.03.097.05.265.159.478.298.28.183.653.426 1.093.679-.2.96-.759 1.933-2.891 1.612z"/></g><defs><clipPath id="ha"><path d="M0 0h14v14H0z"/></clipPath></defs></symbol></svg>