<svg xmlns="http://www.w3.org/2000/svg" viewBox="0 0 150 150"><defs><style>.a{fill:#fbbe18;}.b{fill:#fff;}.c{fill:#020000;}</style></defs><title>Ресурс 3</title><rect class="a" width="150" height="150"/><path class="b" d="M89.05,104.44h0L75,99l-17,6.55h0L0,128v22H150V128Z"/><polygon class="c" points="0 127.85 75 98.89 150 127.85 150 119.28 75 90.32 0 119.28 0 127.85"/><path class="c" d="M82.63,41.91H67.37a18.72,18.72,0,0,1-11.1-17.09H49.4A25.6,25.6,0,0,0,67,49.12V65.66L60.31,96l8-3,6.87-26.84L82,93l8.09,3.11L83,64.64h0V49.12A25.6,25.6,0,0,0,100.6,24.82H93.73A18.72,18.72,0,0,1,82.63,41.91Z"/><path class="c" d="M75.09,38.62a8.76,8.76,0,0,0,8.76-8.76h2.46l-1.36-1.7c0-1.31-.14-6.42-4.65-8.79l-2.32,4,.93-5.89-1.75-.41a7.9,7.9,0,0,0-3.65,0l-1.75.41.17,1.09h0l0,.12.74,4.68-2.45-4.22c-4.79,2.2-5.09,7.36-5.07,8.9L63.8,29.86h2.52A8.76,8.76,0,0,0,75.09,38.62Z"/><text></text><path d="M41.19,134v7.6H37V119.19H43.9a6.45,6.45,0,0,1,3.49.95,6.26,6.26,0,0,1,2.35,2.69,9.1,9.1,0,0,1,.83,4,7.45,7.45,0,0,1-1.8,5.24,6.37,6.37,0,0,1-4.94,2Zm0-4.17H43.9a2.21,2.21,0,0,0,1.83-.78,3.45,3.45,0,0,0,.63-2.22,4.34,4.34,0,0,0-.65-2.51,2.08,2.08,0,0,0-1.77-1H41.19Z"/><path d="M59.44,128.92v0l2.84-9.74h4.37L60.87,137a9.59,9.59,0,0,1-2.09,3.79,4.08,4.08,0,0,1-2.72,1.16h-.84l-.64,0-.07-4.19a3,3,0,0,0,.83.06,2.09,2.09,0,0,0,1.42-.42,3.22,3.22,0,0,0,.77-1.64l.2-.74-6.21-15.77h4.4Z"/><path d="M78.91,121.1a6.37,6.37,0,0,1,5.34,2.61,11,11,0,0,1,2,6.82,12.54,12.54,0,0,1-.53,3.75,8.71,8.71,0,0,1-1.47,2.87,6.44,6.44,0,0,1-5.33,2.54v2.83h-4v-2.83a6.48,6.48,0,0,1-5.38-2.54,10.35,10.35,0,0,1-2-6.59,13.27,13.27,0,0,1,.53-3.88,9.14,9.14,0,0,1,1.49-3,6.41,6.41,0,0,1,5.36-2.62v-2.83h4Zm-4.14,4.34a2.77,2.77,0,0,0-2.44,1.35,6.82,6.82,0,0,0-.89,3.77,6,6,0,0,0,.9,3.5,3,3,0,0,0,2.58,1.28v-9.91Zm4.14,0v9.91h.18a2.76,2.76,0,0,0,2.37-1.27,6.1,6.1,0,0,0,.89-3.55,6.91,6.91,0,0,0-.87-3.73A2.85,2.85,0,0,0,78.91,125.44Z"/><path d="M98.95,132.09H92.43v5.35h7.69v4.16H88.29V119.19h11.86v4.17H92.43v4.72h6.51Z"/><path d="M106,134v7.6h-4.14V119.19h6.86a6.45,6.45,0,0,1,3.49.95,6.26,6.26,0,0,1,2.35,2.69,9.12,9.12,0,0,1,.83,4,7.45,7.45,0,0,1-1.8,5.24,6.37,6.37,0,0,1-4.94,2Zm0-4.17h2.71a2.22,2.22,0,0,0,1.83-.78,3.45,3.45,0,0,0,.63-2.22,4.34,4.34,0,0,0-.65-2.51,2.08,2.08,0,0,0-1.77-1H106Z"/></svg>