<?xml version="1.0" encoding="utf-8"?>
<!-- Generator: Adobe Illustrator 18.1.1, SVG Export Plug-In . SVG Version: 6.00 Build 0)  -->
<svg version="1.1" id="Слой_1" xmlns="http://www.w3.org/2000/svg" xmlns:xlink="http://www.w3.org/1999/xlink" x="0px" y="0px"
	 viewBox="0 0 793.7 737" enable-background="new 0 0 793.7 737" xml:space="preserve">
<g>
	<path d="M532.7,345c0-6.6-3.2-9.8-9.9-9.8c-24.6,0-49.2,0-73.8,0c-36.7,0-73.4,0-110.1,0c-12.9,0-25.8,0-38.7,0
		c-10,0-20.1,0-30.1,0c-5.6,0-9,3.5-9,9c0,2.5,0,5,0,7.5c0,5.2,3.6,8.8,8.8,8.8c2.6,0,5.3,0,8.1,0c0.9,6.9,1.8,13.5,2.7,20.2
		c2.4,19.1,4.7,38.1,7.1,57.2c1.7,14,3.5,28,5.2,42.1c1.3,10.5,7.9,16.5,18.5,16.4c14.6,0,29.3,0,43.9,0c20.5,0,41,0,61.4,0
		c22.4,0,44.9,0,67.3,0c8.4,0,15.4-6.3,16.5-14.6c0.9-6.6,1.7-13.1,2.5-19.7c1.7-14,3.5-28.1,5.2-42.1c2-16,4-32,6.1-48.1
		c0.5-3.8,1-7.5,1.4-11.4c3,0,5.7,0,8.4,0c4.9-0.1,8.5-3.7,8.6-8.6C532.7,349.6,532.7,347.3,532.7,345z M354.5,461.5
		c0,6-3.4,9.5-9.4,9.5c-5.2,0-10.3,0-15.5,0c-5.8,0-9.3-3.5-9.3-9.4c0-12.7,0-25.5,0-38.2c0-4.6,0-9.2,0-13.8h0l0-26.6
		c0-4.3,0-8.7,0-13c0-5.9,3.5-9.4,9.3-9.5c5.2,0,10.4,0,15.7,0c5.7,0,9.3,3.7,9.3,9.5c0,20.7,0.1,41.4,0.1,62.1
		C354.6,441.9,354.6,451.7,354.5,461.5z M414,461.3c0,6.4-3.4,9.7-9.8,9.7c-5,0-10,0-15,0c-5.7,0-9.3-3.5-9.3-9.2
		c0-15.4,0-30.8,0-46.2c0,0,0,0,0,0c0-15,0-29.9,0-44.9c0-7,3.3-10.2,10.2-10.3c4.9,0,9.7,0,14.6,0c5.8,0,9.4,3.5,9.4,9.4
		c0,18.2,0,36.3,0,54.5C414,436.7,414,449,414,461.3z M473.4,461.8c0,5.6-3.7,9.2-9.3,9.3c-5.2,0-10.4,0-15.7,0
		c-5.7,0-9.2-3.5-9.2-9.3c0-5.3,0-10.7,0-16v-16.1c0-5,0-10.1,0-15.1c0-0.4,0-0.9,0-1.3v-4.9c0-0.1,0-0.2,0-0.3
		c0-11.2,0.1-22.4,0-33.7v-5.2c0.5-5.8,4.7-9.1,10.2-8.8c4.9,0.3,9.9,0,14.8,0.1c5.6,0,9.1,3.6,9.1,9.2c0,21.7,0,43.4,0,65.2
		C473.4,443.8,473.4,452.8,473.4,461.8z"/>
	<path d="M363.7,267.1c11.1,0,22.1,0,33.2,0c11.3,0,22.6,0,33.8,0c5,0,8.4-3.4,8.5-8.4c0.1-2.9,0.1-5.7,0-8.6
		c-0.1-4.9-3.6-8.3-8.4-8.3c-22.6,0-45.2,0-67.9,0c-4.9,0-8.3,3.4-8.4,8.2c-0.1,2.6,0,5.3,0,7.9
		C354.6,263.8,357.9,267.1,363.7,267.1z"/>
	<path d="M450.5,258.6c6.8,0,13.5,0,20.3,0c5.7,0,9.8,2.7,12.3,7.7c9.8,19.6,19.6,39.2,29.4,58.8c0.3,0.5,0.8,1.3,1.2,1.3
		c2.9,0.1,5.7,0.1,8.8,0.1c-0.4-1-0.7-1.5-0.9-2c-10.4-20.7-20.7-41.4-31.1-62.1c-4-8-10.6-12-19.4-12.1c-7-0.1-14.1,0-21.1,0
		c-0.6,0-1.2,0.1-1.9,0.1c0,2.7,0,5.3,0,8.2C449,258.6,449.8,258.6,450.5,258.6z"/>
	<path d="M278.8,326.6c1.3,0.1,2-0.4,2.6-1.6c2.1-4.4,4.5-8.8,6.6-13.3c0.4-0.8,0.2-2-0.1-2.8c-0.5-1.4-0.5-2,0.3-2.6
		c0.2,0.8,0.3,1.8,0.5,2.7c2.5-3.8,4.5-7.6,6.4-11.4c5.2-10.4,10.4-20.8,15.6-31.2c2.7-5.4,6.9-7.9,12.9-7.9c6.7,0,13.4,0,20.1,0
		c0.7,0,1.5-0.1,2.2-0.1c0-2.8,0-5.4,0-8.2c-7.8,0-15.3,0-22.8,0c-9.1,0.1-15.7,4.2-19.7,12.3c-10.1,20.2-20.2,40.4-30.3,60.7
		c-0.5,1-0.9,2-1.4,3.3C274.2,326.5,276.5,326.5,278.8,326.6z"/>
</g>
</svg>
