<?xml version="1.0" encoding="utf-8"?>
<!-- Generator: Adobe Illustrator 18.1.1, SVG Export Plug-In . SVG Version: 6.00 Build 0)  -->
<svg version="1.1" id="Слой_1" xmlns="http://www.w3.org/2000/svg" xmlns:xlink="http://www.w3.org/1999/xlink" x="0px" y="0px"
	 viewBox="0 0 793.7 737" enable-background="new 0 0 793.7 737" xml:space="preserve">
<path fill="none" stroke="#000000" stroke-width="5" stroke-miterlimit="10" d="M457.7,243.9H482c15.6,0,28.3,12.8,28.3,28.3v204.8
	c0,15.6-12.8,28.3-28.3,28.3H312.5c-15.6,0-28.3-12.8-28.3-28.3V272.3c0-15.6,12.8-28.3,28.3-28.3h24.2"/>
<polyline fill="none" stroke="#000000" stroke-width="5" stroke-miterlimit="10" points="457.8,262.5 479.5,262.5 479.5,477.2 
	315,477.2 315,262.5 336.7,262.5 "/>
<path fill="none" stroke="#000000" stroke-width="5" stroke-miterlimit="10" d="M443.6,279h-92.7c-7.8,0-14.2-6.4-14.2-14.2v-19.2
	c0-7.8,6.4-14.2,14.2-14.2h92.7c7.8,0,14.2,6.4,14.2,14.2v19.2C457.8,272.7,451.4,279,443.6,279z"/>
<g>
	<line fill="none" stroke="#000000" stroke-width="5" stroke-miterlimit="10" x1="372.3" y1="301.2" x2="457.5" y2="301.2"/>
	<line fill="none" stroke="#000000" stroke-width="5" stroke-miterlimit="10" x1="372.3" y1="324.9" x2="457.5" y2="324.9"/>
	<line fill="none" stroke="#000000" stroke-width="5" stroke-miterlimit="10" x1="372.3" y1="348.7" x2="457.5" y2="348.7"/>
	<line fill="none" stroke="#000000" stroke-width="5" stroke-miterlimit="10" x1="372.3" y1="372.4" x2="457.5" y2="372.4"/>
	<line fill="none" stroke="#000000" stroke-width="5" stroke-miterlimit="10" x1="372.3" y1="396.2" x2="457.5" y2="396.2"/>
	<line fill="none" stroke="#000000" stroke-width="5" stroke-miterlimit="10" x1="372.3" y1="419.9" x2="457.5" y2="419.9"/>
	<rect x="337" y="298.5" fill="none" stroke="#000000" stroke-width="5" stroke-miterlimit="10" width="21" height="21"/>
	<rect x="337" y="332.5" fill="none" stroke="#000000" stroke-width="5" stroke-miterlimit="10" width="21" height="21"/>
	<rect x="337" y="366.5" fill="none" stroke="#000000" stroke-width="5" stroke-miterlimit="10" width="21" height="21"/>
	<rect x="337" y="400.6" fill="none" stroke="#000000" stroke-width="5" stroke-miterlimit="10" width="21" height="21"/>
</g>
</svg>
