<?xml version="1.0" encoding="utf-8"?>
<!-- Generator: Adobe Illustrator 18.1.1, SVG Export Plug-In . SVG Version: 6.00 Build 0)  -->
<svg version="1.1" id="Слой_1" xmlns="http://www.w3.org/2000/svg" xmlns:xlink="http://www.w3.org/1999/xlink" x="0px" y="0px"
	 viewBox="0 0 793.7 737" enable-background="new 0 0 793.7 737" xml:space="preserve">
<path stroke="#000000" stroke-miterlimit="10" d="M385.1,374.6c-4.5,0-8.5-0.1-12.4,0c-3.1,0.2-4.6-0.8-4.5-4.2c0.2-5.1,0-10.3,0-16
	h16.8c0-4.5,0-8.5,0-12.4c0-18.7,9.6-28.1,28.1-27.6c4,0.1,7.9,0.5,12.3,0.7v18.5c-4.2,0-8-0.1-11.8,0c-5.1,0.2-7.2,2.3-7.4,7.4
	c-0.1,3.5,0,7,0,10.5c0,0.6,0.2,1.3,0.4,2.6c2.9,0,5.9,0,8.8,0c3,0,5.9,0,9.6,0c-0.7,6.3-1.2,12-2.3,17.6c-0.2,1.1-2.4,2.6-3.7,2.7
	c-4,0.4-8,0.1-12.5,0.1c-0.1,2-0.3,3.8-0.3,5.6c0,13-0.1,26,0.1,39c0,3.6-1,5.1-4.8,5c-5.3-0.2-10.6-0.1-16.5-0.1V374.6z"/>
<rect x="319.5" y="291.9" fill="none" stroke="#000000" stroke-width="3" stroke-miterlimit="10" width="154.7" height="154.7"/>
</svg>
