<?xml version="1.0" standalone="no"?>
<!DOCTYPE svg PUBLIC "-//W3C//DTD SVG 20010904//EN"
 "http://www.w3.org/TR/2001/REC-SVG-20010904/DTD/svg10.dtd">
<svg version="1.0" xmlns="http://www.w3.org/2000/svg"
 width="900.000000pt" height="900.000000pt" viewBox="0 0 900.000000 900.000000"
 preserveAspectRatio="xMidYMid meet">
<metadata>
Created by potrace 1.10, written by Peter Selinger 2001-2011
</metadata>
<g transform="translate(0.000000,900.000000) scale(0.100000,-0.100000)"
fill="#000000" stroke="none">
<path d="M4430 8987 c0 -7 -35 -36 -77 -64 -43 -28 -118 -80 -168 -114 -49
-35 -133 -92 -185 -128 -52 -35 -144 -99 -205 -141 -60 -42 -155 -107 -210
-145 -55 -38 -131 -91 -170 -118 -38 -26 -119 -82 -180 -123 -60 -41 -144 -98
-185 -127 -41 -29 -127 -89 -190 -132 -188 -129 -271 -186 -345 -237 -38 -27
-113 -78 -165 -114 -98 -67 -378 -259 -542 -373 -51 -35 -136 -94 -188 -129
-52 -36 -126 -87 -165 -114 -38 -27 -126 -87 -195 -135 -69 -47 -152 -105
-185 -128 -33 -23 -105 -72 -160 -110 -55 -38 -127 -87 -160 -110 -263 -182
-319 -220 -465 -320 -185 -127 -253 -177 -272 -199 -12 -14 -17 -38 -17 -76
-1 -52 3 -60 79 -170 43 -63 113 -164 154 -225 42 -60 102 -148 134 -195 68
-99 108 -130 165 -130 41 0 48 4 305 180 40 27 67 39 73 33 5 -5 8 -100 7
-229 l-3 -219 -121 -6 c-97 -4 -125 -9 -146 -25 -62 -46 -76 -123 -33 -180 39
-51 60 -59 185 -64 l115 -5 0 -125 0 -125 -115 -5 c-125 -6 -146 -13 -185 -64
-44 -58 -28 -139 36 -184 18 -13 51 -18 142 -21 138 -4 129 7 125 -151 l-3
-105 -110 -5 c-78 -4 -120 -11 -143 -23 -66 -36 -92 -122 -53 -180 35 -54 57
-62 186 -67 l120 -5 5 -1740 c5 -1893 1 -1764 61 -1799 25 -15 320 -16 3509
-16 3189 0 3484 1 3509 16 60 35 56 -94 61 1799 l5 1740 120 5 c129 5 151 13
186 67 39 58 13 144 -53 180 -23 12 -65 19 -143 23 l-110 5 -3 105 c-4 158
-13 147 125 151 91 3 124 8 142 21 64 45 80 126 36 184 -39 51 -60 58 -185 64
l-115 5 -3 119 c-2 89 1 121 10 128 7 4 57 8 111 8 111 0 141 11 181 63 41 53
36 107 -13 159 l-38 41 -124 6 -124 6 -3 228 c-2 170 1 227 9 227 7 0 60 -32
118 -72 215 -147 221 -150 255 -150 67 0 94 24 204 184 24 35 97 142 164 238
66 96 132 192 145 213 13 21 28 35 33 32 6 -4 10 14 10 44 0 46 -4 54 -42 92
-24 22 -68 58 -98 78 -30 20 -91 62 -135 92 -44 31 -127 88 -185 128 -196 134
-325 223 -495 340 -93 65 -228 158 -300 206 -152 104 -232 160 -297 210 l-48
35 0 758 c0 725 -1 758 -19 786 -10 15 -32 37 -47 47 -28 18 -58 19 -628 19
-595 0 -599 0 -633 -22 -59 -36 -63 -57 -63 -348 0 -306 7 -294 -122 -204 -44
31 -121 84 -172 118 -87 59 -143 98 -294 203 -104 73 -296 204 -417 287 -60
41 -146 100 -190 131 -44 31 -122 84 -172 118 -51 34 -93 67 -93 74 0 9 -18
13 -60 13 -42 0 -60 -4 -60 -13z m242 -419 c90 -62 208 -144 263 -181 55 -37
136 -93 180 -124 44 -31 127 -88 185 -128 104 -71 141 -97 453 -312 89 -62
212 -146 272 -187 61 -42 169 -116 240 -166 72 -49 159 -110 195 -135 36 -24
124 -85 195 -134 72 -49 182 -125 245 -168 132 -91 224 -155 328 -227 41 -28
84 -58 97 -66 13 -8 105 -71 204 -140 100 -69 290 -200 423 -292 134 -92 261
-180 283 -195 37 -27 170 -119 343 -236 40 -27 75 -54 78 -59 3 -5 -19 -46
-49 -91 -120 -176 -173 -251 -188 -260 -15 -10 -58 17 -414 264 -224 154 -266
184 -290 199 -13 8 -95 64 -182 125 -87 60 -185 128 -218 149 -33 22 -62 43
-65 46 -5 5 -35 26 -160 111 -30 21 -113 78 -185 128 -71 49 -175 120 -230
158 -96 65 -308 211 -520 359 -96 66 -102 69 -158 69 -55 0 -61 -2 -93 -37
-30 -33 -34 -44 -34 -90 0 -48 3 -54 43 -92 23 -23 101 -81 172 -129 169 -115
357 -244 420 -288 70 -49 200 -139 330 -228 61 -41 144 -99 185 -127 41 -29
125 -87 185 -128 171 -117 243 -167 335 -231 47 -33 117 -81 156 -107 39 -26
76 -54 83 -61 8 -11 11 -105 9 -338 l-3 -324 -1200 -3 c-1119 -2 -1201 -1
-1212 15 -10 13 -13 163 -13 671 l0 655 -40 39 -41 38 -789 0 -789 0 -41 -38
-40 -39 0 -655 c0 -508 -3 -658 -12 -671 -12 -16 -94 -17 -1213 -15 l-1200 3
-3 324 c-2 243 1 327 10 338 7 8 48 39 93 68 44 30 112 76 150 102 110 77 191
133 310 215 61 41 130 89 155 107 42 29 135 93 285 196 33 23 98 68 145 100
305 211 542 374 575 395 14 8 85 58 160 110 185 129 458 318 595 411 30 21
114 78 185 128 72 49 180 124 240 165 61 41 135 92 165 114 132 92 222 152
230 152 6 0 65 -38 132 -85 68 -46 177 -121 243 -167 66 -45 147 -100 180
-123 33 -23 92 -63 130 -90 92 -63 219 -151 276 -191 100 -70 146 -80 204 -44
45 28 65 62 65 111 0 58 -21 88 -103 145 -153 107 -217 150 -337 232 -69 47
-161 110 -205 142 -78 55 -143 100 -410 282 -167 113 -181 115 -305 30 -185
-126 -318 -218 -390 -268 -41 -29 -124 -87 -185 -128 -60 -42 -168 -116 -240
-165 -71 -50 -206 -143 -300 -206 -93 -64 -197 -135 -230 -159 -33 -23 -112
-78 -175 -121 -63 -43 -160 -110 -215 -148 -55 -39 -165 -115 -245 -169 -80
-55 -190 -131 -245 -169 -55 -38 -149 -104 -210 -145 -60 -41 -150 -103 -200
-138 -172 -119 -437 -301 -460 -316 -13 -8 -117 -80 -232 -159 -114 -80 -237
-165 -273 -189 -165 -115 -183 -125 -199 -115 -14 9 -36 39 -182 251 -32 46
-55 90 -52 97 2 8 37 36 76 63 69 46 111 75 332 227 55 38 129 89 165 113 36
25 94 65 130 91 79 55 169 117 315 217 61 41 169 116 240 165 72 50 155 107
185 128 30 21 87 59 125 86 39 27 122 84 185 128 63 43 174 119 245 168 72 50
146 101 165 113 19 13 143 98 275 189 349 242 358 248 429 297 35 25 107 74
160 110 84 57 253 173 453 312 67 47 222 154 498 344 99 68 185 122 192 120 6
-3 85 -56 175 -118z m2456 -780 c2 -493 0 -568 -12 -568 -8 0 -57 29 -108 64
-178 122 -220 151 -298 206 -43 30 -138 96 -211 145 -73 50 -154 107 -181 128
l-48 37 0 268 c0 196 3 271 12 280 9 9 113 12 428 10 l415 -3 3 -567z m-2038
-1764 c11 -27 14 -1073 4 -1111 l-6 -23 -598 0 -598 0 -6 23 c-10 38 -7 1084
4 1111 l10 26 590 0 590 0 10 -26z m-2876 -1410 c13 -5 16 -26 16 -125 0 -115
-1 -119 -22 -124 -13 -3 -246 -4 -518 -3 l-495 3 -3 114 c-1 63 0 121 2 128 4
10 102 13 505 13 275 0 506 -3 515 -6z m1387 -4 c17 -10 19 -22 19 -119 0 -79
-4 -112 -14 -120 -9 -8 -164 -10 -557 -9 l-544 3 -3 119 c-2 89 1 121 10 128
20 12 1065 10 1089 -2z m1487 -2 c8 -8 12 -49 12 -118 0 -69 -4 -110 -12 -118
-17 -17 -1179 -17 -1196 0 -16 16 -16 220 0 236 17 17 1179 17 1196 0z m1380
4 c9 -7 12 -39 10 -128 l-3 -119 -544 -3 c-393 -1 -548 1 -557 9 -10 8 -14 41
-14 120 0 92 3 109 18 118 21 13 1071 15 1090 3z m1317 -122 l0 -125 -495 -3
c-272 -1 -505 0 -517 3 -22 5 -23 9 -23 124 0 86 3 121 13 124 6 3 239 5 517
4 l505 -2 0 -125z m-5566 -414 c8 -9 11 -52 9 -127 l-3 -114 -515 0 -515 0 -3
105 c-2 58 0 115 3 128 l5 22 504 0 c418 0 506 -2 515 -14z m1391 -5 c11 -21
14 -181 4 -219 l-6 -22 -552 2 -551 3 -3 114 c-2 75 1 118 9 127 10 12 102 14
550 14 522 0 539 -1 549 -19z m1480 0 c11 -21 14 -181 4 -218 l-6 -23 -598 0
-598 0 -6 23 c-10 37 -7 197 4 218 10 18 28 19 600 19 572 0 590 -1 600 -19z
m1379 5 c8 -9 11 -52 9 -127 l-3 -114 -551 -3 -552 -2 -6 22 c-10 38 -7 198 4
219 10 18 27 19 549 19 448 0 540 -2 550 -14z m1316 -8 c3 -13 5 -70 3 -128
l-3 -105 -515 0 -515 0 -3 114 c-2 75 1 118 9 127 9 12 97 14 515 14 l504 0 5
-22z m0 -2158 l0 -1645 -1199 -3 c-878 -1 -1202 1 -1212 9 -12 10 -14 211 -14
1197 0 1171 0 1185 -20 1217 -41 67 -18 65 -850 65 -832 0 -809 2 -850 -65
-20 -32 -20 -47 -20 -800 l0 -768 40 -39 c34 -31 48 -38 82 -38 24 0 55 9 75
21 66 41 63 11 63 723 0 395 4 655 10 670 l10 26 590 0 590 0 10 -26 c11 -28
14 -2132 4 -2171 l-6 -23 -598 0 c-536 0 -598 2 -604 16 -3 9 -6 101 -6 205 0
212 -5 232 -63 268 -21 13 -51 21 -77 21 -36 0 -48 -6 -81 -39 l-39 -39 0
-205 c0 -160 -3 -207 -14 -216 -10 -8 -334 -10 -1212 -9 l-1199 3 -3 1635 c-1
899 0 1641 3 1648 3 10 668 12 3297 10 l3293 -3 0 -1645z"/>
<path d="M2543 6250 c-224 -154 -317 -218 -438 -301 -126 -87 -220 -152 -317
-218 -89 -60 -88 -57 -88 -320 0 -256 1 -262 65 -301 32 -20 48 -20 747 -20
l715 0 34 23 c71 47 70 33 67 602 l-3 511 -23 29 c-43 54 -44 54 -369 55
l-301 0 -89 -60z m506 -214 c8 -9 11 -108 9 -342 l-3 -329 -539 -3 c-425 -2
-541 0 -548 10 -11 18 -10 111 1 141 6 15 50 52 108 91 54 37 157 107 228 157
72 50 155 107 185 128 30 20 91 62 135 92 44 31 87 58 95 62 8 3 83 6 166 6
117 1 154 -2 163 -13z"/>
<path d="M5723 6297 c-12 -7 -32 -25 -45 -42 l-23 -30 0 -526 0 -527 25 -27
c53 -57 20 -55 791 -55 696 0 712 0 744 20 64 39 65 45 65 301 0 267 3 258
-103 330 -34 23 -82 57 -107 74 -25 17 -90 62 -145 100 -55 38 -122 84 -150
104 -49 34 -189 130 -348 238 l-79 53 -301 0 c-218 -1 -308 -4 -324 -13z m546
-262 c16 -8 60 -36 97 -62 38 -25 119 -81 180 -122 409 -281 456 -315 465
-338 10 -27 12 -97 3 -131 l-6 -22 -542 2 -541 3 -3 330 c-2 301 -1 331 15
343 26 18 295 17 332 -3z"/>
<path d="M1772 2732 c-18 -10 -42 -31 -52 -48 -19 -28 -20 -54 -20 -890 l0
-861 35 -36 36 -37 736 0 736 0 33 25 c20 15 37 40 44 63 14 51 14 1653 0
1704 -7 24 -24 48 -47 65 l-36 28 -716 2 c-668 2 -718 1 -749 -15z m1276 -264
c8 -8 12 -59 12 -163 0 -104 -4 -155 -12 -163 -9 -9 -143 -12 -540 -12 -511 0
-528 1 -538 19 -5 11 -10 81 -10 156 0 75 5 145 10 156 10 18 27 19 538 19
397 0 531 -3 540 -12z m-686 -615 c17 -15 18 -40 18 -364 0 -334 -1 -349 -19
-359 -12 -6 -93 -10 -195 -10 -145 0 -177 3 -190 16 -14 13 -16 60 -16 355 0
216 4 347 10 360 10 18 23 19 192 19 155 0 184 -2 200 -17z m686 5 c9 -9 12
-104 12 -365 0 -327 -1 -353 -18 -362 -25 -13 -347 -14 -372 -1 -19 10 -20 21
-20 363 0 261 3 356 12 365 8 8 66 12 193 12 127 0 185 -4 193 -12z"/>
<path d="M5730 2731 c-19 -10 -44 -30 -55 -45 -20 -27 -20 -41 -23 -864 -2
-579 0 -848 8 -874 6 -22 24 -48 44 -63 l33 -25 736 0 736 0 36 37 35 36 0
860 c0 845 0 860 -20 892 -41 66 -23 65 -798 65 -660 0 -699 -1 -732 -19z
m1280 -270 c5 -11 10 -81 10 -156 0 -75 -5 -145 -10 -156 -10 -18 -27 -19
-538 -19 -397 0 -531 3 -540 12 -8 8 -12 59 -12 163 0 104 4 155 12 163 9 9
143 12 540 12 511 0 528 -1 538 -19z m-692 -603 c9 -9 12 -104 12 -365 0 -338
-1 -353 -19 -363 -26 -13 -346 -13 -372 0 -18 10 -19 25 -19 363 0 261 3 356
12 365 8 8 66 12 193 12 127 0 185 -4 193 -12z m692 -7 c6 -13 10 -144 10
-360 0 -295 -2 -342 -16 -355 -13 -13 -45 -16 -190 -16 -102 0 -183 4 -195 10
-18 10 -19 25 -19 357 0 308 2 348 17 365 14 16 35 18 199 18 171 0 184 -1
194 -19z"/>
<path d="M4780 1552 c-24 -11 -43 -32 -58 -64 -21 -42 -22 -51 -12 -84 7 -21
27 -50 44 -66 26 -24 39 -28 86 -28 79 1 130 49 130 123 0 51 -26 95 -72 118
-46 24 -73 24 -118 1z"/>
</g>
</svg>
