<?xml version="1.0" encoding="utf-8"?>
<!-- Generator: Adobe Illustrator 18.1.1, SVG Export Plug-In . SVG Version: 6.00 Build 0)  -->
<svg version="1.1" id="Слой_1" xmlns="http://www.w3.org/2000/svg" xmlns:xlink="http://www.w3.org/1999/xlink" x="0px" y="0px"
	 viewBox="0 0 793.7 737" enable-background="new 0 0 793.7 737" xml:space="preserve">
<g>
	<path d="M396.4,324.6c7,0.3,14,0.6,20.9,1.1c13.6,1,22.9,10.2,23.3,23.9c0.4,13.3,0.4,26.6,0,39.9c-0.3,13-8.1,22.6-21.1,23.6
		c-15.3,1.2-30.9,1.1-46.3,0c-12.5-0.9-20.4-10.4-20.8-22.9c-0.4-13.8-0.5-27.6,0-41.4c0.5-13.1,9.9-22.2,23-23.2
		C382.4,325.2,389.4,324.9,396.4,324.6z M396.5,404.7c6.7,0,13.3,0.2,20-0.1c8.8-0.4,14.6-5.5,14.9-14.3c0.5-13.9,0.4-27.9,0-41.9
		c-0.2-7.6-4.8-12.9-12.3-13.4c-14.4-0.8-28.9-1.1-43.3-0.3c-9.3,0.5-13.7,5.6-14.1,15c-0.5,13.6-0.4,27.3,0.2,40.9
		c0.4,8.5,6.1,13.5,14.7,13.9C383.1,405,389.8,404.7,396.5,404.7z"/>
	<path d="M396.8,346.6c12.8,0.1,23.1,10.5,22.9,23.3c-0.1,12.6-11,23.3-23.5,23c-12.7-0.3-23-10.9-22.9-23.5
		C373.5,356.6,383.8,346.6,396.8,346.6z M410.5,369.5c-0.1-7.9-6-13.8-13.9-13.9c-8.1,0-14.1,6-14,14.2c0.1,8,6.3,14.1,14.3,13.9
		C404.7,383.5,410.6,377.4,410.5,369.5z"/>
	<path d="M426.6,347.2c-2.1,1.6-4.1,3.9-6.5,4.6c-2.9,0.9-6-2.6-5.8-5.8c0.2-3.5,2.4-5.9,5.7-5.3c2.3,0.4,4.3,2.7,6.5,4.2
		C425.8,345.5,425.8,346.7,426.6,347.2z"/>
</g>
<rect x="319.2" y="291.9" fill="none" stroke="#000000" stroke-width="3" stroke-miterlimit="10" width="154.7" height="154.7"/>
</svg>
