<?xml version="1.0" standalone="no"?>
<!DOCTYPE svg PUBLIC "-//W3C//DTD SVG 20010904//EN"
 "http://www.w3.org/TR/2001/REC-SVG-20010904/DTD/svg10.dtd">
<svg version="1.0" xmlns="http://www.w3.org/2000/svg"
 width="240.000000pt" height="231.000000pt" viewBox="0 0 240.000000 231.000000"
 preserveAspectRatio="xMidYMid meet">
<metadata>
Created by potrace 1.10, written by Peter Selinger 2001-2011
</metadata>
<g transform="translate(0.000000,231.000000) scale(0.100000,-0.100000)"
fill="#000000" stroke="none">
<path d="M415 2274 c-36 -4 -82 -21 -125 -45 -8 -5 -26 -14 -39 -19 -31 -14
-157 -140 -171 -171 -5 -13 -14 -31 -18 -39 -46 -80 -55 -123 -56 -260 0 -110
13 -203 33 -223 6 -6 11 -17 11 -24 0 -18 69 -110 106 -143 45 -39 92 -70 107
-70 8 0 20 -7 27 -15 7 -8 25 -15 39 -15 15 0 48 -7 74 -16 73 -25 270 -3 334
36 27 17 58 6 47 -18 -4 -9 -10 -42 -13 -72 -4 -30 -12 -65 -19 -77 -7 -12
-12 -35 -12 -50 0 -16 -7 -38 -15 -49 -8 -10 -15 -29 -15 -41 0 -12 -6 -34
-14 -50 -7 -15 -21 -45 -30 -66 -31 -73 -48 -112 -57 -127 -5 -8 -11 -21 -14
-27 -13 -33 -16 -40 -35 -68 -11 -16 -24 -39 -29 -50 -5 -11 -20 -36 -33 -55
-13 -19 -27 -42 -31 -50 -22 -47 -181 -251 -256 -329 -64 -66 -66 -74 -30
-110 l31 -31 26 19 c28 20 176 165 248 242 45 50 164 204 164 214 0 4 13 24
28 44 16 20 32 43 35 51 4 8 16 29 26 45 25 39 68 116 99 180 13 28 28 57 33
65 5 8 12 22 15 30 3 8 12 28 20 43 7 16 14 36 14 45 0 9 7 26 15 36 8 11 15
29 15 40 0 12 7 30 15 40 8 11 15 32 15 46 0 14 7 35 15 46 8 10 15 35 15 54
0 19 7 46 15 60 8 14 14 43 15 66 0 22 7 64 15 93 12 40 15 86 12 199 -4 143
-14 207 -43 265 -8 16 -14 37 -14 47 0 9 -7 23 -15 30 -8 7 -15 17 -15 22 0
26 -152 187 -176 188 -6 0 -17 7 -24 15 -7 8 -21 15 -32 15 -10 0 -29 7 -41
15 -24 15 -212 27 -292 19z"/>
<path d="M1705 2274 c-36 -4 -82 -21 -125 -45 -8 -5 -26 -14 -39 -19 -31 -14
-157 -140 -171 -171 -5 -13 -14 -31 -19 -39 -59 -99 -86 -271 -57 -357 9 -26
16 -58 16 -73 0 -14 7 -35 15 -46 8 -10 15 -25 15 -32 0 -17 70 -110 106 -142
45 -39 92 -70 107 -70 8 0 20 -7 27 -15 7 -8 25 -15 39 -15 15 0 48 -7 74 -16
73 -25 270 -3 334 36 27 17 58 6 47 -18 -4 -9 -10 -42 -13 -72 -4 -30 -12 -65
-19 -77 -7 -12 -12 -35 -12 -50 0 -16 -7 -38 -15 -49 -8 -10 -15 -29 -15 -41
0 -12 -6 -34 -14 -50 -7 -15 -21 -45 -30 -66 -31 -73 -48 -112 -57 -127 -5 -8
-11 -21 -14 -27 -13 -33 -16 -40 -35 -68 -11 -16 -24 -39 -29 -50 -5 -11 -20
-36 -33 -55 -13 -19 -27 -42 -31 -50 -22 -47 -181 -251 -256 -329 -64 -66 -66
-74 -30 -110 l31 -31 26 19 c28 20 176 165 248 242 45 50 164 204 164 214 0 4
13 24 28 44 16 20 32 43 35 51 4 8 16 29 26 45 25 39 68 116 99 180 13 28 28
57 33 65 5 8 12 22 15 30 3 8 12 28 20 43 7 16 14 36 14 45 0 9 7 26 15 36 8
11 15 29 15 40 0 12 7 30 15 40 8 11 15 32 15 46 0 14 7 35 15 46 8 10 15 35
15 54 0 19 7 46 15 60 8 14 14 43 15 66 0 22 7 64 15 93 12 40 15 86 12 199
-4 143 -14 207 -43 265 -8 16 -14 37 -14 47 0 9 -7 23 -15 30 -8 7 -15 17 -15
22 0 26 -152 187 -176 188 -6 0 -17 7 -24 15 -7 8 -21 15 -32 15 -10 0 -29 7
-41 15 -24 15 -212 27 -292 19z"/>
</g>
</svg>
