<?xml version="1.0" standalone="no"?>
<!DOCTYPE svg PUBLIC "-//W3C//DTD SVG 20010904//EN"
 "http://www.w3.org/TR/2001/REC-SVG-20010904/DTD/svg10.dtd">
<svg version="1.0" xmlns="http://www.w3.org/2000/svg"
 width="900.000000pt" height="900.000000pt" viewBox="0 0 900.000000 900.000000"
 preserveAspectRatio="xMidYMid meet">
<metadata>
Created by potrace 1.10, written by Peter Selinger 2001-2011
</metadata>
<g transform="translate(0.000000,900.000000) scale(0.100000,-0.100000)"
fill="#000000" stroke="none">
<path d="M4123 8988 c1 -9 -25 -15 -88 -21 -215 -18 -581 -87 -756 -142 -26
-8 -54 -15 -63 -15 -8 0 -30 -6 -48 -14 -18 -7 -58 -21 -88 -31 -30 -9 -71
-22 -90 -30 -167 -62 -203 -76 -235 -90 -16 -8 -59 -26 -95 -42 -71 -31 -305
-148 -360 -181 -19 -11 -57 -33 -85 -47 -27 -15 -64 -38 -82 -51 -17 -13 -34
-24 -37 -24 -3 0 -36 -21 -73 -47 -38 -25 -88 -60 -113 -77 -77 -51 -204 -149
-222 -171 -50 -59 -43 -131 18 -185 27 -24 44 -30 79 -30 39 0 55 9 162 88 65
48 159 114 208 146 50 32 101 66 115 76 14 9 32 19 40 23 8 4 29 16 45 27 106
68 371 198 550 270 44 17 94 37 110 44 119 49 441 140 635 180 304 62 509 79
896 73 187 -2 377 -10 424 -16 281 -40 413 -65 615 -118 74 -19 326 -98 380
-120 22 -8 58 -22 80 -30 22 -9 54 -21 70 -29 17 -7 53 -23 80 -35 87 -38 288
-138 350 -174 33 -19 69 -39 80 -45 11 -6 34 -19 50 -30 17 -11 37 -23 45 -27
27 -12 233 -154 315 -216 313 -237 605 -529 842 -842 62 -82 204 -288 216
-315 4 -8 16 -28 27 -45 11 -16 24 -39 30 -50 6 -11 20 -36 32 -55 11 -19 47
-87 80 -150 198 -385 346 -837 412 -1265 36 -235 41 -314 41 -660 0 -345 -5
-421 -41 -660 -22 -144 -43 -245 -90 -427 -19 -76 -102 -341 -120 -383 -6 -16
-19 -48 -27 -70 -68 -181 -186 -426 -286 -597 -63 -106 -128 -209 -152 -239
-16 -20 -29 -40 -29 -43 0 -7 -150 -205 -224 -296 -62 -75 -73 -117 -47 -174
14 -33 30 -50 60 -65 50 -26 62 -26 110 -1 59 29 213 226 403 513 27 40 53 81
58 92 6 11 19 34 30 50 11 17 23 37 27 45 4 8 20 38 36 65 27 45 127 244 162
320 7 17 25 57 40 90 15 32 31 71 36 85 4 14 17 50 29 80 141 365 242 781 270
1115 11 129 17 158 30 150 6 -4 10 122 10 348 0 296 -2 356 -14 360 -10 4 -16
32 -20 94 -21 297 -129 775 -246 1083 -43 113 -51 136 -59 161 -5 14 -13 34
-19 45 -6 10 -20 42 -33 69 -86 196 -204 415 -339 631 -139 221 -374 509 -600
734 -225 226 -513 461 -734 600 -219 137 -431 251 -631 339 -27 13 -59 27 -69
33 -11 6 -31 14 -45 18 -14 5 -51 18 -81 30 -370 143 -804 246 -1165 277 -63
6 -89 12 -87 21 1 9 -77 12 -368 12 -291 0 -369 -3 -367 -12z"/>
<path d="M4444 8574 c-12 -3 -34 -19 -50 -35 l-29 -30 0 -159 c0 -182 8 -203
83 -230 37 -13 47 -13 84 0 75 27 83 48 83 231 l0 159 -30 30 c-30 30 -91 45
-141 34z"/>
<path d="M2439 8027 c-81 -54 -77 -117 14 -272 70 -119 100 -145 162 -145 69
0 135 64 135 132 0 13 -20 58 -44 100 -24 42 -46 83 -50 90 -53 109 -140 147
-217 95z"/>
<path d="M6400 8028 c-29 -20 -55 -52 -76 -96 -4 -7 -26 -48 -50 -90 -24 -42
-44 -87 -44 -100 0 -68 66 -132 135 -132 62 0 92 26 162 145 91 155 95 218 14
272 -44 30 -98 30 -141 1z"/>
<path d="M4466 7859 c-33 -26 -56 -69 -56 -106 0 -35 31 -86 64 -108 28 -19
169 -33 361 -37 123 -3 139 3 171 64 31 59 2 147 -56 175 -39 18 -182 33 -326
33 -118 0 -134 -2 -158 -21z"/>
<path d="M3855 7828 c-27 -6 -95 -21 -150 -35 -55 -14 -114 -28 -132 -30 -18
-3 -49 -19 -69 -37 -31 -27 -37 -39 -41 -81 -5 -60 10 -91 56 -122 37 -25 73
-28 135 -12 88 23 154 38 236 55 98 20 123 33 150 77 40 66 13 153 -56 182
-40 17 -55 17 -129 3z"/>
<path d="M5426 7711 c-94 -63 -85 -185 16 -230 96 -42 119 -51 134 -51 9 0 28
-6 42 -14 53 -29 181 -76 205 -76 34 0 89 40 111 81 41 76 -6 153 -120 197
-32 13 -72 29 -89 37 -16 7 -39 15 -50 18 -11 3 -45 15 -75 28 -77 31 -138 35
-174 10z"/>
<path d="M1249 7608 c-111 -106 -381 -432 -454 -550 -5 -9 -32 -49 -60 -89
-27 -41 -54 -81 -60 -91 -5 -9 -29 -48 -51 -85 -119 -196 -262 -491 -351 -728
-8 -22 -21 -55 -29 -73 -8 -18 -14 -39 -14 -47 0 -8 -6 -29 -14 -47 -13 -31
-20 -54 -59 -193 -70 -245 -121 -521 -147 -790 -13 -143 -13 -717 1 -860 35
-370 130 -792 249 -1105 43 -113 51 -136 59 -161 5 -14 13 -34 19 -45 6 -10
20 -41 33 -69 88 -200 202 -412 339 -631 52 -82 231 -325 305 -414 287 -345
698 -711 1029 -920 215 -135 445 -259 605 -327 47 -20 91 -40 98 -45 6 -5 24
-13 40 -18 15 -5 53 -18 83 -30 385 -148 799 -245 1205 -281 144 -13 780 -6
925 9 201 22 490 79 700 139 156 44 384 120 445 148 17 7 55 23 85 36 154 61
421 195 520 259 8 6 24 14 35 19 83 38 428 282 579 409 142 119 156 138 156
199 0 82 -89 146 -165 120 -19 -7 -80 -50 -137 -97 -117 -97 -304 -240 -314
-240 -3 0 -23 -13 -43 -28 -75 -59 -305 -195 -469 -277 -96 -49 -244 -115
-256 -115 -6 0 -16 -4 -21 -9 -6 -5 -28 -16 -50 -24 -22 -8 -78 -29 -125 -46
-287 -106 -643 -193 -905 -221 -44 -4 -126 -13 -183 -20 -127 -15 -717 -8
-842 9 -364 51 -594 102 -840 187 -41 14 -88 29 -105 34 -120 33 -473 194
-645 294 -25 14 -54 30 -65 36 -35 19 -66 38 -215 136 -160 105 -382 279 -509
399 -99 93 -299 298 -347 356 -22 26 -57 69 -80 95 -89 108 -293 392 -317 444
-4 8 -16 29 -27 45 -11 17 -24 39 -30 50 -6 11 -22 40 -36 65 -231 399 -413
925 -488 1405 -36 235 -41 313 -41 665 0 441 14 579 101 970 48 217 134 476
234 709 61 141 173 364 228 453 10 15 37 60 61 100 24 40 61 96 82 125 22 29
39 55 39 58 0 5 131 179 215 285 20 25 73 85 118 134 110 119 117 131 117 193
0 47 -4 56 -35 88 -32 31 -41 35 -88 35 -46 0 -58 -4 -88 -32z"/>
<path d="M2990 7533 c-20 -7 -111 -51 -130 -63 -8 -5 -65 -39 -127 -75 -98
-58 -114 -72 -134 -111 -19 -40 -20 -51 -10 -84 6 -21 27 -52 46 -69 58 -51
94 -45 239 42 67 39 143 83 169 97 79 41 100 70 100 135 0 48 -4 60 -29 86
-15 16 -44 34 -63 39 -39 11 -39 11 -61 3z"/>
<path d="M6300 7291 c-58 -31 -73 -54 -73 -115 0 -69 9 -80 152 -189 64 -49
135 -104 159 -123 75 -59 166 -43 207 36 29 56 14 114 -44 168 -62 58 -271
213 -306 228 -43 18 -52 17 -95 -5z"/>
<path d="M2154 6951 c-21 -15 -66 -57 -99 -92 -176 -187 -206 -234 -191 -294
10 -40 66 -94 101 -96 72 -5 85 0 138 55 266 274 257 263 257 330 0 44 -4 53
-40 88 -53 50 -107 53 -166 9z"/>
<path d="M4415 6748 c-41 -15 -73 -41 -108 -89 -28 -39 -30 -45 -35 -174 l-5
-134 -66 -16 c-297 -75 -496 -179 -658 -346 -59 -60 -162 -210 -163 -236 0 -6
-6 -24 -14 -40 -38 -74 -51 -156 -51 -318 0 -192 18 -271 97 -429 77 -154 260
-336 426 -423 65 -35 100 -52 127 -64 80 -34 209 -79 230 -79 9 0 29 -7 45
-15 l30 -16 0 -655 0 -656 -32 5 c-81 13 -236 78 -313 131 -125 87 -180 145
-246 258 -72 122 -141 168 -254 168 -78 0 -140 -26 -188 -79 -76 -84 -58 -200
59 -376 74 -112 209 -245 329 -325 108 -72 287 -156 405 -191 36 -10 88 -26
116 -34 28 -8 62 -15 75 -15 13 0 29 -4 35 -8 6 -4 13 -53 16 -114 5 -99 8
-112 37 -155 46 -71 103 -103 180 -103 77 0 139 36 182 102 28 43 31 58 36
147 l6 98 111 17 c176 27 364 81 491 143 90 43 93 45 200 125 194 144 302 304
365 538 30 113 33 383 6 500 -49 207 -111 321 -255 472 -123 129 -261 215
-466 291 -82 30 -263 72 -360 82 -105 12 -95 -54 -95 605 l0 580 33 0 c41 0
170 -26 222 -44 174 -62 332 -197 448 -383 36 -57 63 -81 122 -109 187 -89
377 71 311 261 -68 194 -354 489 -578 598 -136 66 -218 90 -398 117 -74 12
-140 23 -146 25 -7 2 -13 46 -16 114 -5 103 -8 114 -37 158 -17 27 -41 55 -54
64 -53 38 -140 49 -202 27z m-147 -1385 l-3 -518 -30 3 c-16 2 -71 24 -121 48
-142 70 -232 168 -289 315 -21 53 -25 80 -25 169 0 154 37 245 141 347 71 70
229 150 302 152 l27 1 -2 -517z m542 -1073 c94 -24 148 -43 240 -88 78 -39
110 -62 181 -132 134 -132 189 -261 189 -441 0 -138 -23 -208 -107 -320 -70
-94 -216 -189 -367 -238 -59 -20 -199 -47 -218 -43 -17 3 -18 42 -18 637 0
497 3 634 13 638 13 5 15 5 87 -13z"/>
<path d="M7002 6633 c-41 -20 -82 -78 -82 -116 0 -37 20 -74 94 -174 34 -46
83 -114 110 -153 55 -78 90 -97 159 -86 47 8 80 37 96 87 20 62 2 98 -161 319
-99 135 -142 160 -216 123z"/>
<path d="M1000 6588 c-37 -20 -70 -75 -70 -118 0 -62 38 -105 135 -155 17 -8
57 -31 90 -50 69 -40 91 -42 143 -16 47 24 72 67 72 123 -1 59 -24 84 -150
158 -112 66 -173 82 -220 58z"/>
<path d="M7877 6593 c-35 -9 -222 -125 -244 -151 -28 -34 -30 -101 -5 -144 19
-33 78 -68 114 -68 13 0 58 20 100 44 42 24 83 46 90 50 109 53 147 140 95
217 -35 52 -85 69 -150 52z"/>
<path d="M1581 6206 c-33 -18 -70 -78 -147 -234 -86 -177 -94 -231 -39 -286
34 -34 87 -48 128 -34 33 11 87 55 87 71 0 5 36 82 80 171 83 167 93 205 67
256 -29 58 -120 87 -176 56z"/>
<path d="M7460 5789 c-66 -55 -73 -100 -35 -205 26 -71 52 -147 82 -244 9 -30
25 -65 36 -77 30 -34 83 -55 118 -48 44 10 97 60 104 99 9 48 -18 164 -65 286
-12 30 -25 66 -28 80 -8 37 -46 94 -76 113 -36 24 -105 21 -136 -4z"/>
<path d="M1233 5300 c-40 -24 -62 -67 -73 -139 -5 -31 -13 -81 -19 -111 -29
-154 -33 -216 -18 -251 29 -69 99 -100 164 -74 61 25 77 55 97 185 10 63 24
143 32 177 8 34 14 81 14 104 0 100 -111 162 -197 109z"/>
<path d="M7693 4861 c-74 -34 -75 -37 -78 -430 l-3 -346 38 -37 c32 -32 44
-38 80 -38 55 0 97 26 123 75 20 38 22 56 25 356 4 306 3 318 -17 357 -14 28
-35 49 -61 62 -48 24 -54 24 -107 1z"/>
<path d="M484 4613 c-12 -2 -34 -18 -50 -34 -25 -26 -29 -38 -29 -89 0 -54 3
-63 33 -92 l32 -33 159 0 c183 0 204 8 231 83 13 37 13 47 0 84 -26 73 -50 83
-213 84 -78 1 -152 0 -163 -3z"/>
<path d="M8180 4603 c-93 -48 -88 -190 8 -230 28 -11 68 -14 179 -11 l143 3
32 33 c30 29 33 38 33 92 0 54 -3 63 -33 92 l-32 33 -148 3 c-126 2 -152 0
-182 -15z"/>
<path d="M1183 4351 c-30 -14 -48 -31 -64 -63 l-22 -43 18 -140 c25 -201 42
-277 70 -307 66 -72 181 -51 216 39 12 30 6 106 -17 242 -8 46 -14 103 -14
128 0 64 -30 117 -83 142 -52 25 -52 25 -104 2z"/>
<path d="M7552 3652 c-24 -11 -40 -33 -62 -79 -17 -35 -30 -69 -30 -77 0 -13
-44 -133 -76 -204 -20 -46 -18 -132 4 -157 54 -64 129 -74 185 -25 18 16 41
48 51 72 10 24 24 57 31 73 32 72 88 253 88 287 0 45 -23 82 -66 108 -38 24
-80 24 -125 2z"/>
<path d="M1405 3415 c-56 -26 -85 -68 -85 -121 0 -34 39 -132 113 -283 61
-125 85 -152 145 -167 57 -15 152 65 152 128 0 15 -24 78 -54 140 -30 62 -66
142 -81 178 -31 75 -57 107 -102 126 -40 17 -50 17 -88 -1z"/>
<path d="M7142 2788 c-13 -6 -81 -89 -152 -184 -117 -156 -130 -177 -130 -214
0 -119 147 -171 232 -82 59 62 213 276 231 321 17 40 17 44 -2 86 -32 72 -112
105 -179 73z"/>
<path d="M1138 2706 c-42 -24 -83 -46 -90 -50 -102 -50 -143 -129 -104 -204
27 -52 53 -67 114 -66 52 0 67 7 162 63 58 34 115 75 127 89 47 57 19 162 -51
196 -51 24 -74 20 -158 -28z"/>
<path d="M7683 2734 c-70 -35 -97 -140 -50 -196 12 -14 69 -55 127 -89 95 -56
110 -63 162 -63 61 -1 87 14 114 66 39 75 -2 154 -104 204 -7 4 -48 26 -90 50
-83 48 -110 52 -159 28z"/>
<path d="M1877 2579 c-66 -35 -92 -102 -65 -166 13 -30 74 -107 149 -188 25
-27 61 -67 79 -88 39 -45 78 -67 120 -67 60 0 119 49 135 112 10 37 -24 96
-103 181 -37 40 -92 100 -121 135 -50 58 -112 103 -143 102 -7 -1 -30 -10 -51
-21z"/>
<path d="M6393 2002 c-65 -48 -135 -98 -155 -110 -20 -13 -50 -39 -67 -58 -55
-62 -35 -156 41 -195 47 -24 68 -24 121 1 60 28 306 214 328 247 12 18 19 46
19 77 0 43 -4 53 -39 87 -34 34 -45 39 -84 39 -42 0 -56 -8 -164 -88z"/>
<path d="M2575 1921 c-55 -33 -68 -56 -68 -116 0 -68 14 -85 128 -160 152
-100 257 -155 296 -155 53 0 114 47 123 95 9 45 -1 94 -22 118 -9 10 -66 48
-127 84 -60 37 -123 77 -140 89 -45 33 -111 64 -137 64 -13 0 -36 -8 -53 -19z"/>
<path d="M5655 1581 c-27 -10 -70 -26 -95 -35 -25 -10 -58 -21 -75 -26 -168
-47 -215 -84 -215 -170 0 -68 59 -130 124 -130 25 0 177 48 286 90 30 12 69
26 87 31 41 12 80 59 89 106 9 47 -17 98 -65 130 -40 27 -68 28 -136 4z"/>
<path d="M3429 1487 c-19 -12 -42 -40 -53 -61 -16 -33 -17 -43 -7 -78 21 -70
55 -89 251 -141 30 -8 78 -20 105 -27 28 -8 73 -15 100 -18 45 -3 54 0 90 31
39 34 40 37 40 97 0 60 -1 64 -39 96 -22 19 -54 36 -75 39 -20 3 -54 11 -76
17 -22 6 -56 15 -75 19 -19 4 -66 17 -105 28 -90 26 -115 26 -156 -2z"/>
<path d="M2538 1347 c-14 -12 -54 -69 -88 -127 -88 -149 -91 -213 -11 -267 77
-52 164 -14 217 95 4 7 26 48 50 90 48 84 52 107 28 158 -34 70 -139 98 -196
51z"/>
<path d="M4545 1361 c-145 -7 -176 -17 -212 -70 -28 -42 -29 -86 -3 -128 38
-63 46 -65 282 -61 224 3 243 7 278 53 48 62 40 137 -19 185 -40 33 -38 33
-326 21z"/>
<path d="M6295 1350 c-35 -23 -65 -74 -65 -110 0 -14 20 -60 44 -102 24 -42
46 -83 50 -90 50 -102 129 -143 204 -104 52 27 67 53 66 114 0 52 -7 67 -63
162 -34 58 -75 115 -89 127 -35 29 -105 31 -147 3z"/>
<path d="M4430 853 c-61 -32 -71 -67 -68 -235 l3 -148 33 -32 c29 -30 38 -33
91 -33 67 0 94 17 117 72 19 45 19 272 0 318 -27 64 -110 92 -176 58z"/>
</g>
</svg>
