<?xml version="1.0" standalone="no"?>
<!DOCTYPE svg PUBLIC "-//W3C//DTD SVG 20010904//EN"
 "http://www.w3.org/TR/2001/REC-SVG-20010904/DTD/svg10.dtd">
<svg version="1.0" xmlns="http://www.w3.org/2000/svg"
 width="900.000000pt" height="900.000000pt" viewBox="0 0 900.000000 900.000000"
 preserveAspectRatio="xMidYMid meet">
<metadata>
Created by potrace 1.10, written by Peter Selinger 2001-2011
</metadata>
<g transform="translate(0.000000,900.000000) scale(0.100000,-0.100000)"
fill="#000000" stroke="none">
<path d="M260 8985 c0 -8 -15 -18 -34 -24 -80 -22 -166 -104 -207 -199 -19
-43 -19 -149 -19 -4273 l0 -4230 27 -57 c34 -72 103 -141 175 -175 l57 -27
4230 0 c4124 0 4230 0 4273 19 95 41 177 127 199 207 6 19 16 34 24 34 12 0
15 19 15 100 0 82 -3 100 -15 100 -8 0 -18 12 -21 28 -4 15 -19 45 -34 67 -37
53 -8334 8351 -8380 8380 -19 12 -47 25 -62 29 -16 3 -28 13 -28 21 0 12 -18
15 -100 15 -81 0 -100 -3 -100 -15z m4302 -4423 l4158 -4157 0 -44 c0 -35 -6
-51 -27 -73 l-27 -28 -190 0 -191 0 -3345 3346 c-1840 1840 -3363 3359 -3384
3375 -24 18 -51 29 -71 29 -43 0 -96 -37 -119 -83 -16 -33 -17 -44 -6 -81 10
-38 351 -382 3275 -3306 1795 -1795 3262 -3267 3259 -3272 -3 -4 -284 -8 -624
-8 l-619 0 -3 203 c-3 193 -4 203 -26 235 -45 63 -128 76 -187 30 -49 -38 -55
-70 -55 -278 l0 -190 -315 0 -315 0 0 193 c0 180 -2 194 -23 232 -42 75 -128
94 -192 43 -49 -38 -55 -70 -55 -278 l0 -190 -315 0 -315 0 0 190 c0 171 -2
195 -20 230 -50 97 -166 103 -227 11 -22 -32 -23 -43 -23 -232 l0 -199 -315 0
-315 0 0 191 c0 156 -3 197 -16 225 -48 100 -170 108 -231 15 -22 -32 -23 -43
-23 -232 l0 -199 -315 0 -315 0 0 199 c0 189 -1 200 -23 232 -61 93 -183 85
-231 -15 -13 -28 -16 -69 -16 -225 l0 -191 -315 0 -315 0 0 199 c0 189 -1 200
-23 232 -61 93 -183 85 -231 -15 -13 -28 -16 -69 -16 -225 l0 -191 -315 0
-315 0 0 190 c0 208 -6 240 -55 278 -64 51 -150 32 -192 -43 -21 -38 -23 -52
-23 -232 l0 -193 -333 0 -333 0 -27 28 -27 28 2 445 3 444 201 5 c184 5 204 7
224 25 61 55 67 132 16 191 l-34 39 -203 5 -204 5 0 315 0 315 195 5 c212 5
228 9 260 63 32 51 26 106 -14 153 l-34 39 -203 5 -204 5 0 315 0 315 195 5
c129 3 202 9 217 17 77 45 84 154 13 218 -20 18 -40 20 -224 25 l-201 5 0 315
0 315 204 5 203 5 34 39 c28 33 34 47 34 86 0 39 -6 53 -34 86 l-34 39 -203 5
-204 5 0 315 0 315 204 5 203 5 34 39 c28 33 34 47 34 86 0 39 -6 53 -34 86
l-34 39 -203 5 -204 5 0 315 0 315 204 5 203 5 34 39 c42 48 47 110 13 157
-35 50 -51 54 -259 59 l-195 5 0 315 0 315 204 5 203 5 34 39 c40 47 46 102
14 153 -32 54 -48 58 -260 63 l-195 5 -3 500 c-1 275 0 507 3 514 4 10 130
-109 388 -367 408 -408 413 -412 487 -392 43 11 73 42 89 89 24 73 25 73 -490
588 l-479 478 0 189 0 190 27 28 c22 23 35 28 72 28 l46 0 4157 -4158z"/>
<path d="M1492 5870 c-36 -15 -59 -42 -71 -85 -15 -56 -15 -4213 0 -4270 15
-56 43 -82 103 -95 36 -8 491 -10 1561 -8 1667 3 1546 -2 1592 67 28 42 29 86
3 128 -41 68 86 63 -1527 66 -804 1 -1464 5 -1468 8 -4 5 -9 3574 -5 3722 0 4
5 7 12 7 19 0 3720 -3708 3716 -3722 -4 -10 -46 -13 -182 -15 -142 -2 -183 -5
-202 -18 -90 -59 -70 -202 34 -233 54 -16 681 -15 736 1 21 7 47 23 58 37 22
30 33 88 24 127 -5 20 -640 661 -2124 2146 -1164 1165 -2129 2125 -2144 2133
-30 16 -81 17 -116 4z"/>
</g>
</svg>
