<?xml version="1.0" standalone="no"?>
<!DOCTYPE svg PUBLIC "-//W3C//DTD SVG 20010904//EN"
 "http://www.w3.org/TR/2001/REC-SVG-20010904/DTD/svg10.dtd">
<svg version="1.0" xmlns="http://www.w3.org/2000/svg"
 width="900.000000pt" height="1032.000000pt" viewBox="0 0 900.000000 1032.000000"
 preserveAspectRatio="xMidYMid meet">
<metadata>
Created by potrace 1.10, written by Peter Selinger 2001-2011
</metadata>
<g transform="translate(0.000000,1032.000000) scale(0.100000,-0.100000)"
fill="#000000" stroke="none">
<path d="M4143 10308 c1 -9 -32 -16 -118 -24 -66 -6 -154 -16 -195 -23 -145
-24 -246 -42 -300 -56 -30 -7 -86 -21 -125 -30 -144 -35 -398 -115 -520 -165
-38 -15 -95 -38 -125 -50 -462 -188 -989 -534 -1360 -895 -274 -266 -487 -524
-673 -816 -23 -36 -47 -75 -54 -85 -103 -161 -311 -574 -353 -704 -5 -14 -18
-50 -30 -80 -24 -62 -82 -239 -105 -317 -70 -243 -107 -421 -152 -743 -22
-158 -25 -806 -5 -905 7 -33 17 -91 22 -130 8 -60 25 -142 60 -295 7 -33 25
-98 56 -200 13 -47 88 -258 122 -345 80 -210 258 -576 369 -760 7 -11 17 -29
23 -40 6 -11 19 -33 30 -50 11 -16 23 -37 27 -45 14 -32 141 -226 303 -465 90
-133 335 -449 483 -625 69 -82 218 -252 257 -295 26 -27 82 -88 125 -135 94
-102 460 -469 565 -566 258 -237 544 -483 740 -634 61 -47 77 -61 114 -91 50
-41 289 -216 426 -311 210 -145 536 -353 593 -379 12 -5 36 -18 52 -28 36 -23
143 -28 177 -8 30 17 305 201 400 268 43 30 104 72 135 94 152 105 627 466
723 549 13 11 45 37 71 56 25 19 68 54 95 77 194 164 357 304 399 343 28 26
102 94 165 151 153 140 541 525 677 674 110 120 131 145 238 265 102 115 279
338 413 518 26 35 75 101 110 147 34 46 62 87 62 91 0 3 14 23 30 44 17 21 30
40 30 43 0 3 19 34 43 69 42 62 187 299 201 328 4 8 22 42 40 75 40 70 174
337 206 410 12 28 28 64 36 80 19 43 101 256 107 280 3 11 16 52 30 90 13 39
32 99 42 135 9 36 23 85 31 110 29 99 64 273 91 455 15 100 18 180 17 480 -1
223 -6 387 -13 430 -6 39 -14 95 -17 125 -11 116 -68 408 -110 558 -40 146
-97 324 -134 422 -12 30 -25 66 -30 80 -30 91 -186 420 -257 538 -23 41 -43
76 -43 78 0 2 -12 23 -27 47 -15 23 -32 50 -38 59 -35 60 -92 148 -115 178
-15 19 -49 66 -75 104 -152 218 -417 510 -650 714 -60 53 -112 99 -115 102 -3
3 -44 36 -91 73 -343 266 -684 465 -1064 622 -85 35 -112 45 -202 79 -55 20
-203 68 -238 76 -16 4 -66 18 -110 30 -44 13 -98 26 -120 30 -22 4 -60 12 -85
18 -126 32 -307 60 -475 76 -86 8 -119 15 -117 24 1 9 -75 12 -348 12 -273 0
-349 -3 -347 -12z m621 -348 c321 -23 621 -78 911 -166 28 -8 64 -19 80 -24
29 -8 60 -18 135 -45 36 -13 173 -68 225 -90 17 -7 102 -48 190 -91 596 -289
1101 -713 1528 -1282 26 -34 47 -65 47 -68 0 -3 14 -23 30 -44 17 -21 30 -40
30 -43 0 -2 22 -38 49 -79 45 -69 61 -94 127 -213 195 -348 344 -755 438
-1200 49 -229 76 -517 76 -798 0 -276 -20 -458 -77 -712 -27 -119 -92 -349
-118 -417 -8 -21 -21 -55 -29 -75 -19 -50 -73 -183 -105 -258 -60 -138 -203
-411 -301 -573 -58 -95 -110 -181 -115 -190 -14 -23 -80 -122 -140 -207 -77
-111 -306 -410 -393 -514 -393 -471 -825 -905 -1342 -1351 -194 -167 -452
-381 -512 -425 -15 -11 -150 -113 -300 -226 -387 -291 -684 -499 -714 -499
-40 0 -499 302 -804 528 -133 99 -299 229 -410 322 -42 36 -99 83 -125 105
-27 22 -54 45 -60 52 -7 7 -50 44 -96 84 -335 288 -684 633 -1040 1029 -254
283 -629 770 -789 1025 -8 13 -35 56 -60 95 -25 39 -49 79 -55 88 -5 10 -38
65 -72 122 -89 151 -196 355 -273 525 -63 138 -80 176 -80 181 0 4 -15 46 -34
93 -19 47 -46 124 -61 171 -15 47 -34 100 -41 118 -8 18 -14 40 -14 49 0 9 -6
39 -14 67 -41 146 -61 244 -92 456 -13 93 -15 170 -12 400 3 157 10 321 17
365 6 44 18 130 27 190 28 202 75 402 150 640 46 146 51 158 104 290 68 166
162 364 227 473 24 41 43 76 43 79 0 2 14 24 30 48 17 24 30 47 30 50 0 4 12
24 28 44 15 20 32 44 37 53 14 24 61 91 124 178 183 252 504 585 736 765 21
17 52 42 69 56 30 25 79 60 231 164 198 135 522 307 735 389 25 10 59 24 75
31 33 15 163 62 210 75 17 5 62 18 100 30 39 11 106 30 150 41 44 11 103 26
131 34 28 8 62 15 76 15 14 0 56 6 94 14 266 55 679 78 988 56z"/>
<path d="M4320 8265 c-8 -2 -62 -8 -120 -15 -285 -30 -607 -133 -865 -274
-125 -68 -125 -68 -175 -101 -274 -180 -507 -410 -696 -690 -66 -97 -79 -119
-151 -255 -110 -208 -187 -447 -240 -745 -25 -143 -25 -567 0 -710 78 -438
217 -773 455 -1090 156 -208 346 -396 532 -528 141 -99 201 -135 377 -225 81
-42 175 -79 283 -113 36 -12 83 -27 105 -34 43 -14 133 -34 260 -59 44 -8 153
-20 243 -27 238 -17 448 0 717 58 68 14 95 22 220 63 119 39 174 61 305 125
410 200 782 544 1016 940 172 291 250 509 321 895 25 137 25 563 0 705 -55
302 -130 538 -240 745 -72 136 -85 158 -151 255 -133 196 -268 348 -451 507
-54 47 -202 158 -210 158 -4 0 -24 12 -44 28 -20 15 -46 33 -58 40 -149 83
-203 110 -293 149 -208 89 -403 145 -635 179 -91 13 -469 28 -505 19z m380
-349 c259 -27 522 -102 725 -209 22 -11 47 -24 55 -28 59 -30 225 -133 240
-149 3 -3 37 -30 75 -59 141 -109 313 -291 416 -441 202 -293 311 -579 365
-952 18 -130 16 -418 -5 -538 -40 -224 -79 -363 -146 -520 -41 -97 -130 -267
-151 -291 -8 -8 -14 -19 -14 -22 0 -4 -23 -40 -52 -79 -231 -326 -532 -570
-893 -725 -92 -40 -277 -103 -302 -103 -9 0 -39 -6 -67 -14 -118 -34 -241 -46
-462 -46 -211 0 -283 7 -434 41 -25 6 -63 14 -85 18 -22 5 -67 18 -100 30 -33
12 -73 26 -90 30 -16 5 -67 25 -113 45 -297 128 -568 329 -771 571 -63 75
-171 220 -171 230 0 2 -13 23 -29 47 -37 56 -91 161 -136 268 -145 338 -198
739 -145 1087 21 137 41 239 59 294 40 127 53 163 86 239 66 154 92 202 191
356 171 265 475 539 763 688 30 15 62 32 70 36 79 42 262 108 396 143 234 61
472 78 725 53z"/>
<path d="M4435 6898 c-17 -6 -115 -95 -232 -210 -113 -113 -206 -197 -212
-194 -6 4 -11 16 -11 27 0 25 -26 77 -54 107 -75 83 -210 64 -263 -37 -22 -42
-23 -54 -23 -252 l0 -207 -96 -99 c-136 -140 -157 -189 -114 -273 25 -50 78
-90 127 -96 21 -3 48 -7 60 -10 l22 -4 3 -393 c3 -437 0 -417 75 -474 l36 -28
731 0 c817 0 765 -5 823 72 l28 36 3 394 3 393 22 4 c12 3 39 7 60 10 74 10
147 93 147 166 0 17 -9 49 -21 71 -28 56 -958 980 -1002 996 -39 14 -73 15
-112 1z m332 -680 c261 -261 281 -286 251 -316 -10 -10 -14 -111 -18 -410 l-5
-397 -505 0 -505 0 -5 397 c-4 299 -8 400 -17 410 -7 6 -13 21 -13 32 0 24
516 546 540 546 8 0 133 -118 277 -262z"/>
</g>
</svg>
