<?xml version="1.0" standalone="no"?>
<!DOCTYPE svg PUBLIC "-//W3C//DTD SVG 20010904//EN"
 "http://www.w3.org/TR/2001/REC-SVG-20010904/DTD/svg10.dtd">
<svg version="1.0" xmlns="http://www.w3.org/2000/svg"
 width="900.000000pt" height="639.000000pt" viewBox="0 0 900.000000 639.000000"
 preserveAspectRatio="xMidYMid meet">
<metadata>
Created by potrace 1.10, written by Peter Selinger 2001-2011
</metadata>
<g transform="translate(0.000000,639.000000) scale(0.100000,-0.100000)"
fill="#000000" stroke="none">
<path d="M90 6377 c0 -8 -11 -19 -25 -25 -14 -6 -34 -26 -45 -44 -20 -33 -20
-53 -20 -2742 0 -1872 3 -2721 11 -2750 75 -293 216 -503 437 -650 181 -120
340 -166 571 -166 184 0 237 9 381 65 166 65 331 191 458 350 l31 40 23 -30
c49 -66 207 -219 268 -259 109 -72 232 -123 373 -155 62 -14 343 -14 404 0
256 60 459 184 602 369 66 84 65 84 124 4 80 -112 292 -276 394 -307 10 -3 43
-15 73 -26 97 -38 187 -51 340 -51 197 0 283 18 455 97 113 51 267 176 346
280 24 32 48 61 53 65 16 11 32 -1 67 -50 38 -54 120 -137 176 -179 21 -15 40
-30 43 -33 11 -12 108 -68 164 -94 69 -33 127 -52 216 -72 78 -17 348 -19 417
-3 148 34 263 82 373 154 61 41 219 194 268 260 l23 30 31 -40 c113 -141 321
-306 425 -338 10 -3 43 -15 73 -26 97 -38 187 -51 340 -51 197 0 291 21 456
100 157 75 300 201 398 348 71 108 136 261 151 360 4 26 12 42 21 42 12 0 14
383 14 2715 0 2165 -3 2715 -12 2715 -7 0 -21 14 -30 30 -9 17 -29 35 -43 42
-14 6 -25 17 -25 25 0 11 -730 13 -4400 13 -3670 0 -4400 -2 -4400 -13z m768
-597 c4 -353 -13 -436 -124 -605 -59 -90 -225 -235 -269 -235 -8 0 -16 -4 -19
-9 -6 -9 -96 -41 -115 -41 -8 0 -11 177 -11 580 l0 580 268 -2 267 -3 3 -265z
m1732 -7 c0 -348 -11 -414 -94 -556 -110 -188 -290 -309 -510 -343 -253 -38
-503 66 -659 276 -51 68 -62 85 -83 130 -44 97 -47 124 -51 453 l-4 317 701 0
700 0 0 -277z m1738 47 c4 -253 -9 -391 -44 -489 -114 -314 -434 -506 -760
-457 -275 42 -486 221 -575 487 -19 58 -22 92 -26 361 -3 164 -3 305 1 313 5
13 89 15 703 13 l698 -3 3 -225z m1727 -80 c-1 -287 -2 -309 -23 -374 -87
-269 -299 -450 -576 -492 -274 -42 -556 90 -697 327 -90 151 -109 251 -109
590 0 135 3 249 7 252 3 4 320 6 702 5 l696 -3 0 -305z m1732 -7 c-4 -329 -7
-356 -51 -453 -21 -45 -32 -62 -83 -130 -302 -405 -913 -370 -1169 67 -83 142
-94 208 -94 556 l0 277 700 0 701 0 -4 -317z m873 -263 c0 -403 -3 -580 -11
-580 -19 0 -109 32 -115 41 -3 5 -11 9 -19 9 -44 0 -210 145 -269 235 -109
166 -126 247 -126 597 0 146 3 268 7 271 3 4 125 7 270 7 l263 0 0 -580z
m-7584 -532 c122 -157 304 -288 474 -340 30 -10 82 -26 115 -36 l60 -19 3
-254 c4 -310 -8 -396 -74 -534 -211 -444 -785 -543 -1135 -196 -47 47 -139
180 -139 201 0 7 -6 24 -14 38 -41 79 -46 129 -46 444 l0 305 63 17 c260 74
425 180 582 374 28 34 53 62 56 62 3 0 28 -28 55 -62z m1732 3 c124 -170 326
-305 547 -366 28 -7 62 -18 78 -24 l27 -11 0 -267 c0 -298 -10 -386 -56 -493
-57 -131 -155 -246 -275 -323 -276 -176 -652 -131 -875 105 -90 96 -133 168
-176 293 -18 54 -21 93 -25 372 l-5 312 23 11 c13 5 49 16 79 24 113 30 233
84 297 132 17 13 35 24 38 24 16 0 140 119 202 192 36 43 69 78 72 78 4 0 26
-26 49 -59z m3485 -19 c62 -73 186 -192 202 -192 3 0 21 -11 38 -24 64 -48
184 -102 297 -132 30 -8 66 -19 79 -24 l23 -11 -5 -312 c-5 -330 -8 -352 -62
-467 -82 -176 -237 -314 -420 -376 -109 -36 -262 -44 -372 -19 -220 51 -406
206 -497 415 -46 107 -56 195 -56 493 l0 267 23 10 c12 6 47 16 77 24 222 59
427 195 552 367 23 33 45 59 49 59 3 0 36 -35 72 -78z m1734 1 c117 -145 244
-236 456 -327 21 -9 45 -16 54 -16 9 0 40 -8 70 -17 l53 -17 0 -306 c0 -302 0
-307 -26 -380 -14 -41 -28 -84 -31 -95 -11 -38 -95 -160 -142 -206 -214 -212
-530 -269 -798 -143 -150 70 -264 185 -337 339 -66 138 -78 224 -74 534 l3
254 60 19 c33 10 85 26 115 36 170 52 352 183 474 340 27 34 52 62 55 62 3 0
34 -35 68 -77z m-3490 25 c127 -176 349 -322 573 -378 92 -24 86 6 79 -356 -6
-339 -6 -337 -63 -464 -57 -125 -186 -258 -311 -320 -218 -108 -433 -108 -651
1 -126 63 -253 193 -310 319 -57 128 -57 124 -63 464 -7 365 -15 332 92 360
126 33 262 97 355 169 70 55 164 148 205 205 17 23 38 42 47 42 9 0 30 -19 47
-42z m-2608 -1511 c35 -52 183 -193 245 -235 94 -63 302 -152 357 -152 14 0
33 -6 43 -13 16 -11 17 -37 16 -293 -1 -323 -10 -391 -71 -519 -58 -122 -183
-249 -299 -307 -107 -52 -143 -64 -246 -79 -76 -10 -108 -10 -180 1 -100 14
-214 57 -291 107 -51 34 -193 169 -193 184 0 4 -13 27 -28 51 -32 48 -53 97
-76 178 -14 46 -16 104 -14 365 l3 310 25 7 c14 3 54 14 90 24 88 23 241 98
320 157 63 47 220 202 220 218 0 10 29 39 40 39 5 0 22 -19 39 -43z m1756 -23
c56 -74 153 -164 236 -218 64 -43 189 -105 233 -117 17 -4 51 -13 76 -20 25
-6 56 -16 70 -23 l25 -12 3 -239 c5 -378 -22 -507 -143 -670 -49 -66 -167
-175 -191 -175 -4 0 -15 -6 -23 -14 -32 -27 -169 -74 -255 -86 -213 -32 -446
49 -597 207 -53 55 -114 142 -136 193 -57 137 -56 124 -60 461 -5 285 -3 317
12 332 9 9 28 17 43 17 41 0 125 29 232 80 130 62 295 200 378 318 13 17 29
32 35 32 7 0 35 -30 62 -66z m1707 34 c83 -118 248 -256 378 -318 107 -51 191
-80 232 -80 15 0 34 -7 43 -17 15 -15 16 -47 12 -327 -4 -285 -6 -316 -26
-375 -75 -224 -215 -368 -445 -460 -39 -16 -181 -41 -231 -41 -102 0 -295 54
-346 97 -8 7 -19 13 -23 13 -30 0 -167 134 -219 213 -95 144 -119 273 -115
622 l3 249 25 12 c14 7 45 17 70 23 25 7 59 16 76 20 44 12 169 74 234 117 85
56 173 137 231 214 30 38 59 70 66 70 6 0 22 -15 35 -32z m1722 16 c9 -8 16
-19 16 -24 0 -18 187 -197 245 -235 85 -56 219 -119 295 -139 36 -10 76 -21
90 -24 l25 -7 3 -310 c2 -261 0 -319 -14 -365 -23 -81 -44 -130 -76 -178 -15
-24 -28 -47 -28 -52 0 -16 -138 -147 -193 -183 -237 -155 -533 -152 -782 9
-87 56 -188 172 -234 269 -61 129 -70 196 -71 519 -1 256 0 282 16 293 10 7
29 13 43 13 55 0 263 89 357 152 62 42 210 183 245 235 33 47 40 50 63 27z
m-6726 -222 c77 -63 258 -162 298 -162 8 0 24 -5 34 -10 11 -6 43 -15 72 -20
28 -6 56 -16 60 -23 4 -6 8 -133 8 -280 0 -320 -11 -390 -83 -532 -25 -50 -87
-134 -130 -177 -41 -41 -112 -98 -123 -98 -4 0 -15 -6 -23 -13 -23 -19 -139
-67 -162 -67 -19 0 -19 15 -19 710 0 498 3 710 11 710 6 0 31 -17 57 -38z
m8272 -672 c0 -670 -1 -710 -17 -710 -20 0 -69 18 -123 44 -158 75 -285 216
-353 391 -39 99 -47 177 -47 452 0 147 4 274 8 280 4 7 32 17 60 23 29 5 61
14 72 20 10 5 27 10 37 10 41 1 275 133 318 180 46 51 45 65 45 -690z m-7599
-647 c79 -112 230 -238 364 -305 71 -35 117 -53 235 -87 l65 -19 3 -259 c2
-225 0 -272 -17 -354 -24 -113 -35 -144 -85 -233 -69 -123 -208 -244 -341
-298 -94 -37 -153 -48 -266 -48 -100 0 -127 4 -205 29 -50 16 -119 46 -155 67
-118 69 -238 209 -291 339 -45 114 -48 139 -48 456 l0 304 68 18 c90 24 216
74 277 110 96 57 215 158 282 242 37 46 71 84 74 84 3 1 21 -20 40 -46z m1726
15 c35 -59 173 -196 246 -245 114 -75 226 -126 352 -160 l70 -19 3 -259 c2
-168 -1 -288 -8 -340 -12 -79 -60 -215 -86 -246 -8 -8 -14 -20 -14 -25 0 -19
-109 -135 -170 -182 -132 -99 -260 -142 -425 -142 -164 0 -294 43 -420 139
-131 100 -205 206 -257 367 -21 65 -22 87 -23 379 l0 309 70 19 c127 34 245
87 345 155 60 41 183 159 256 245 17 20 34 37 37 37 3 0 14 -15 24 -32z m5247
-57 c154 -181 362 -305 604 -358 l22 -5 0 -307 0 -307 -29 -90 c-39 -121 -90
-204 -175 -290 -86 -85 -169 -136 -290 -175 -78 -25 -105 -29 -205 -29 -353 0
-632 236 -696 590 -12 66 -15 145 -13 344 l3 259 70 19 c90 25 226 77 246 94
8 8 20 14 26 14 19 0 176 120 233 179 31 31 71 77 89 104 19 26 36 47 37 47 1
0 37 -40 78 -89z m-3495 33 c118 -163 353 -323 546 -369 119 -29 107 10 103
-358 -4 -304 -6 -325 -27 -382 -90 -238 -236 -382 -465 -456 -78 -25 -105 -29
-206 -29 -101 0 -128 4 -206 29 -230 75 -381 224 -466 461 -22 63 -23 75 -23
385 l0 320 60 18 c190 56 270 94 386 183 77 58 155 136 200 198 18 25 40 46
49 46 9 0 31 -21 49 -46z m1726 9 c48 -65 179 -190 246 -235 102 -69 218 -121
344 -155 l70 -19 0 -309 c-1 -292 -2 -314 -23 -379 -80 -249 -252 -416 -502
-487 -89 -26 -261 -26 -350 0 -236 67 -416 236 -494 461 -30 90 -37 182 -34
450 l3 264 70 19 c129 35 243 87 353 161 73 49 225 200 245 244 15 32 41 27
72 -15z"/>
</g>
</svg>
