<?xml version="1.0" standalone="no"?>
<!DOCTYPE svg PUBLIC "-//W3C//DTD SVG 20010904//EN"
 "http://www.w3.org/TR/2001/REC-SVG-20010904/DTD/svg10.dtd">
<svg version="1.0" xmlns="http://www.w3.org/2000/svg"
 width="900.000000pt" height="750.000000pt" viewBox="0 0 900.000000 750.000000"
 preserveAspectRatio="xMidYMid meet">
<metadata>
Created by potrace 1.10, written by Peter Selinger 2001-2011
</metadata>
<g transform="translate(0.000000,750.000000) scale(0.100000,-0.100000)"
fill="#000000" stroke="none">
<path d="M8094 7461 c-22 -4 -67 -20 -100 -35 -51 -25 -139 -108 -669 -637
-336 -335 -616 -609 -622 -609 -6 0 -21 21 -34 48 -70 146 -214 284 -354 340
-135 53 -120 52 -732 52 l-570 0 -37 -33 c-47 -40 -58 -101 -29 -157 34 -66
19 -64 638 -70 l560 -5 69 -34 c81 -40 147 -97 191 -166 37 -59 68 -152 63
-193 -2 -25 -169 -197 -943 -976 l-940 -945 -34 -78 c-18 -43 -40 -96 -48
-118 -9 -22 -21 -56 -28 -75 -8 -19 -28 -73 -46 -120 -17 -47 -51 -137 -76
-200 -24 -63 -50 -131 -58 -150 -7 -19 -27 -71 -45 -115 -30 -75 -40 -100 -74
-192 -16 -44 -33 -88 -75 -196 -42 -108 -46 -138 -26 -181 39 -83 111 -96 241
-45 87 34 141 54 194 75 19 7 76 28 125 48 50 19 122 46 160 61 39 14 79 30
90 35 18 8 177 69 275 106 167 62 355 136 383 151 17 8 228 213 469 454 241
242 443 439 448 439 7 0 10 -327 10 -948 0 -912 -1 -950 -19 -1002 -11 -30
-28 -71 -37 -90 -28 -55 -117 -135 -191 -172 l-68 -33 -1480 -5 c-1633 -6
-1516 0 -1562 -69 l-23 -34 0 -561 c0 -409 -3 -565 -11 -573 -9 -9 -30 4 -84
50 -58 50 -251 212 -498 417 -17 14 -91 76 -166 139 -75 62 -156 129 -180 150
-130 107 -310 258 -342 285 -20 17 -69 58 -110 92 -133 110 -65 98 -634 104
-474 5 -502 7 -540 25 -130 66 -203 143 -244 260 l-21 59 0 1996 1 1995 28 67
c49 114 129 192 251 244 44 18 102 19 2007 24 l1962 5 28 21 c72 52 79 142 16
201 l-35 33 -1986 -3 c-1799 -2 -1992 -4 -2038 -19 -187 -59 -333 -179 -421
-345 -79 -150 -73 36 -73 -2233 0 -2207 -3 -2070 56 -2196 37 -79 75 -132 135
-193 89 -89 168 -138 300 -182 61 -21 83 -22 514 -26 248 -2 460 -6 472 -8 19
-5 40 -20 143 -109 63 -54 446 -374 474 -395 17 -14 47 -39 67 -55 47 -41 108
-93 259 -218 69 -57 261 -218 428 -357 194 -162 316 -256 338 -262 48 -14 107
4 138 42 l26 31 0 647 c0 502 3 651 13 664 11 15 117 17 1412 20 l1400 3 64
22 c194 68 338 190 422 358 82 166 78 108 79 1338 l0 1088 1077 1080 c593 593
1090 1097 1105 1120 16 23 33 59 40 80 6 21 17 38 25 38 10 0 13 25 13 110 0
90 -3 110 -15 110 -8 0 -18 15 -24 34 -18 67 -82 144 -308 367 -197 195 -237
230 -294 256 -71 34 -185 48 -265 34z m209 -319 c104 -101 388 -389 402 -407
8 -12 14 -43 15 -77 0 -51 -4 -61 -39 -105 -54 -67 -186 -193 -202 -193 -17 0
-599 580 -599 598 0 6 50 61 110 120 121 118 155 136 225 120 27 -6 56 -24 88
-56z m-517 -477 c55 -54 94 -101 92 -110 -5 -24 -2771 -2785 -2789 -2785 -21
0 -194 175 -194 195 0 15 2773 2795 2788 2795 4 0 51 -43 103 -95z m400 -399
c52 -52 94 -101 94 -108 0 -7 -626 -639 -1392 -1405 -1182 -1183 -1394 -1390
-1410 -1382 -32 17 -189 182 -186 195 4 18 2773 2794 2787 2794 7 0 55 -42
107 -94z m-3194 -2793 c215 -215 263 -273 225 -273 -6 0 -62 -20 -122 -45 -61
-25 -121 -45 -135 -45 -19 0 -62 37 -179 154 -134 134 -152 156 -146 177 27
92 101 269 112 269 4 0 115 -107 245 -237z m-439 -355 c84 -87 109 -120 100
-129 -9 -9 -62 -31 -161 -65 -24 -9 -46 -13 -50 -10 -5 5 6 44 43 146 25 69
43 84 68 58z"/>
<path d="M1620 5341 c-52 -28 -75 -64 -74 -120 1 -55 23 -92 72 -115 28 -14
86 -16 408 -16 349 0 377 1 412 19 71 37 92 116 48 182 -47 68 -51 69 -463 69
-339 0 -371 -1 -403 -19z"/>
<path d="M2890 5342 c-98 -49 -106 -172 -14 -233 28 -18 59 -19 699 -19 640 0
671 1 699 19 92 61 85 180 -14 232 -33 18 -71 19 -685 19 -599 0 -653 -1 -685
-18z"/>
<path d="M1591 4195 c-75 -64 -60 -174 31 -221 42 -22 1320 -21 1372 1 68 28
94 107 60 178 -34 70 4 67 -752 67 l-680 0 -31 -25z"/>
<path d="M3416 4186 c-36 -33 -41 -50 -36 -121 2 -36 33 -73 77 -91 51 -22
620 -20 665 2 52 25 72 60 72 123 -1 50 -5 58 -37 88 l-37 33 -334 0 -335 0
-35 -34z"/>
<path d="M1615 3503 c-88 -48 -97 -164 -17 -222 29 -20 38 -21 361 -21 l330 0
34 34 c68 68 52 167 -35 212 -21 11 -90 14 -335 14 -263 -1 -312 -3 -338 -17z"/>
<path d="M2742 3504 c-87 -38 -95 -161 -16 -223 26 -21 33 -21 636 -21 602 0
610 0 639 21 81 58 75 165 -13 219 -32 19 -51 20 -623 19 -488 0 -596 -3 -623
-15z"/>
<path d="M1593 2785 c-76 -61 -64 -173 25 -219 28 -14 134 -16 1115 -16 l1084
0 34 23 c78 52 88 135 25 202 l-33 35 -1109 0 -1109 0 -32 -25z"/>
</g>
</svg>
