<?xml version="1.0" standalone="no"?>
<!DOCTYPE svg PUBLIC "-//W3C//DTD SVG 20010904//EN"
 "http://www.w3.org/TR/2001/REC-SVG-20010904/DTD/svg10.dtd">
<svg version="1.0" xmlns="http://www.w3.org/2000/svg"
 width="900.000000pt" height="1506.000000pt" viewBox="0 0 900.000000 1506.000000"
 preserveAspectRatio="xMidYMid meet">
<metadata>
Created by potrace 1.10, written by Peter Selinger 2001-2011
</metadata>
<g transform="translate(0.000000,1506.000000) scale(0.100000,-0.100000)"
fill="#000000" stroke="none">
<path d="M787 15046 c-3 -8 -23 -18 -44 -21 -85 -14 -258 -93 -343 -157 -53
-40 -154 -146 -197 -205 -59 -82 -115 -199 -144 -298 l-24 -80 0 -6765 0
-6765 23 -79 c66 -220 212 -420 392 -535 100 -64 215 -112 315 -131 81 -15
7418 -9 7485 7 25 5 56 15 70 21 14 5 50 20 80 32 139 56 303 196 394 335 63
96 91 154 125 260 l26 80 3 2115 2 2114 -25 52 c-84 172 -327 157 -395 -23
-20 -53 -20 -77 -20 -1597 0 -1399 -1 -1544 -16 -1550 -21 -8 -7987 -8 -8008
0 -15 6 -16 514 -16 5664 0 5150 1 5658 16 5664 21 8 7987 8 8008 0 15 -6 16
-334 16 -3628 0 -3409 1 -3624 17 -3669 23 -65 85 -121 155 -142 49 -14 59
-14 106 0 63 19 114 61 141 119 l21 43 -2 4194 -3 4194 -26 80 c-34 106 -62
164 -125 260 -127 195 -343 347 -551 387 -34 6 -53 15 -53 24 0 21 -7395 21
-7403 0z m7288 -445 c148 -18 272 -92 348 -209 81 -125 82 -129 82 -457 l0
-290 -4015 0 -4015 0 0 296 0 296 43 86 c80 162 208 256 377 277 84 10 7095
11 7180 1z m433 -13476 c2 -251 1 -275 -19 -340 -57 -190 -215 -322 -414 -346
-91 -11 -7079 -11 -7170 0 -148 18 -271 92 -348 209 -82 125 -81 122 -85 440
-2 156 -1 290 2 298 5 12 578 14 4018 12 l4013 -3 3 -270z"/>
<path d="M3234 14342 c-50 -28 -69 -45 -97 -87 -24 -35 -27 -49 -27 -122 0
-77 2 -84 33 -125 49 -63 98 -88 179 -88 79 0 104 8 152 51 123 107 94 293
-56 370 -48 24 -141 25 -184 1z"/>
<path d="M4378 14330 c-26 -16 -60 -49 -75 -72 -25 -37 -28 -51 -28 -122 0
-74 3 -85 30 -122 39 -55 86 -86 141 -94 98 -15 173 16 229 94 27 37 30 48 30
121 0 70 -3 85 -28 123 -15 23 -49 56 -75 72 -40 25 -57 30 -112 30 -55 0 -72
-5 -112 -30z"/>
<path d="M5560 14341 c-82 -44 -130 -119 -130 -206 0 -67 24 -119 76 -164 48
-43 73 -51 152 -51 81 0 130 25 179 88 31 41 33 48 33 126 0 86 -6 101 -59
159 -60 66 -175 88 -251 48z"/>
<path d="M3951 1125 c-50 -16 -104 -64 -132 -117 -45 -87 -8 -211 79 -273 l44
-30 546 0 547 0 48 33 c87 61 121 174 78 268 -24 53 -91 109 -146 123 -69 17
-1007 14 -1064 -4z"/>
<path d="M4305 11274 c-22 -2 -89 -9 -150 -14 -563 -54 -1151 -280 -1601 -616
-547 -408 -924 -913 -1161 -1554 -35 -93 -40 -112 -81 -255 -62 -216 -112
-598 -112 -845 0 -192 36 -516 77 -695 59 -260 134 -475 252 -720 237 -490
561 -884 999 -1215 167 -126 279 -195 497 -305 716 -361 1519 -444 2310 -239
280 72 639 229 898 391 696 438 1214 1137 1430 1929 46 167 58 228 86 429 15
105 31 329 31 425 0 188 -34 493 -79 710 -56 271 -203 650 -348 898 -24 40
-43 75 -43 78 0 11 -117 184 -189 279 -562 743 -1360 1200 -2281 1305 -100 11
-466 21 -535 14z m390 -448 c206 -15 255 -22 448 -67 387 -90 752 -265 1092
-523 111 -84 371 -340 472 -466 234 -291 436 -689 527 -1040 10 -36 24 -88 32
-116 8 -28 14 -64 14 -80 0 -16 5 -45 11 -64 5 -19 16 -105 24 -190 65 -702
-92 -1314 -488 -1905 -127 -190 -414 -493 -602 -636 -506 -385 -1107 -589
-1735 -589 -380 0 -738 71 -1085 215 -78 32 -292 138 -340 168 -138 86 -285
185 -345 234 -184 146 -427 405 -548 581 -356 521 -523 1047 -521 1647 1 410
74 763 233 1127 75 174 127 268 252 458 45 69 118 168 162 220 103 123 345
359 447 436 336 255 709 434 1090 522 195 46 245 53 430 67 223 16 211 16 430
1z"/>
<path d="M3266 10089 c-81 -19 -141 -76 -164 -155 -17 -60 -17 -3828 0 -3888
27 -93 112 -156 210 -156 59 0 106 19 195 76 32 20 159 99 283 174 124 75 329
201 455 280 127 78 313 193 415 255 102 62 253 154 335 206 83 51 229 141 325
199 237 145 544 335 605 375 28 18 69 43 92 56 80 45 318 192 416 256 123 81
150 118 155 213 5 80 -16 130 -77 181 -21 19 -124 86 -228 149 -204 124 -881
542 -961 592 -15 10 -34 21 -43 25 -9 5 -47 27 -85 51 -38 24 -177 110 -309
192 -132 82 -269 167 -305 189 -150 93 -462 284 -700 429 -140 85 -301 183
-357 218 -138 87 -181 101 -257 83z m461 -725 c87 -53 235 -145 328 -203 94
-59 243 -152 333 -207 90 -54 175 -107 190 -116 15 -9 38 -23 52 -31 14 -8
102 -62 195 -121 94 -58 267 -165 385 -237 118 -72 294 -180 390 -240 96 -59
208 -128 247 -151 70 -41 89 -60 78 -78 -3 -4 -71 -49 -153 -99 -81 -50 -208
-129 -282 -175 -74 -47 -223 -138 -330 -204 -107 -65 -298 -183 -425 -262
-126 -78 -304 -188 -395 -243 -91 -54 -228 -139 -305 -187 -318 -199 -459
-281 -479 -278 l-21 3 -3 1440 c-1 792 0 1450 3 1463 3 12 12 22 20 22 8 0 86
-43 172 -96z"/>
<path d="M3004 4194 c-33 -8 -102 -72 -125 -116 -17 -33 -20 -61 -22 -177 -2
-99 -6 -143 -16 -155 -12 -14 -54 -16 -385 -16 l-372 0 -51 -25 c-109 -55
-149 -183 -93 -295 24 -46 55 -74 110 -99 43 -20 64 -21 417 -21 286 0 374 -3
380 -12 4 -7 8 -74 9 -149 2 -91 7 -147 17 -170 74 -177 309 -186 400 -14 18
34 22 62 25 185 3 93 8 148 16 152 6 4 865 8 1908 8 l1897 0 53 23 c172 76
169 329 -4 401 -33 14 -242 16 -1936 16 -1503 0 -1902 3 -1914 13 -13 10 -17
38 -20 152 -4 120 -7 146 -26 180 -48 88 -91 117 -181 121 -36 1 -76 0 -87 -2z"/>
</g>
</svg>
