<?xml version="1.0" encoding="utf-8"?>
<!-- Generator: Adobe Illustrator 17.1.0, SVG Export Plug-In . SVG Version: 6.00 Build 0)  -->
<!DOCTYPE svg PUBLIC "-//W3C//DTD SVG 1.1//EN" "http://www.w3.org/Graphics/SVG/1.1/DTD/svg11.dtd">
<svg version="1.1" id="Слой_1" xmlns="http://www.w3.org/2000/svg" xmlns:xlink="http://www.w3.org/1999/xlink" x="0px" y="0px"
	 viewBox="0 0 512 512" enable-background="new 0 0 512 512" xml:space="preserve">
<g>
	<g>
		<path fill="#FFFFFF" d="M449.7,234.5c0,59.7,0,119.4,0,179.2c-128,0-256,0-384,0c0-31.7,0-63.5,0-95.2c0.2,0.7,0.6,1.4,0.7,2.1
			c3.4,13.8,14.6,23,28.9,23.3c8.7,0.2,17.5,0,26.2,0c1.3,0,2.6,0,4.2,0c0,5.5,0,10.5,0,15.5c0,12.6,0,25.2,0,37.9
			c0,2.7,0.8,5.4,3.5,5.9c2,0.4,4.3-0.6,6.5-1.1c0.5-0.1,1-0.8,1.5-1.2c21.7-18.1,43.4-36.1,65-54.3c2.4-2,4.7-2.8,7.8-2.7
			c37,0.1,74,0.1,111,0.1c20.3,0,32.6-12.3,32.6-32.7c0-3.1,0-6.1,0-9.4c6.4,0,12.1,0.1,17.8,0c17.5-0.3,30.1-13.1,30.2-30.6
			c0-3.7,0-7.4,0-11.5c6.1,0,11.8,0.1,17.6,0c15.3-0.2,26.3-9.1,29.9-23.9C449.2,235.4,449.5,234.9,449.7,234.5z"/>
		<path d="M449.7,234.5c-0.2,0.4-0.5,0.9-0.6,1.3c-3.6,14.9-14.6,23.7-29.9,23.9c-5.7,0.1-11.4,0-17.6,0c0,4.1,0,7.8,0,11.5
			c-0.2,17.5-12.8,30.2-30.2,30.6c-5.7,0.1-11.5,0-17.8,0c0,3.2,0,6.3,0,9.4c0,20.4-12.3,32.7-32.6,32.7c-37,0-74,0-111-0.1
			c-3.1,0-5.4,0.8-7.8,2.7c-21.6,18.2-43.3,36.2-65,54.3c-0.5,0.4-0.9,1-1.5,1.2c-2.2,0.5-4.5,1.5-6.5,1.1c-2.7-0.6-3.5-3.2-3.5-5.9
			c0-12.6,0-25.2,0-37.9c0-5,0-10,0-15.5c-1.6,0-2.9,0-4.2,0c-8.7,0-17.5,0.1-26.2,0c-14.3-0.3-25.5-9.5-28.9-23.3
			c-0.2-0.7-0.5-1.4-0.7-2.1c0-57,0-114,0-171c0.3-0.8,0.6-1.6,0.8-2.5c3-12,12.5-20.9,24.8-22.4c5.5-0.7,11.2-0.4,16.8-0.5
			c1.8,0,3.6,0,5.6,0c0-3.7,0-6.8,0-9.9c0-19.6,12.5-32.1,32.1-32.1c5.2,0,10.4,0,16,0c0-4.4-0.1-8.3,0-12.3
			c0.4-16.7,13.1-29.7,29.5-29.7c76.2-0.1,152.5-0.1,228.7,0c13.8,0,25.3,9.3,28.7,22.6c0.2,1,0.6,1.9,0.9,2.8
			C449.7,120.5,449.7,177.5,449.7,234.5z M137.1,386.3c1.7-1.4,2.8-2.2,3.8-3.1c19-15.8,38.1-31.6,57-47.6c2.6-2.2,5.2-3,8.5-3
			c38.6,0.1,77.2,0.1,115.9,0c12.2,0,20.1-7.7,20.1-19.8c0-53.2,0-106.5,0-159.7c0-11.9-7.8-19.7-19.8-19.7c-75.2,0-150.5,0-225.7,0
			c-12.2,0-19.8,7.8-19.8,20c0,53.1,0,106.2,0,159.3c0,12.2,7.7,19.8,20,19.8c10.4,0,20.7,0,31.1,0c7.8,0,9,1.2,9,8.8
			C137.1,356.1,137.1,370.7,137.1,386.3z M173.6,80.1c1.5,0,3.1,0,4.7,0c63.2,0,126.5,0,189.7,0c1.7,0,3.5,0,5.2,0.1
			c14.2,0.8,25.9,10.8,27.8,24.9c1,7.7,0.6,15.7,0.6,23.6c0,3.2-2.8,5.4-5.7,5.3c-3-0.1-5.3-2.4-5.4-5.7c-0.1-5.1,0-10.2-0.1-15.4
			c0-14.3-7.2-21.5-21.4-21.5c-74.2,0-148.5,0-222.7,0c-1.1,0-2.3,0-3.4,0c-8.3,0.4-15.6,5.9-17.1,13.8c-1,5.4-0.8,11.1-1.1,17
			c2.3,0,3.9,0,5.5,0c63.5,0,127,0,190.4,0c3.5,0,7,0.2,10.4,1.1c13.8,3.4,22.4,15.1,22.4,30.3c0,44.1,0,88.2,0,132.3
			c0,1.4,0,2.9,0,4.7c5.7,0,11,0,16.2,0c13.1-0.1,20.6-7.6,20.6-20.8c0-36.6,0-73.2,0-109.8c0-1.6-0.1-3.3,0-4.9
			c0.2-3.5,2.4-5.8,5.6-5.8c2.9,0,5.3,2.3,5.6,5.5c0.1,1.1,0.1,2.2,0.1,3.4c0,28.6,0,57.2,0,85.9c0,1.4,0,2.9,0,4.5
			c5.7,0,10.8,0,15.9,0c13.5,0,20.8-7.4,20.8-20.9c0-52.4,0-104.7,0-157.1c0-14-7.2-21.2-21.2-21.2c-74.2,0-148.5,0-222.7,0
			c-1.4,0-2.8,0-4.1,0.1c-8.5,0.6-15.6,6.6-16.7,15.1C173,69.4,173.6,74.6,173.6,80.1z"/>
		<path fill="#FFFFFF" d="M449.7,63.5c-0.3-0.9-0.6-1.9-0.9-2.8c-3.4-13.3-14.9-22.6-28.7-22.6c-76.2-0.1-152.5-0.1-228.7,0
			c-16.4,0-29.1,13-29.5,29.7c-0.1,4,0,7.9,0,12.3c-5.6,0-10.8,0-16,0c-19.6,0-32,12.5-32.1,32.1c0,3.1,0,6.2,0,9.9
			c-2,0-3.8,0-5.6,0c-5.6,0.1-11.3-0.2-16.8,0.5C79,124.2,69.5,133,66.5,145.1c-0.2,0.8-0.5,1.6-0.8,2.5c0-39.5,0-78.9,0-118.4
			c128,0,256,0,384,0C449.7,40.5,449.7,52,449.7,63.5z"/>
		<path fill="#FFFFFF" d="M137.1,386.3c0-15.6,0-30.2,0-44.8c0-7.6-1.2-8.8-9-8.8c-10.4,0-20.7,0-31.1,0c-12.3,0-20-7.7-20-19.8
			c0-53.1,0-106.2,0-159.3c0-12.2,7.6-20,19.8-20c75.2,0,150.5,0,225.7,0c12,0,19.8,7.8,19.8,19.7c0,53.2,0,106.5,0,159.7
			c0,12.1-7.8,19.8-20.1,19.8c-38.6,0-77.2,0-115.9,0c-3.3,0-5.9,0.9-8.5,3c-18.9,15.9-38,31.7-57,47.6
			C139.9,384,138.8,384.9,137.1,386.3z M191.6,295.9c17,0,34,0,51,0c1.2,0,2.5,0.1,3.7-0.1c3.2-0.5,5.2-2.9,4.9-6
			c-0.3-3.2-2.2-4.9-5.4-5.1c-1-0.1-2,0-3,0c-34.1,0-68.2,0-102.3,0c-1.2,0-2.5,0-3.7,0.1c-2.9,0.4-4.5,2.2-4.8,5
			c-0.3,2.8,1.1,4.9,3.8,5.7c1.4,0.4,2.9,0.5,4.4,0.5C157.3,295.9,174.4,295.9,191.6,295.9z M260.9,254.5c-16.1,0-32.2,0-48.3,0
			c-1.2,0-2.5,0-3.7,0.1c-2.9,0.4-4.5,2.2-4.7,5c-0.2,2.8,1.1,4.9,3.8,5.7c1.5,0.4,3.2,0.5,4.8,0.5c32,0,64,0,95.9,0
			c1.6,0,3.3,0,4.8-0.5c2.8-0.8,4.1-2.9,3.9-5.7c-0.2-2.7-1.8-4.6-4.7-5c-1.2-0.2-2.5-0.1-3.7-0.1
			C292.9,254.5,276.9,254.5,260.9,254.5z M176.3,235.7c12.2,0,24.5,0,36.7,0c1.2,0,2.5,0,3.7-0.2c3-0.6,4.5-2.6,4.4-5.6
			c-0.1-2.9-1.6-4.7-4.5-5.2c-1.2-0.2-2.5-0.2-3.7-0.2c-24.2,0-48.4,0-72.6,0c-1.4,0-3.1-0.4-4,0.3c-1.7,1.3-3.7,3.1-4.2,5
			c-0.7,2.6,1.1,4.8,3.9,5.5c1.3,0.4,2.7,0.3,4.1,0.4C152.1,235.7,164.2,235.7,176.3,235.7z M279.1,224.4c-7.9,0-15.7,0-23.6,0
			c-3.4,0-6.7-0.1-10.1,0.1c-3.2,0.2-5,2.1-5.2,5.3c-0.2,3,1.9,5.3,5.2,5.8c0.9,0.1,1.7,0.1,2.6,0.1c20.6,0,41.2,0,61.7,0
			c1.2,0,2.5,0,3.7-0.3c2.8-0.8,4.5-3,3.8-5.6c-0.5-1.9-2.5-3.7-4.2-5c-0.9-0.7-2.7-0.3-4-0.3C299,224.4,289.1,224.4,279.1,224.4z
			 M161.7,254.5c-7.6,0-15.2,0-22.8,0c-4.4,0-7,2.1-7.1,5.5c-0.1,3.4,2.6,5.8,6.8,5.8c15.2,0.1,30.4,0.1,45.6,0
			c4.4,0,6.8-2.2,6.8-5.8c0-3.6-2.3-5.5-6.9-5.5C176.7,254.5,169.2,254.5,161.7,254.5z M161.5,187.6c7.6,0,15.2,0.1,22.8,0
			c4.6,0,6.8-2,6.8-5.6c0-3.6-2.4-5.6-6.9-5.6c-15.1-0.1-30.2,0-45.2,0c-4.4,0-7,2.1-7.1,5.5c-0.1,3.5,2.6,5.8,7.2,5.8
			C146.5,187.6,154,187.6,161.5,187.6z M227.7,187.6c5.6,0,11.2,0.1,16.9,0c4.3-0.1,6.6-2,6.6-5.5c0.1-3.6-2.3-5.8-6.7-5.8
			c-11.2-0.1-22.5-0.1-33.7,0c-4.1,0-6.6,2.2-6.7,5.5c-0.1,3.4,2.5,5.7,6.8,5.7C216.5,187.6,222.1,187.6,227.7,187.6z"/>
		<path fill="#FFFFFF" d="M173.6,80.1c0-5.5-0.5-10.7,0.1-15.7c1.1-8.4,8.3-14.4,16.7-15.1c1.4-0.1,2.7-0.1,4.1-0.1
			c74.2,0,148.5,0,222.7,0c14,0,21.2,7.2,21.2,21.2c0,52.4,0,104.7,0,157.1c0,13.5-7.4,20.8-20.8,20.9c-5.1,0-10.2,0-15.9,0
			c0-1.7,0-3.1,0-4.5c0-28.6,0-57.2,0-85.9c0-1.1,0.1-2.3-0.1-3.4c-0.3-3.2-2.7-5.5-5.6-5.5c-3.1,0-5.4,2.4-5.6,5.8
			c-0.1,1.6,0,3.2,0,4.9c0,36.6,0,73.2,0,109.8c0,13.2-7.5,20.7-20.6,20.8c-5.2,0-10.4,0-16.2,0c0-1.8,0-3.2,0-4.7
			c0-44.1,0-88.2,0-132.3c0-15.2-8.6-26.9-22.4-30.3c-3.3-0.8-6.9-1.1-10.4-1.1c-63.5-0.1-127,0-190.4,0c-1.6,0-3.2,0-5.5,0
			c0.3-5.9,0.1-11.6,1.1-17c1.5-7.9,8.7-13.3,17.1-13.8c1.1-0.1,2.2,0,3.4,0c74.2,0,148.5,0,222.7,0c14.2,0,21.4,7.2,21.4,21.5
			c0,5.1-0.1,10.2,0.1,15.4c0.1,3.3,2.4,5.5,5.4,5.7c2.9,0.1,5.7-2.1,5.7-5.3c0.1-7.9,0.5-15.8-0.6-23.6
			c-1.9-14.1-13.5-24.1-27.8-24.9c-1.7-0.1-3.5-0.1-5.2-0.1c-63.2,0-126.5,0-189.7,0C176.7,80.1,175.1,80.1,173.6,80.1z"/>
		<path d="M191.6,295.9c-17.1,0-34.2,0-51.3,0c-1.5,0-3,0-4.4-0.5c-2.7-0.8-4.1-2.9-3.8-5.7c0.3-2.7,1.9-4.6,4.8-5
			c1.2-0.2,2.5-0.1,3.7-0.1c34.1,0,68.2,0,102.3,0c1,0,2,0,3,0c3.2,0.2,5.1,1.9,5.4,5.1c0.3,3.1-1.7,5.5-4.9,6
			c-1.2,0.2-2.5,0.1-3.7,0.1C225.5,295.9,208.5,295.9,191.6,295.9z"/>
		<path d="M260.9,254.5c16,0,32,0,48,0c1.2,0,2.5,0,3.7,0.1c2.9,0.4,4.5,2.3,4.7,5c0.2,2.8-1.1,4.9-3.9,5.7
			c-1.5,0.4-3.2,0.5-4.8,0.5c-32,0-64,0-95.9,0c-1.6,0-3.3,0-4.8-0.5c-2.8-0.8-4.1-2.9-3.8-5.7c0.2-2.8,1.8-4.6,4.7-5
			c1.2-0.2,2.5-0.1,3.7-0.1C228.7,254.5,244.8,254.5,260.9,254.5z"/>
		<path d="M176.3,235.7c-12.1,0-24.2,0-36.3,0c-1.4,0-2.8,0-4.1-0.4c-2.8-0.7-4.5-3-3.9-5.5c0.5-1.9,2.5-3.7,4.2-5
			c0.9-0.7,2.7-0.3,4-0.3c24.2,0,48.4,0,72.6,0c1.2,0,2.5,0,3.7,0.2c2.8,0.5,4.4,2.3,4.5,5.2c0.1,3-1.4,5-4.4,5.6
			c-1.2,0.3-2.5,0.2-3.7,0.2C200.8,235.7,188.6,235.7,176.3,235.7z"/>
		<path d="M279.1,224.4c10,0,20,0,29.9,0c1.4,0,3.1-0.4,4,0.3c1.7,1.3,3.7,3.1,4.2,5c0.7,2.6-1.1,4.8-3.8,5.6
			c-1.2,0.3-2.5,0.3-3.7,0.3c-20.6,0-41.2,0-61.7,0c-0.9,0-1.8,0-2.6-0.1c-3.3-0.4-5.4-2.7-5.2-5.8c0.2-3.2,2-5.1,5.2-5.3
			c3.4-0.2,6.7-0.1,10.1-0.1C263.4,224.4,271.2,224.4,279.1,224.4z"/>
		<path d="M161.7,254.5c7.5,0,15,0,22.4,0c4.6,0,6.9,1.9,6.9,5.5c0,3.6-2.3,5.7-6.8,5.8c-15.2,0.1-30.4,0.1-45.6,0
			c-4.3,0-6.9-2.4-6.8-5.8c0.1-3.4,2.7-5.4,7.1-5.5C146.5,254.5,154.1,254.5,161.7,254.5z"/>
		<path d="M161.5,187.6c-7.5,0-15,0-22.4,0c-4.6,0-7.3-2.3-7.2-5.8c0.1-3.4,2.7-5.5,7.1-5.5c15.1,0,30.2,0,45.2,0
			c4.5,0,6.9,2.1,6.9,5.6c0,3.6-2.3,5.6-6.8,5.6C176.7,187.6,169.1,187.6,161.5,187.6z"/>
		<path d="M227.7,187.6c-5.6,0-11.2,0.1-16.9,0c-4.4-0.1-6.9-2.3-6.8-5.7c0.1-3.3,2.6-5.5,6.7-5.5c11.2-0.1,22.5-0.1,33.7,0
			c4.4,0,6.8,2.2,6.7,5.8c-0.1,3.4-2.4,5.4-6.6,5.5C239,187.6,233.3,187.6,227.7,187.6z"/>
	</g>
</g>
</svg>
