<?xml version="1.0" standalone="no"?>
<!DOCTYPE svg PUBLIC "-//W3C//DTD SVG 20010904//EN"
 "http://www.w3.org/TR/2001/REC-SVG-20010904/DTD/svg10.dtd">
<svg version="1.0" xmlns="http://www.w3.org/2000/svg"
 width="900.000000pt" height="1362.000000pt" viewBox="0 0 900.000000 1362.000000"
 preserveAspectRatio="xMidYMid meet">
<metadata>
Created by potrace 1.10, written by Peter Selinger 2001-2011
</metadata>
<g transform="translate(0.000000,1362.000000) scale(0.100000,-0.100000)"
fill="#000000" stroke="none">
<path d="M3714 13611 c9 -13 -15 -19 -101 -26 -503 -39 -1169 -251 -1643 -523
-302 -174 -601 -396 -822 -610 -134 -131 -152 -160 -146 -242 6 -81 42 -134
115 -167 95 -44 152 -24 280 97 477 451 1038 767 1663 938 480 132 1016 166
1525 96 240 -32 382 -64 647 -145 217 -67 499 -190 743 -323 175 -96 521 -349
675 -494 166 -156 192 -174 260 -187 44 -8 115 17 153 53 16 15 37 47 48 71
42 95 16 162 -108 282 -534 511 -1179 869 -1893 1049 -195 49 -446 94 -593
105 -86 7 -110 13 -101 26 3 5 -144 9 -351 9 -207 0 -354 -4 -351 -9z"/>
<path d="M3790 12319 c-540 -47 -1068 -251 -1505 -580 -155 -117 -333 -278
-357 -322 -26 -49 -24 -152 5 -202 44 -77 158 -116 242 -81 18 8 78 54 132
103 184 166 301 252 498 366 438 252 1024 372 1530 312 345 -42 583 -111 874
-255 233 -117 413 -241 607 -421 98 -91 147 -118 212 -119 134 0 231 154 178
282 -35 83 -371 363 -601 500 -406 242 -836 381 -1289 418 -147 11 -387 11
-526 -1z"/>
<path d="M3850 11254 c-14 -2 -56 -9 -95 -15 -377 -59 -761 -253 -1021 -516
-53 -54 -74 -99 -74 -158 0 -51 19 -95 59 -138 39 -43 74 -57 138 -57 70 0 97
15 203 110 179 161 387 271 630 334 155 40 246 49 423 43 239 -7 411 -49 608
-147 153 -76 211 -116 382 -262 85 -73 114 -84 197 -76 61 6 110 42 139 101
23 46 28 127 11 171 -14 37 -73 100 -175 184 -182 153 -379 262 -608 337 -217
71 -317 87 -572 91 -121 1 -231 1 -245 -2z"/>
<path d="M3938 10190 c-203 -32 -398 -145 -524 -303 -134 -167 -187 -316 -187
-527 0 -240 75 -423 242 -591 211 -212 520 -296 811 -220 365 96 620 429 620
809 0 221 -73 408 -221 566 -119 128 -239 201 -400 246 -85 23 -257 33 -341
20z m221 -405 c133 -32 240 -117 300 -240 34 -67 35 -74 35 -185 0 -111 -1
-118 -33 -184 -45 -91 -125 -171 -216 -215 -67 -32 -75 -34 -180 -34 -104 0
-114 2 -180 33 -134 64 -221 174 -250 315 -13 66 -14 91 -5 146 30 179 148
309 325 360 75 22 123 23 204 4z"/>
<path d="M3395 8062 c-58 -11 -105 -41 -140 -91 l-30 -43 -5 -1021 c-4 -740
-8 -1029 -17 -1048 -21 -47 -67 -92 -118 -115 -49 -23 -54 -24 -387 -24 -259
0 -339 3 -345 13 -4 6 -10 120 -13 253 -5 240 -5 241 -32 281 -15 22 -44 51
-65 64 l-38 24 -1025 0 -1025 0 -38 -23 c-20 -13 -50 -45 -65 -70 l-27 -47 -3
-3019 c-1 -2082 1 -3030 8 -3057 12 -45 60 -103 101 -125 24 -12 177 -14 1056
-13 1157 1 1058 -6 1118 78 l30 43 5 244 c4 203 8 246 20 254 9 6 132 9 311 8
l296 -3 99 -68 c54 -38 137 -96 184 -128 208 -147 297 -203 339 -216 68 -20
3655 -19 3791 2 331 50 578 259 686 580 22 66 27 104 31 215 5 118 2 147 -17
225 -12 50 -42 131 -67 182 -25 51 -42 97 -38 103 3 6 34 24 68 41 322 162
503 462 484 805 -7 129 -27 206 -83 321 -24 51 -44 99 -44 107 0 10 26 28 65
45 131 60 233 141 318 254 69 91 110 173 143 284 23 75 27 107 27 218 1 151
-15 225 -73 352 -46 98 -82 153 -156 232 l-55 59 45 51 c112 126 169 225 212
368 23 76 27 106 27 223 0 156 -13 218 -74 348 -95 204 -246 348 -452 430
-154 62 -156 62 -929 62 l-703 -1 -45 -22 c-27 -13 -57 -39 -75 -65 -26 -38
-30 -52 -30 -111 0 -57 4 -74 28 -109 15 -23 46 -52 70 -64 l42 -23 715 -5
c524 -4 725 -9 751 -18 54 -18 149 -83 195 -133 84 -93 126 -233 105 -355 -28
-161 -152 -303 -309 -356 -27 -9 -225 -14 -754 -18 l-716 -5 -43 -30 c-63 -44
-84 -86 -84 -166 0 -55 5 -72 28 -107 15 -23 46 -52 70 -64 l42 -23 715 -5
715 -5 58 -23 c103 -42 195 -128 241 -227 104 -219 7 -474 -221 -583 l-78 -37
-720 -5 c-808 -6 -752 0 -816 -81 -30 -39 -33 -48 -34 -113 0 -87 24 -133 93
-174 l47 -27 505 -5 505 -5 76 -36 c224 -107 321 -364 217 -578 -62 -128 -195
-230 -326 -252 -31 -5 -262 -9 -512 -9 -453 0 -456 0 -500 -23 -24 -12 -57
-39 -74 -60 -27 -34 -30 -45 -31 -110 0 -84 18 -122 77 -163 56 -39 92 -43
358 -44 179 0 259 -4 298 -14 126 -34 239 -136 292 -262 25 -61 30 -86 30
-157 0 -95 -17 -157 -65 -232 -71 -112 -185 -186 -312 -205 -43 -6 -725 -10
-1833 -10 -1734 0 -1766 1 -1805 20 -22 11 -60 35 -85 53 -25 18 -83 60 -130
92 -47 32 -143 99 -214 148 -71 50 -145 96 -165 103 -27 10 -126 13 -383 14
-333 0 -348 1 -358 19 -16 31 -14 4232 2 4254 12 14 55 16 388 20 318 3 383 6
425 21 181 60 315 171 389 320 69 138 66 95 66 1076 0 729 2 889 14 905 12 16
23 18 102 12 412 -30 792 -329 923 -727 54 -166 54 -160 60 -841 l6 -635 28
-42 c15 -23 46 -52 70 -64 42 -23 43 -23 555 -26 343 -2 525 1 552 8 105 28
177 158 141 253 -15 38 -70 96 -112 118 -36 18 -62 19 -426 19 -213 0 -393 4
-400 8 -8 5 -12 145 -16 512 -3 404 -8 521 -20 585 -25 128 -43 190 -89 315
-8 19 -32 73 -56 119 -111 221 -248 373 -502 563 -114 85 -386 193 -562 223
-98 16 -432 28 -493 17z m-1460 -4887 l0 -2780 -745 -3 c-692 -2 -746 -1 -757
15 -17 22 -19 5503 -3 5534 11 19 27 19 758 17 l747 -3 0 -2780z"/>
</g>
</svg>
