<?xml version="1.0" encoding="utf-8"?>
<!-- Generator: Adobe Illustrator 18.1.1, SVG Export Plug-In . SVG Version: 6.00 Build 0)  -->
<svg version="1.1" id="Слой_1" xmlns="http://www.w3.org/2000/svg" xmlns:xlink="http://www.w3.org/1999/xlink" x="0px" y="0px"
	 viewBox="0 0 793.7 737" enable-background="new 0 0 793.7 737" xml:space="preserve">
<path fill="#1D1D1B" d="M347.5,399.6c9.7,0,18.6-1.7,27-7.8c-8.3-2-14.2-6.1-17.1-14.5c2-0.2,3.6-0.4,6.2-0.6
	c-8.4-4.4-13.1-10.5-13.4-20c2.3,0.5,4,0.9,6.7,1.5c-6.6-8.4-8.9-16.7-3.9-25.6c6.4,4.7,12,9.9,18.6,13.4c6.6,3.5,14.2,5.2,22.2,8
	c0.2-2.9,0.3-4.5,0.3-6.1c0.6-15.3,17.3-25.2,30.3-17.2c5.5,3.4,9.7,3,14.6,0.4c0.8-0.5,1.8-0.7,3.7-0.4c-1.8,2.9-3.5,5.9-5.5,9.1
	c2.5-0.6,4.8-1.2,8.1-2.1c-1.3,1.9-1.8,3.5-2.8,4.2c-6.3,4.3-7,10.7-8,17.6c-4.3,29.1-26.9,48.9-56.3,49.5
	C367.4,409.3,356.8,406.6,347.5,399.6z"/>
<rect x="319.2" y="291.2" fill="none" stroke="#000000" stroke-width="3" stroke-miterlimit="10" width="154.7" height="154.7"/>
</svg>
