<?xml version="1.0" encoding="utf-8"?>
<!-- Generator: Adobe Illustrator 18.1.1, SVG Export Plug-In . SVG Version: 6.00 Build 0)  -->
<svg version="1.1" id="Слой_1" xmlns="http://www.w3.org/2000/svg" xmlns:xlink="http://www.w3.org/1999/xlink" x="0px" y="0px"
	 viewBox="0 0 793.7 737" enable-background="new 0 0 793.7 737" xml:space="preserve">
<path d="M381.2,368.1c6-7.6,3.9-22.8-4.5-27.6c2.2-1.4,3.9-3.3,5.8-3.4c6.3-0.5,12.6-0.5,18.8-0.3c4.1,0.1,5.8,2.9,5.7,6.7
	c0,5.8-0.4,11.6-0.2,17.5c0.1,2.1,1.4,4.1,2.2,6.2c1.7-1.2,4-2,5-3.6c4-6.5,7.8-13.1,11.2-19.9c1.5-3,3.2-4.7,6.8-4.6
	c5.5,0.2,11-0.1,16.5,0c5.2,0.1,6.6,2.2,4.5,7.1c-1.2,2.7-2.8,5.3-4.4,7.8c-2.5,3.7-5.3,7.3-8,10.8c-6.7,8.6-6.6,8.6,1.1,16.2
	c3.8,3.7,7.5,7.6,10.5,11.9c3.5,4.9,1.6,8.3-4.3,8.5c-5,0.2-10.1,0.8-14.9,0.1c-3.4-0.4-6.9-2.2-9.7-4.3c-3.3-2.5-5.8-6-8.7-8.9
	c-2.9-2.9-5-1.6-6.4,1.6c-0.4,0.9-0.5,1.9-0.7,2.9c-1.8,8.6-1.8,8.5-10.3,8.6c-14.1,0.2-25.5-5.9-33.2-17.1
	c-8.5-12.4-15.6-25.8-23-39c-2.4-4.2-0.9-6.1,3.9-6.4c0.5,0,1,0.1,1.5,0c11.5-1.9,19.6,0.9,23.4,13.4
	C371.5,358.4,375.4,364.3,381.2,368.1z"/>

</svg>
