<?xml version="1.0" encoding="utf-8"?><svg xmlns="http://www.w3.org/2000/svg" xmlns:xlink="http://www.w3.org/1999/xlink"><symbol viewBox="0 0 284.929 284.929" id="angle-arrow-down" xmlns="http://www.w3.org/2000/svg"><path d="M282.082 76.511l-14.274-14.273c-1.902-1.906-4.093-2.856-6.57-2.856-2.471 0-4.661.95-6.563 2.856L142.466 174.441 30.262 62.241c-1.903-1.906-4.093-2.856-6.567-2.856-2.475 0-4.665.95-6.567 2.856L2.856 76.515C.95 78.417 0 80.607 0 83.082c0 2.473.953 4.663 2.856 6.565l133.043 133.046c1.902 1.903 4.093 2.854 6.567 2.854s4.661-.951 6.562-2.854L282.082 89.647c1.902-1.903 2.847-4.093 2.847-6.565 0-2.475-.945-4.665-2.847-6.571z"/></symbol><symbol viewBox="0 0 271.7 254.601" id="cart" xmlns="http://www.w3.org/2000/svg"><g xmlns:sketchjs="https://sketch.io/dtd/" sketchjs:uid="1" sketchjs:tool="clipart"><path d="M271.75 102.9c0-6.6-3.2-9.8-9.9-9.8H9.15c-5.6 0-9 3.5-9 9v7.5c0 5.2 3.6 8.8 8.8 8.8h8.1c.9 6.9 1.8 13.5 2.7 20.2 2.4 19.1 4.7 38.1 7.1 57.2 1.7 14 3.5 28 5.2 42.1 1.3 10.5 7.9 16.5 18.5 16.4h172.6c8.4 0 15.4-6.3 16.5-14.6.9-6.6 1.7-13.1 2.5-19.7 1.7-14 3.5-28.1 5.2-42.1 2-16 4-32 6.1-48.1.5-3.8 1-7.5 1.4-11.4h8.4c4.9-.1 8.5-3.7 8.6-8.6-.1-2.3-.1-4.6-.1-6.9zM93.55 219.4c0 6-3.4 9.5-9.4 9.5h-15.5c-5.8 0-9.3-3.5-9.3-9.4v-91.6c0-5.9 3.5-9.4 9.3-9.5h15.7c5.7 0 9.3 3.7 9.3 9.5 0 20.7.1 41.4.1 62.1-.1 9.8-.1 19.6-.2 29.4zm59.5-.2c0 6.4-3.4 9.7-9.8 9.7h-15c-5.7 0-9.3-3.5-9.3-9.2v-91.1c0-7 3.3-10.2 10.2-10.3h14.6c5.8 0 9.4 3.5 9.4 9.4v54.5c-.1 12.4-.1 24.7-.1 37zm59.4.5c0 5.6-3.7 9.2-9.3 9.3h-15.7c-5.7 0-9.2-3.5-9.2-9.3V166c0-11.2.1-22.4 0-33.7v-5.2c.5-5.8 4.7-9.1 10.2-8.8 4.9.3 9.9 0 14.8.1 5.6 0 9.1 3.6 9.1 9.2v65.2c.1 8.9.1 17.9.1 26.9z" sketchjs:uid="2"/><path d="M102.75 25h67c5 0 8.4-3.4 8.5-8.4.1-2.9.1-5.7 0-8.6-.1-4.9-3.6-8.3-8.4-8.3h-67.9c-4.9 0-8.3 3.4-8.4 8.2-.1 2.6 0 5.3 0 7.9.1 5.9 3.4 9.2 9.2 9.2z" sketchjs:uid="3"/><path d="M189.55 16.5h20.3c5.7 0 9.8 2.7 12.3 7.7l29.4 58.8c.3.5.8 1.3 1.2 1.3 2.9.1 5.7.1 8.8.1-.4-1-.7-1.5-.9-2-10.4-20.7-20.7-41.4-31.1-62.1-4-8-10.6-12-19.4-12.1-7-.1-14.1 0-21.1 0-.6 0-1.2.1-1.9.1v8.2h2.4z" sketchjs:uid="4"/><path d="M17.85 84.5c1.3.1 2-.4 2.6-1.6 2.1-4.4 4.5-8.8 6.6-13.3.4-.8.2-2-.1-2.8-.5-1.4-.5-2 .3-2.6.2.8.3 1.8.5 2.7 2.5-3.8 4.5-7.6 6.4-11.4l15.6-31.2c2.7-5.4 6.9-7.9 12.9-7.9h20.1c.7 0 1.5-.1 2.2-.1V8.1h-22.8c-9.1.1-15.7 4.2-19.7 12.3-10.1 20.2-20.2 40.4-30.3 60.7-.5 1-.9 2-1.4 3.3 2.5 0 4.8 0 7.1.1z" sketchjs:uid="5"/></g></symbol><symbol viewBox="0 0 793.7 737" id="cart_" xmlns="http://www.w3.org/2000/svg"><path d="M532.7 345c0-6.6-3.2-9.8-9.9-9.8H270.1c-5.6 0-9 3.5-9 9v7.5c0 5.2 3.6 8.8 8.8 8.8h8.1c.9 6.9 1.8 13.5 2.7 20.2 2.4 19.1 4.7 38.1 7.1 57.2 1.7 14 3.5 28 5.2 42.1 1.3 10.5 7.9 16.5 18.5 16.4h172.6c8.4 0 15.4-6.3 16.5-14.6.9-6.6 1.7-13.1 2.5-19.7 1.7-14 3.5-28.1 5.2-42.1 2-16 4-32 6.1-48.1.5-3.8 1-7.5 1.4-11.4h8.4c4.9-.1 8.5-3.7 8.6-8.6-.1-2.3-.1-4.6-.1-6.9zM354.5 461.5c0 6-3.4 9.5-9.4 9.5h-15.5c-5.8 0-9.3-3.5-9.3-9.4V370c0-5.9 3.5-9.4 9.3-9.5h15.7c5.7 0 9.3 3.7 9.3 9.5 0 20.7.1 41.4.1 62.1-.1 9.8-.1 19.6-.2 29.4zm59.5-.2c0 6.4-3.4 9.7-9.8 9.7h-15c-5.7 0-9.3-3.5-9.3-9.2v-91.1c0-7 3.3-10.2 10.2-10.3h14.6c5.8 0 9.4 3.5 9.4 9.4v54.5c-.1 12.4-.1 24.7-.1 37zm59.4.5c0 5.6-3.7 9.2-9.3 9.3h-15.7c-5.7 0-9.2-3.5-9.2-9.3v-53.7c0-11.2.1-22.4 0-33.7v-5.2c.5-5.8 4.7-9.1 10.2-8.8 4.9.3 9.9 0 14.8.1 5.6 0 9.1 3.6 9.1 9.2v65.2c.1 8.9.1 17.9.1 26.9zM363.7 267.1h67c5 0 8.4-3.4 8.5-8.4.1-2.9.1-5.7 0-8.6-.1-4.9-3.6-8.3-8.4-8.3h-67.9c-4.9 0-8.3 3.4-8.4 8.2-.1 2.6 0 5.3 0 7.9.1 5.9 3.4 9.2 9.2 9.2zm86.8-8.5h20.3c5.7 0 9.8 2.7 12.3 7.7l29.4 58.8c.3.5.8 1.3 1.2 1.3 2.9.1 5.7.1 8.8.1-.4-1-.7-1.5-.9-2-10.4-20.7-20.7-41.4-31.1-62.1-4-8-10.6-12-19.4-12.1-7-.1-14.1 0-21.1 0-.6 0-1.2.1-1.9.1v8.2h2.4zm-171.7 68c1.3.1 2-.4 2.6-1.6 2.1-4.4 4.5-8.8 6.6-13.3.4-.8.2-2-.1-2.8-.5-1.4-.5-2 .3-2.6.2.8.3 1.8.5 2.7 2.5-3.8 4.5-7.6 6.4-11.4l15.6-31.2c2.7-5.4 6.9-7.9 12.9-7.9h20.1c.7 0 1.5-.1 2.2-.1v-8.2h-22.8c-9.1.1-15.7 4.2-19.7 12.3-10.1 20.2-20.2 40.4-30.3 60.7-.5 1-.9 2-1.4 3.3 2.5 0 4.8 0 7.1.1z"/></symbol><symbol viewBox="0 0 226.1 273.9" id="check-list" xmlns="http://www.w3.org/2000/svg"><g xmlns:sketchjs="https://sketch.io/dtd/" sketchjs:tool="clipart" style="mix-blend-mode:source-over" fill="none" stroke-width="5" stroke-miterlimit="10"><path d="M171.595 17.047h23.362c14.998 0 27.207 12.34 27.207 27.284v197.448c0 15.04-12.305 27.284-27.207 27.284H32c-14.998 0-27.208-12.34-27.208-27.284V44.427c0-15.04 12.306-27.284 27.208-27.284h23.265" sketchjs:uid="1"/><path sketchjs:uid="2" d="M171.69 34.98h20.863v206.992H34.403V34.979h20.862"/><path d="M158.039 50.887H68.917c-7.499 0-13.652-6.17-13.652-13.69V18.686c0-7.52 6.153-13.69 13.652-13.69h89.122c7.499 0 13.652 6.17 13.652 13.69v18.51c0 7.617-6.153 13.69-13.652 13.69z" sketchjs:uid="3"/><g sketchjs:uid="4"><path sketchjs:uid="5" d="M89.491 72.29h81.912"/><path sketchjs:uid="6" d="M89.491 95.14h81.912"/><path sketchjs:uid="7" d="M89.491 118.085h81.912"/><path sketchjs:uid="8" d="M89.491 140.934h81.912"/><path sketchjs:uid="9" d="M89.491 163.88h81.912"/><path sketchjs:uid="10" d="M89.491 186.729h81.912"/><path sketchjs:uid="11" d="M55.554 69.687h20.19v20.246h-20.19z"/><path sketchjs:uid="12" d="M55.554 102.466h20.19v20.246h-20.19z"/><path sketchjs:uid="13" d="M55.554 135.246h20.19v20.246h-20.19z"/><path sketchjs:uid="14" d="M55.554 168.121h20.19v20.247h-20.19z"/></g></g></symbol><symbol viewBox="0 0 793.7 737" id="check-list_" xmlns="http://www.w3.org/2000/svg"><path fill="none" d="M457.7 243.9H482c15.6 0 28.3 12.8 28.3 28.3V477c0 15.6-12.8 28.3-28.3 28.3H312.5c-15.6 0-28.3-12.8-28.3-28.3V272.3c0-15.6 12.8-28.3 28.3-28.3h24.2"/><path fill="none" d="M457.8 262.5h21.7v214.7H315V262.5h21.7"/><path fill="none" d="M443.6 279h-92.7c-7.8 0-14.2-6.4-14.2-14.2v-19.2c0-7.8 6.4-14.2 14.2-14.2h92.7c7.8 0 14.2 6.4 14.2 14.2v19.2c0 7.9-6.4 14.2-14.2 14.2z"/><path d="M372.3 301.2h85.2m-85.2 23.7h85.2m-85.2 23.8h85.2m-85.2 23.7h85.2m-85.2 23.8h85.2m-85.2 23.7h85.2M337 298.5h21v21h-21zm0 34h21v21h-21zm0 34h21v21h-21zm0 34.1h21v21h-21z" fill="none" stroke-width="5" stroke-miterlimit="10"/></symbol><symbol viewBox="0 0 284.929 284.929" id="chevron-up" xmlns="http://www.w3.org/2000/svg"><path d="M17.128 167.872c1.903 1.902 4.093 2.854 6.567 2.854s4.664-.952 6.567-2.854L142.466 55.666l112.208 112.206c1.902 1.902 4.093 2.854 6.563 2.854 2.478 0 4.668-.952 6.57-2.854l14.274-14.277c1.902-1.902 2.847-4.093 2.847-6.563 0-2.475-.951-4.665-2.847-6.567L149.028 7.419c-1.901-1.906-4.088-2.853-6.562-2.853s-4.665.95-6.567 2.853L2.856 140.464C.95 142.367 0 144.554 0 147.034c0 2.468.953 4.658 2.856 6.561l14.272 14.277z"/><path d="M149.028 117.055c-1.901-1.906-4.088-2.856-6.562-2.856s-4.665.953-6.567 2.856L2.856 250.1C.95 252.003 0 254.192 0 256.67c0 2.472.953 4.661 2.856 6.564l14.272 14.276c1.903 1.903 4.093 2.848 6.567 2.848s4.664-.951 6.567-2.848l112.204-112.209L254.674 277.51c1.902 1.903 4.093 2.852 6.563 2.852 2.478 0 4.668-.948 6.57-2.852l14.274-14.276c1.902-1.903 2.847-4.093 2.847-6.564 0-2.478-.951-4.667-2.847-6.57L149.028 117.055z"/></symbol><symbol viewBox="0 0 226.2 257.3" id="clock" xmlns="http://www.w3.org/2000/svg"><g xmlns:sketchjs="https://sketch.io/dtd/" sketchjs:tool="clipart" style="mix-blend-mode:source-over" transform="matrix(.95649 0 0 .9619 -265.378 -226.07)"><circle cx="396.6" cy="382.7" r="113.1" sketchjs:uid="1" fill="none"/><circle cx="396.6" cy="382.7" r="97.8" sketchjs:uid="2" fill="none"/><g sketchjs:uid="3"><circle cx="396.6" cy="379.4" r="6.8" sketchjs:uid="4"/><path sketchjs:uid="5" d="M396.6 298.9l-1.9 80.5h3.8z"/><path sketchjs:uid="6" d="M394.7 379.4l-3.7 21.9h11.2l-3.7-21.9z"/></g><path d="M330.2 291.1l-5.2-6.5c-3.6-4.5-10.3-5-14.6-1.1l-7 6.3c-4.3 3.9-4.4 10.5-.3 14.6l6.2 6.2 9.8-10.4 11.1-9.1z" sketchjs:uid="7" fill="none"/><path d="M463 291.1l5.2-6.5c3.6-4.5 10.3-5 14.6-1.1l7 6.3c4.3 3.9 4.4 10.5.3 14.6l-6.2 6.2-9.8-10.4-11.1-9.1z" sketchjs:uid="8" fill="none"/><path d="M412.7 261.1h-30.9c-6.2 0-11.3-5.1-11.3-11.3 0-6.2 5.1-11.3 11.3-11.3h30.9c6.2 0 11.3 5.1 11.3 11.3 0 6.2-5.1 11.3-11.3 11.3z" sketchjs:uid="9"/><circle cx="315.5" cy="379.4" r="5" sketchjs:uid="10"/><circle cx="477.2" cy="379.4" r="5" sketchjs:uid="11"/><circle cx="397.7" cy="466.6" r="5" sketchjs:uid="12"/></g></symbol><symbol viewBox="0 0 47.971 47.971" id="close" xmlns="http://www.w3.org/2000/svg"><path d="M28.228 23.986L47.092 5.122a2.998 2.998 0 0 0 0-4.242 2.998 2.998 0 0 0-4.242 0L23.986 19.744 5.121.88a2.998 2.998 0 0 0-4.242 0 2.998 2.998 0 0 0 0 4.242l18.865 18.864L.879 42.85a2.998 2.998 0 1 0 4.242 4.241l18.865-18.864L42.85 47.091c.586.586 1.354.879 2.121.879s1.535-.293 2.121-.879a2.998 2.998 0 0 0 0-4.242L28.228 23.986z"/></symbol><symbol viewBox="0 0 226.1 261.4" id="economy" xmlns="http://www.w3.org/2000/svg"><g xmlns:sketchjs="https://sketch.io/dtd/" sketchjs:tool="clipart" style="mix-blend-mode:source-over"><path d="M194.582 3.247c15.195 0 27.565 12.513 27.565 27.665v200.205c0 15.25-12.467 27.664-27.565 27.664H29.486c-15.195 0-27.565-12.512-27.565-27.664V30.912c0-15.25 12.468-27.665 27.565-27.665h165.096z" sketchjs:uid="1" fill="none"/><g sketchjs:uid="2"><g sketchjs:uid="3" fill="none" stroke-width="5" stroke-miterlimit="10"><path d="M40.2 111.56l11.104-1.465c1.266 6.354 3.409 10.85 6.526 13.685 3.117 2.835 6.818 4.204 11.201 4.204 5.26 0 9.643-1.857 13.247-5.474 3.604-3.617 5.454-8.114 5.454-13.49 0-5.084-1.656-9.385-4.967-12.709-3.312-3.324-7.598-4.986-12.76-4.986-2.143 0-4.675.391-7.89 1.271l1.267-9.775c.779.097 1.363.097 1.753.097 4.773 0 8.961-1.27 12.76-3.714 3.798-2.444 5.649-6.354 5.649-11.438 0-4.106-1.364-7.527-4.188-10.166-2.728-2.64-6.331-4.008-10.715-4.008-4.285 0-7.89 1.368-10.811 4.105-2.922 2.738-4.773 6.843-5.552 12.318L41.174 68.06c1.364-7.528 4.48-13.295 9.253-17.401 4.87-4.106 10.812-6.159 18.02-6.159 4.967 0 9.545 1.076 13.636 3.226 4.188 2.15 7.305 5.084 9.545 8.7 2.24 3.715 3.312 7.626 3.312 11.731 0 3.91-1.071 7.527-3.117 10.753-2.143 3.226-5.26 5.768-9.35 7.723 5.357 1.271 9.545 3.813 12.467 7.723s4.48 8.798 4.48 14.663c0 7.919-2.922 14.664-8.668 20.236-5.747 5.474-13.052 8.309-21.916 8.309-7.987 0-14.513-2.346-19.772-7.136s-8.085-11.34-8.864-18.867z" sketchjs:uid="4"/><path d="M110.622 90.641c0-10.753 1.071-19.453 3.311-26.003 2.24-6.55 5.455-11.633 9.838-15.152 4.383-3.52 9.838-5.377 16.364-5.377 4.87 0 9.155.978 12.76 2.933 3.7 1.955 6.72 4.79 9.058 8.505 2.435 3.714 4.285 8.211 5.649 13.49 1.364 5.279 2.045 12.513 2.045 21.506 0 10.656-1.071 19.258-3.311 25.808-2.143 6.55-5.455 11.633-9.838 15.152-4.383 3.617-9.838 5.377-16.46 5.377-8.767 0-15.585-3.128-20.553-9.385-5.941-7.43-8.863-19.747-8.863-36.854zm11.396 0c0 14.957 1.753 24.83 5.26 29.816 3.506 4.985 7.792 7.43 12.857 7.43 5.064 0 9.448-2.445 12.857-7.43s5.26-14.86 5.26-29.816-1.754-24.928-5.26-29.815c-3.507-4.888-7.793-7.43-13.052-7.43-5.065 0-9.156 2.15-12.273 6.55-3.701 5.572-5.65 15.836-5.65 30.695z" sketchjs:uid="5"/></g><g sketchjs:uid="6"><path d="M100.003 157.312c0-1.662.39-3.128 1.267-4.301.876-1.173 2.045-1.76 3.603-1.76 1.461 0 2.63.489 3.604 1.564.974 1.075 1.461 2.542 1.461 4.595 0 1.955-.487 3.519-1.46 4.594s-2.144 1.564-3.605 1.564c-1.363 0-2.63-.489-3.506-1.564-.974-.977-1.364-2.541-1.364-4.692zm4.968-4.008c-.682 0-1.266.293-1.753.88s-.682 1.76-.682 3.421c0 1.466.195 2.542.682 3.128.487.587 1.071.88 1.753.88.682 0 1.363-.293 1.753-.88.487-.586.682-1.76.682-3.421 0-1.466-.195-2.542-.682-3.226s-1.071-.782-1.753-.782zm0 22.68l12.76-24.635h2.337l-12.662 24.634h-2.435zm10.032-6.355c0-1.662.39-3.128 1.266-4.301.877-1.173 2.046-1.76 3.702-1.76 1.46 0 2.63.489 3.604 1.564s1.46 2.542 1.46 4.595c0 1.955-.486 3.52-1.46 4.594-.974 1.076-2.143 1.565-3.604 1.565-1.364 0-2.533-.49-3.507-1.565s-1.46-2.639-1.46-4.692zm4.968-4.106c-.682 0-1.364.294-1.754.88-.487.587-.681 1.76-.681 3.422 0 1.466.194 2.541.681 3.128.487.586 1.072.88 1.754.88.779 0 1.363-.294 1.85-.88.487-.587.682-1.76.682-3.422 0-1.466-.195-2.541-.682-3.226s-1.071-.782-1.85-.782z" sketchjs:uid="7"/></g><g sketchjs:uid="8"><path d="M41.562 205.701c-.097-2.053-.779-3.715-1.85-4.888-1.17-1.173-2.728-1.76-4.676-1.76-2.922 0-4.772 1.467-5.551 4.302l-2.63-.684c.487-1.858 1.46-3.324 2.922-4.4s3.214-1.563 5.357-1.563c2.045 0 3.701.488 5.162 1.466 1.461.978 2.533 2.248 3.214 3.812a12.494 12.494 0 0 1 1.072 5.084c.097 3.03-.682 5.67-2.24 7.723-1.559 2.052-3.994 3.128-7.208 3.128-4.48 0-7.403-2.249-8.572-6.843l2.63-.685c.877 3.52 2.825 5.182 6.137 5.182 1.85 0 3.311-.685 4.48-1.956 1.169-1.368 1.85-3.128 1.948-5.474H34.16v-2.444h7.402z" sketchjs:uid="9"/><path d="M48.283 197h2.727v8.994c1.267 0 2.143-.195 2.63-.684.487-.489 1.169-1.662 1.948-3.421.585-1.369 1.072-2.249 1.364-2.835.39-.587.876-.978 1.558-1.369s1.461-.586 2.24-.586h1.656v2.346h-1.169c-.876 0-1.46.195-1.948.586-.39.391-.876 1.271-1.46 2.737-.682 1.76-1.267 2.835-1.754 3.324-.487.489-1.071.782-1.656 1.076 1.364.39 2.63 1.564 3.896 3.714l4.189 6.843h-3.41l-3.408-5.572c-.974-1.564-1.754-2.64-2.338-3.128-.682-.587-1.461-.88-2.435-.88v9.58h-2.727v-20.724z" sketchjs:uid="10"/><path d="M63.77 207.559c0-3.422.877-6.061 2.727-8.016 1.85-1.956 4.188-2.933 7.11-2.933 1.851 0 3.604.489 5.065 1.368 1.559.88 2.63 2.151 3.507 3.813.779 1.662 1.169 3.421 1.169 5.474 0 2.053-.39 3.91-1.267 5.572-.876 1.662-2.045 2.933-3.603 3.715-1.559.88-3.215 1.27-4.968 1.27-1.948 0-3.604-.488-5.162-1.368-1.559-.977-2.63-2.248-3.41-3.812s-1.168-3.324-1.168-5.083zm2.825 0c0 2.443.681 4.399 1.948 5.865 1.363 1.466 3.019 2.15 4.967 2.15 2.046 0 3.701-.684 5.065-2.15s1.948-3.52 1.948-6.159c0-1.662-.292-3.128-.877-4.399s-1.363-2.248-2.435-2.932-2.337-1.076-3.604-1.076c-1.948 0-3.603.685-4.967 1.955-1.364 1.467-2.045 3.715-2.045 6.746z" sketchjs:uid="11"/><path d="M86.951 217.53V197h2.728v8.408h10.617V197h2.727v20.529h-2.727v-9.678H89.679v9.678H86.95z" sketchjs:uid="12"/><path d="M106.724 207.559c0-3.422.877-6.061 2.727-8.016 1.85-1.956 4.189-2.933 7.11-2.933 1.851 0 3.604.489 5.065 1.368 1.559.88 2.63 2.151 3.507 3.813.78 1.662 1.169 3.421 1.169 5.474 0 2.053-.39 3.91-1.266 5.572-.877 1.662-2.046 2.933-3.604 3.715-1.559.88-3.215 1.27-4.968 1.27-1.948 0-3.604-.488-5.162-1.368-1.559-.977-2.63-2.248-3.41-3.812s-1.168-3.324-1.168-5.083zm2.727 0c0 2.443.682 4.399 1.948 5.865 1.364 1.466 3.02 2.15 4.968 2.15 2.045 0 3.701-.684 5.065-2.15s1.948-3.52 1.948-6.159c0-1.662-.292-3.128-.877-4.399s-1.364-2.248-2.435-2.932-2.338-1.076-3.604-1.076c-1.948 0-3.604.685-4.967 1.955-1.364 1.467-2.046 3.715-2.046 6.746z" sketchjs:uid="13"/><path d="M129.71 217.53V197h4.092l4.87 14.567a47.69 47.69 0 0 1 .974 3.03c.195-.782.584-1.857 1.071-3.324l4.87-14.272h3.604v20.529h-2.63v-17.205l-5.941 17.205h-2.435l-5.942-17.499v17.499h-2.532z" sketchjs:uid="14"/><path d="M153.574 197h2.435v16.228l10.91-16.227h2.727v20.529h-2.436v-16.228l-10.909 16.228h-2.727V197z" sketchjs:uid="15"/><path d="M187.567 217.53v-9.092h-3.116c-.682 0-1.17 0-1.461.098-.39.098-.877.293-1.267.587s-.876.684-1.363 1.368c-.487.685-1.17 1.564-1.948 2.835l-2.728 4.301h-3.409l3.604-5.572c.682-1.075 1.461-1.955 2.24-2.737.39-.293.877-.684 1.656-.977-1.948-.294-3.409-.88-4.383-1.858s-1.363-2.248-1.363-3.715c0-1.173.292-2.15.876-3.128.585-.977 1.364-1.564 2.24-1.955.974-.39 2.338-.586 4.189-.586h9.058v20.528h-2.825zm0-18.28h-6.526c-1.558 0-2.63.293-3.311.977-.682.586-1.072 1.466-1.072 2.444 0 .684.195 1.27.585 1.857.39.587.876.978 1.558 1.27s1.656.392 2.922.392h5.844v-6.94z" sketchjs:uid="16"/></g></g></g></symbol><symbol viewBox="0 0 483.3 483.3" id="email" xmlns="http://www.w3.org/2000/svg"><path d="M424.3 57.75H59.1c-32.6 0-59.1 26.5-59.1 59.1v249.6c0 32.6 26.5 59.1 59.1 59.1h365.1c32.6 0 59.1-26.5 59.1-59.1v-249.5c.1-32.6-26.4-59.2-59-59.2zm32.1 308.7c0 17.7-14.4 32.1-32.1 32.1H59.1c-17.7 0-32.1-14.4-32.1-32.1v-249.5c0-17.7 14.4-32.1 32.1-32.1h365.1c17.7 0 32.1 14.4 32.1 32.1v249.5h.1z"/><path d="M304.8 238.55l118.2-106c5.5-5 6-13.5 1-19.1-5-5.5-13.5-6-19.1-1l-163 146.3-31.8-28.4c-.1-.1-.2-.2-.2-.3-.7-.7-1.4-1.3-2.2-1.9L78.3 112.35c-5.6-5-14.1-4.5-19.1 1.1-5 5.6-4.5 14.1 1.1 19.1l119.6 106.9-119.1 111.5c-5.4 5.1-5.7 13.6-.6 19.1 2.7 2.8 6.3 4.3 9.9 4.3 3.3 0 6.6-1.2 9.2-3.6l120.9-113.1 32.8 29.3c2.6 2.3 5.8 3.4 9 3.4s6.5-1.2 9-3.5l33.7-30.2 120.2 114.2c2.6 2.5 6 3.7 9.3 3.7 3.6 0 7.1-1.4 9.8-4.2 5.1-5.4 4.9-14-.5-19.1l-118.7-112.7z"/></symbol><symbol viewBox="0 0 294 294" id="expert" xmlns="http://www.w3.org/2000/svg"><g xmlns:sketchjs="https://sketch.io/dtd/" sketchjs:tool="clipart" style="mix-blend-mode:source-over" transform="matrix(.98002 0 0 .96684 -240.81 -210.541)" stroke-width="5" stroke-miterlimit="10"><circle cx="396.8" cy="368.9" r="147" sketchjs:uid="1" fill="#fbbe18"/><path d="M448.1 299.6H445c0-19.1-10-35.6-24.7-44.3v24.9c0 3.2-2.6 5.8-5.8 5.8h-2.7c-3.2 0-5.8-2.6-5.8-5.8v-30.4c-2.9-.6-5.9-.9-9-.9-3.3 0-6.5.3-9.5 1v30.3c0 3.2-2.6 5.8-5.8 5.8H379c-3.2 0-5.8-2.6-5.8-5.8v-24.5c-14.4 8.8-24.2 25.2-24.2 44h-3.2c-3.2 0-5.8 2.6-5.8 5.8v5.1c0 2 1 3.8 2.5 4.8h109.2c1.5-1.1 2.5-2.8 2.5-4.8v-5.1c-.2-3.3-2.8-5.9-6.1-5.9z" sketchjs:uid="2" fill="none"/><path d="M491.3 429.7c-7.1-24.3-28.1-42.7-53.9-45.9-.9-.1-19.2 30.9-30.9 50.9l-3.1-24.1 6.6-9.8h-26.2l6.6 9.8-3.1 23.7c-11.4-20.1-29-50.8-29.8-50.7-26.3 2.7-47.9 21.3-55.1 46 20 31 54.8 51.6 94.5 51.6 39.6.1 74.4-20.5 94.4-51.5z" sketchjs:uid="3" fill="none"/><path d="M439.4 326.4v24.4c0 12.1-6.7 23.5-18 30.4-14.7 9.1-34.4 9.1-49.1 0-11.3-7-18-18.3-18-30.4v-24.4" sketchjs:uid="4" fill="none"/></g></symbol><symbol viewBox="0 0 96.124 96.123" id="facebook-logo" xmlns="http://www.w3.org/2000/svg"><path d="M72.089.02L59.624 0C45.62 0 36.57 9.285 36.57 23.656v10.907H24.037a1.96 1.96 0 0 0-1.96 1.961v15.803a1.96 1.96 0 0 0 1.96 1.96H36.57v39.876a1.96 1.96 0 0 0 1.96 1.96h16.352a1.96 1.96 0 0 0 1.96-1.96V54.287h14.654a1.96 1.96 0 0 0 1.96-1.96l.006-15.803a1.963 1.963 0 0 0-1.961-1.961H56.842v-9.246c0-4.444 1.059-6.7 6.848-6.7l8.397-.003a1.96 1.96 0 0 0 1.959-1.96V1.98A1.96 1.96 0 0 0 72.089.02z"/></symbol><symbol viewBox="0 0 793.7 737" id="facebook-logo_" xmlns="http://www.w3.org/2000/svg"><path d="M385.1 374.6c-4.5 0-8.5-.1-12.4 0-3.1.2-4.6-.8-4.5-4.2.2-5.1 0-10.3 0-16H385V342c0-18.7 9.6-28.1 28.1-27.6 4 .1 7.9.5 12.3.7v18.5c-4.2 0-8-.1-11.8 0-5.1.2-7.2 2.3-7.4 7.4-.1 3.5 0 7 0 10.5 0 .6.2 1.3.4 2.6H425c-.7 6.3-1.2 12-2.3 17.6-.2 1.1-2.4 2.6-3.7 2.7-4 .4-8 .1-12.5.1-.1 2-.3 3.8-.3 5.6 0 13-.1 26 .1 39 0 3.6-1 5.1-4.8 5-5.3-.2-10.6-.1-16.5-.1v-49.4z"/><path fill="none" d="M319.5 291.9h154.7v154.7H319.5z"/></symbol><symbol viewBox="0 0 252.5 208.8" id="gully" xmlns="http://www.w3.org/2000/svg"><g xmlns:sketchjs="https://sketch.io/dtd/" sketchjs:uid="1" fill="none" stroke-width="5" stroke-miterlimit="10" sketchjs:tool="clipart"><path sketchjs:uid="2" d="M91.439 205.93v-94.423L21.133 70.082V2.888H3.726v76.53l70.792 41.716v84.795z"/><path sketchjs:uid="3" d="M161.55 205.93v-94.423l70.306-41.425V2.888h17.406v76.53l-70.792 41.716v84.795z"/><path sketchjs:uid="4" d="M3.726 2.888h228.13"/><path sketchjs:uid="5" d="M21.133 69.013h210.723"/><path sketchjs:uid="6" d="M91.341 112.771h70.209"/><path sketchjs:uid="7" d="M91.341 205.93h70.209"/></g></symbol><symbol viewBox="0 0 169.063 169.063" id="instagram-logo" xmlns="http://www.w3.org/2000/svg"><path d="M122.406 0H46.654C20.929 0 0 20.93 0 46.655v75.752c0 25.726 20.929 46.655 46.654 46.655h75.752c25.727 0 46.656-20.93 46.656-46.655V46.655C169.063 20.93 148.133 0 122.406 0zm31.657 122.407c0 17.455-14.201 31.655-31.656 31.655H46.654C29.2 154.063 15 139.862 15 122.407V46.655C15 29.201 29.2 15 46.654 15h75.752c17.455 0 31.656 14.201 31.656 31.655v75.752z"/><path d="M84.531 40.97c-24.021 0-43.563 19.542-43.563 43.563 0 24.02 19.542 43.561 43.563 43.561s43.563-19.541 43.563-43.561c0-24.021-19.542-43.563-43.563-43.563zm0 72.123c-15.749 0-28.563-12.812-28.563-28.561 0-15.75 12.813-28.563 28.563-28.563s28.563 12.813 28.563 28.563c0 15.749-12.814 28.561-28.563 28.561zm45.39-84.842c-2.89 0-5.729 1.17-7.77 3.22a11.053 11.053 0 0 0-3.23 7.78c0 2.891 1.18 5.73 3.23 7.78 2.04 2.04 4.88 3.22 7.77 3.22 2.9 0 5.73-1.18 7.78-3.22 2.05-2.05 3.22-4.89 3.22-7.78 0-2.9-1.17-5.74-3.22-7.78-2.04-2.05-4.88-3.22-7.78-3.22z"/></symbol><symbol viewBox="0 0 793.7 737" id="instagram-logo_" xmlns="http://www.w3.org/2000/svg"><path d="M396.4 324.6c7 .3 14 .6 20.9 1.1 13.6 1 22.9 10.2 23.3 23.9.4 13.3.4 26.6 0 39.9-.3 13-8.1 22.6-21.1 23.6-15.3 1.2-30.9 1.1-46.3 0-12.5-.9-20.4-10.4-20.8-22.9-.4-13.8-.5-27.6 0-41.4.5-13.1 9.9-22.2 23-23.2 7-.4 14-.7 21-1zm.1 80.1c6.7 0 13.3.2 20-.1 8.8-.4 14.6-5.5 14.9-14.3.5-13.9.4-27.9 0-41.9-.2-7.6-4.8-12.9-12.3-13.4-14.4-.8-28.9-1.1-43.3-.3-9.3.5-13.7 5.6-14.1 15-.5 13.6-.4 27.3.2 40.9.4 8.5 6.1 13.5 14.7 13.9 6.5.5 13.2.2 19.9.2z"/><path d="M396.8 346.6c12.8.1 23.1 10.5 22.9 23.3-.1 12.6-11 23.3-23.5 23-12.7-.3-23-10.9-22.9-23.5.2-12.8 10.5-22.8 23.5-22.8zm13.7 22.9c-.1-7.9-6-13.8-13.9-13.9-8.1 0-14.1 6-14 14.2.1 8 6.3 14.1 14.3 13.9 7.8-.2 13.7-6.3 13.6-14.2zm16.1-22.3c-2.1 1.6-4.1 3.9-6.5 4.6-2.9.9-6-2.6-5.8-5.8.2-3.5 2.4-5.9 5.7-5.3 2.3.4 4.3 2.7 6.5 4.2-.7.6-.7 1.8.1 2.3z"/><path fill="none" d="M319.2 291.9h154.7v154.7H319.2z"/></symbol><symbol viewBox="0 0 294 294" id="legal-guarantee" xmlns="http://www.w3.org/2000/svg"><g xmlns:sketchjs="https://sketch.io/dtd/" sketchjs:tool="clipart" style="mix-blend-mode:source-over" transform="translate(-240.873 -213.734) scale(.97625)" stroke-width="5" stroke-miterlimit="10"><circle cx="396.8" cy="369" r="147" sketchjs:uid="1" fill="#fbbe18"/><g sketchjs:uid="2" fill="none"><path d="M285.9 334.2c7.4-2.5 13.6-4.6 19.8-6.8 29-9.8 57.9-19.7 86.9-29.3 2.6-.9 6-1 8.5-.1 34 11.3 68 22.9 102 34.5 1.2.4 2.4 1 4.7 1.9-2.1.9-3.3 1.6-4.6 2-34.3 11.6-68.6 23.3-102.9 34.8-1.9.6-4.3.7-6.2.1-34.5-11.6-69-23.3-103.4-35-1.3-.4-2.4-1-4.8-2.1z" sketchjs:uid="3"/><path d="M345.7 366.7c10 3.3 18.9 6.3 27.9 9.3.5.2.9.3 1.4.5 22.2 7.8 22.2 7.8 44.5-.1 8-2.8 16-5.4 24.1-8.1 1.4-.5 2.8-.7 4.8-1.3 0 14.5.1 28.5-.1 42.4 0 1.1-1.7 2.8-3 3.3-19.3 7.9-39.5 11-60.1 8.5-11.6-1.4-23-5-34.4-7.7-3.6-.9-5.2-2.9-5.1-7.1.2-12.7 0-25.7 0-39.7z" sketchjs:uid="4"/><path d="M480.1 364.1c0 6.6-.2 12.9.1 19.1.1 2 1.2 4.4 2.7 5.7 5.3 4.8 5.9 11.1 1.5 16.8-1.2 1.5-1.8 4.1-1.4 6.1 1.6 9.5 3.6 18.8 5.5 28.8h-23.9c1.2-6.3 2.3-12.4 3.5-18.5.5-2.4 1-4.9 1.6-7.3 1-4 1.1-7.2-2.2-10.7-4-4.2-2.6-11.4 2.4-14.9 2.6-1.8 3.2-3.7 3.1-6.6-.2-4.5-.1-9 0-13.5-.1-6 0-6 7.1-5z" sketchjs:uid="5"/></g></g></symbol><symbol viewBox="0 0 226.1 273.9" id="list" xmlns="http://www.w3.org/2000/svg"><g xmlns:sketchjs="https://sketch.io/dtd/" sketchjs:tool="clipart" style="mix-blend-mode:source-over" fill="none" stroke-width="5" stroke-miterlimit="10"><path d="M171.68 16.136h23.595c15.147 0 27.48 12.429 27.48 27.48v198.862c0 15.148-12.43 27.48-27.48 27.48H30.689c-15.148 0-27.48-12.43-27.48-27.48V43.615c0-15.147 12.429-27.48 27.48-27.48h23.498" sketchjs:uid="1"/><path sketchjs:uid="2" d="M171.776 34.196h21.071v208.379H33.117V34.196h21.07"/><path sketchjs:uid="3" d="M54.673 71.677h116.52"/><path sketchjs:uid="4" d="M54.673 94.787h116.52"/><path sketchjs:uid="5" d="M54.673 117.897h116.52"/><path sketchjs:uid="6" d="M54.673 140.91h116.52"/><path sketchjs:uid="7" d="M54.673 164.02h116.52"/><path sketchjs:uid="8" d="M54.673 187.033h116.52"/><path d="M157.988 50.218H67.975c-7.573 0-13.788-6.214-13.788-13.788V17.786c0-7.573 6.215-13.788 13.788-13.788h90.013c7.574 0 13.788 6.215 13.788 13.788V36.43c0 7.574-6.214 13.788-13.788 13.788z" sketchjs:uid="9"/></g></symbol><symbol viewBox="0 0 253.1 208.8" id="roof-binder" xmlns="http://www.w3.org/2000/svg"><g xmlns:sketchjs="https://sketch.io/dtd/" sketchjs:tool="clipart" style="mix-blend-mode:source-over" fill="none" stroke-width="5" stroke-miterlimit="10"><path sketchjs:uid="1" d="M4.023 124.79h245.543"/><path sketchjs:uid="2" d="M4.023 144.919h245.543"/><path sketchjs:uid="3" d="M4.023 163.687h245.543"/><path sketchjs:uid="4" d="M4.023 186.345h245.543"/><path sketchjs:uid="5" d="M3.537 2.066H249.08v203.047H3.537z"/><path d="M83.57 2.066c0 22.075-17.894 40.065-40.066 40.065C21.43 42.131 3.44 24.238 3.44 2.066" sketchjs:uid="6"/><path d="M165.935 2.066c0 22.075-17.893 40.065-40.064 40.065-22.075 0-40.065-17.893-40.065-40.065" sketchjs:uid="7"/><path d="M246.551 2.066c0 22.075-17.893 40.065-40.065 40.065s-40.064-17.893-40.064-40.065" sketchjs:uid="8"/><path d="M83.57 83.655c0 22.074-17.894 40.064-40.066 40.064-22.074 0-40.065-17.893-40.065-40.064" sketchjs:uid="9"/><path d="M165.935 83.655c0 22.074-17.893 40.064-40.064 40.064-22.075 0-40.065-17.893-40.065-40.064" sketchjs:uid="10"/><path d="M246.551 83.655c0 22.074-17.893 40.064-40.065 40.064s-40.064-17.893-40.064-40.064" sketchjs:uid="11"/><path d="M124.704 43.103c0 22.075-17.893 40.065-40.065 40.065S44.574 65.275 44.574 43.103" sketchjs:uid="12"/><path d="M206.973 43.103c0 22.075-17.893 40.065-40.065 40.065s-40.065-17.893-40.065-40.065" sketchjs:uid="13"/><path d="M247.524 83.071c-22.075 0-40.065-17.893-40.065-40.065" sketchjs:uid="14"/><path d="M3.537 83.071c22.074 0 40.064-17.893 40.064-40.065" sketchjs:uid="15"/></g></symbol><symbol viewBox="0 0 252.5 208.8" id="roof-works" xmlns="http://www.w3.org/2000/svg"><g xmlns:sketchjs="https://sketch.io/dtd/" sketchjs:tool="clipart" sketchjs:uid="1" fill="none" stroke-width="5" stroke-miterlimit="10"><path sketchjs:uid="2" d="M2.756 2.086h245.462v202.98H2.756z"/><path d="M82.86 2.086c0 22.067-17.888 40.051-40.052 40.051-22.068 0-40.052-17.887-40.052-40.051" sketchjs:uid="3"/><path d="M165.1 2.086c0 22.067-17.886 40.051-40.05 40.051-22.068 0-40.052-17.887-40.052-40.051" sketchjs:uid="4"/><path d="M245.787 2.086c0 22.067-17.887 40.051-40.051 40.051S165.684 24.25 165.684 2.086" sketchjs:uid="5"/><path d="M82.86 83.647c0 22.067-17.888 40.052-40.052 40.052-22.068 0-40.052-17.887-40.052-40.052" sketchjs:uid="6"/><path d="M165.1 83.647c0 22.067-17.886 40.052-40.05 40.052-22.068 0-40.052-17.887-40.052-40.052" sketchjs:uid="7"/><path d="M245.787 83.647c0 22.067-17.887 40.052-40.051 40.052s-40.052-17.887-40.052-40.052" sketchjs:uid="8"/><path d="M82.86 165.014c0 22.067-17.888 40.052-40.052 40.052-22.068 0-40.052-17.888-40.052-40.052" sketchjs:uid="9"/><path d="M165.1 165.014c0 22.067-17.886 40.052-40.05 40.052-22.068 0-40.052-17.888-40.052-40.052" sketchjs:uid="10"/><path d="M245.787 165.014c0 22.067-17.887 40.052-40.051 40.052s-40.052-17.888-40.052-40.052" sketchjs:uid="11"/><path d="M123.883 43.11c0 22.067-17.887 40.051-40.052 40.051S43.78 65.177 43.78 43.109" sketchjs:uid="12"/><path d="M206.125 43.11c0 22.067-17.887 40.051-40.052 40.051s-40.052-17.887-40.052-40.052" sketchjs:uid="13"/><path d="M246.76 83.064c-22.068 0-40.052-17.887-40.052-40.052" sketchjs:uid="14"/><path d="M2.756 83.064c22.067 0 40.052-17.887 40.052-40.052" sketchjs:uid="15"/><path d="M123.883 124.768c0 22.067-17.887 40.052-40.052 40.052S43.78 146.932 43.78 124.768" sketchjs:uid="16"/><path d="M206.125 124.768c0 22.067-17.887 40.052-40.052 40.052s-40.052-17.888-40.052-40.052" sketchjs:uid="17"/><path d="M246.76 164.82c-22.068 0-40.052-17.888-40.052-40.052" sketchjs:uid="18"/><path d="M2.756 164.82c22.067 0 40.052-17.888 40.052-40.052" sketchjs:uid="19"/></g></symbol><symbol viewBox="0 0 252.5 208.9" id="snow-guard" xmlns="http://www.w3.org/2000/svg"><g xmlns:sketchjs="https://sketch.io/dtd/" sketchjs:tool="clipart" style="mix-blend-mode:source-over"><path sketchjs:uid="1" fill="none" d="M44.062 1.195h33.17v205.613h-33.17z"/><path sketchjs:uid="2" d="M1.738 37.12h42.324v48.033H1.738z"/><path sketchjs:uid="3" d="M207.942 37.12h42.324v48.033h-42.324z"/><path sketchjs:uid="4" d="M77.527 37.12h97.442v48.033H77.527z"/><path sketchjs:uid="5" d="M1.738 112.22h42.324v16.536H1.738z"/><path sketchjs:uid="6" d="M207.942 112.22h42.324v16.536h-42.324z"/><path sketchjs:uid="7" d="M77.527 112.22h97.442v16.536H77.527z"/><path sketchjs:uid="8" fill="none" d="M174.97 1.195h33.17v205.613h-33.17z"/></g></symbol><symbol viewBox="0 0 294 294" id="supplier" xmlns="http://www.w3.org/2000/svg"><g xmlns:sketchjs="https://sketch.io/dtd/" sketchjs:tool="clipart" style="mix-blend-mode:source-over" transform="translate(-241.22 -215.379) scale(.97963)" stroke-width="5" stroke-miterlimit="10"><circle cx="396.3" cy="368.9" r="147" sketchjs:uid="1" fill="#fbbe18"/><g sketchjs:uid="2" fill="none"><g sketchjs:uid="3"><path d="M458.5 436.6H334V323.3c0-13.7 11.1-24.8 24.8-24.8h75c13.7 0 24.8 11.1 24.8 24.8v113.3z" sketchjs:uid="4"/><path d="M446.4 469.6H442c-5.2 0-9.3-4.2-9.3-9.3v-23.7h23v23.7c0 5.1-4.2 9.3-9.3 9.3z" sketchjs:uid="5"/><path d="M351.7 469.6h-4.3c-5.2 0-9.3-4.2-9.3-9.3v-23.7h23v23.7c-.1 5.1-4.3 9.3-9.4 9.3z" sketchjs:uid="6"/></g><path sketchjs:uid="7" d="M334 423.2h-13.7v-145h152v145h-13.8"/><path sketchjs:uid="8" d="M320.6 358.6h13.8"/><path sketchjs:uid="9" d="M458.5 358.6h13.8"/><path sketchjs:uid="10" d="M348.2 318.9h96.2v37.7h-96.2z"/><path sketchjs:uid="11" d="M376.1 374.9h40.3v42.3h-40.3z"/><circle cx="354.4" cy="389" r="8.1" sketchjs:uid="12"/><circle cx="440.4" cy="389" r="8.1" sketchjs:uid="13"/><path sketchjs:uid="14" d="M334 417.2h124.5v19.3H334z"/></g></g></symbol><symbol viewBox="0 0 97.073 97.073" id="twitter-logo" xmlns="http://www.w3.org/2000/svg"><path d="M96.771 28.015a1.998 1.998 0 0 0-2.259-.861c-1.603.469-3.637.895-6.047 1.266 2.232-1.142 4.011-2.364 5.28-3.635a2 2 0 0 0-2.26-3.225c-2.331 1.091-4.868 1.651-7.542 1.667-4.556-9.77-12.692-13.387-13.005-13.522-4.966-2.253-9.696-2.929-13.926-1.99-11.329 2.517-16.511 15.99-14.816 27.031-3.011-.208-19.053-1.823-39.209-13.267A2.003 2.003 0 0 0 0 23.256c.235 11.954 11.155 17.66 15.838 19.558-.99.102-2.515.124-3.994.062a2 2 0 0 0-1.188 3.663c3.279 2.185 6.566 3.617 9.77 4.261a58.94 58.94 0 0 1-2.117.103 2 2 0 0 0-.94 3.728c2.998 1.741 7.652 3.817 12.814 3.817l.372-.004h-.001a14.73 14.73 0 0 1-1.903.549c-.212.047-.425.091-.637.13a2.001 2.001 0 0 0-.229 3.874c3.797 1.188 7.34 1.463 10.351.793.567-.126 1.127-.29 1.66-.484h.001c-.081 3.068-1.695 13.383-19.041 17.236l-.226.048c-1.088.242-3.392.524-6.305.524-1.2 0-2.403-.047-3.578-.139a1.99 1.99 0 0 0-2.091 1.487 1.999 1.999 0 0 0 1.095 2.321c6.643 3.073 13.941 4.75 21.694 4.983l.061.001a57.04 57.04 0 0 0 12.354-1.353c7.41-1.646 14.61-4.807 21.398-9.395l.003-.001c.149-.058.292-.132.424-.224C75.247 72.128 82.356 62.8 86.71 51.067c.016-.04.028-.081.041-.122 1.762-5.874 2.371-11.186 1.814-15.788 3.432-1.105 6.117-2.701 7.983-4.741a1.99 1.99 0 0 0 .223-2.401z"/></symbol><symbol viewBox="0 0 793.7 737" id="twitter-logo_" xmlns="http://www.w3.org/2000/svg"><path fill="#1D1D1B" d="M347.5 399.6c9.7 0 18.6-1.7 27-7.8-8.3-2-14.2-6.1-17.1-14.5 2-.2 3.6-.4 6.2-.6-8.4-4.4-13.1-10.5-13.4-20 2.3.5 4 .9 6.7 1.5-6.6-8.4-8.9-16.7-3.9-25.6 6.4 4.7 12 9.9 18.6 13.4 6.6 3.5 14.2 5.2 22.2 8 .2-2.9.3-4.5.3-6.1.6-15.3 17.3-25.2 30.3-17.2 5.5 3.4 9.7 3 14.6.4.8-.5 1.8-.7 3.7-.4-1.8 2.9-3.5 5.9-5.5 9.1 2.5-.6 4.8-1.2 8.1-2.1-1.3 1.9-1.8 3.5-2.8 4.2-6.3 4.3-7 10.7-8 17.6-4.3 29.1-26.9 48.9-56.3 49.5-10.8.3-21.4-2.4-30.7-9.4z"/><path fill="none" d="M319.2 291.2h154.7v154.7H319.2z"/></symbol><symbol viewBox="0 0 304.36 304.36" id="vk-logo" xmlns="http://www.w3.org/2000/svg"><path d="M261.945 175.576c10.096 9.857 20.752 19.131 29.807 29.982 4 4.822 7.787 9.798 10.684 15.394 4.105 7.955.387 16.709-6.746 17.184l-44.34-.02c-11.436.949-20.559-3.655-28.23-11.474-6.139-6.253-11.824-12.908-17.727-19.372-2.42-2.642-4.953-5.128-7.979-7.093-6.053-3.929-11.307-2.726-14.766 3.587-3.523 6.421-4.322 13.531-4.668 20.687-.475 10.441-3.631 13.186-14.119 13.664-22.414 1.057-43.686-2.334-63.447-13.641-17.422-9.968-30.932-24.04-42.691-39.971-22.895-31.021-40.428-65.108-56.186-100.15C-2.01 76.458.584 72.22 9.295 72.07c14.465-.281 28.928-.261 43.41-.02 5.879.086 9.771 3.458 12.041 9.012 7.826 19.243 17.402 37.551 29.422 54.521 3.201 4.518 6.465 9.036 11.113 12.216 5.142 3.521 9.057 2.354 11.476-3.374 1.535-3.632 2.207-7.544 2.553-11.434 1.146-13.383 1.297-26.743-.713-40.079-1.234-8.323-5.922-13.711-14.227-15.286-4.238-.803-3.607-2.38-1.555-4.799 3.564-4.172 6.916-6.769 13.598-6.769h50.111c7.889 1.557 9.641 5.101 10.721 13.039l.043 55.663c-.086 3.073 1.535 12.192 7.07 14.226 4.43 1.448 7.35-2.096 10.008-4.905 11.998-12.734 20.561-27.783 28.211-43.366 3.395-6.852 6.314-13.968 9.143-21.078 2.096-5.276 5.385-7.872 11.328-7.757l48.229.043c1.43 0 2.877.021 4.262.258 8.127 1.385 10.354 4.881 7.844 12.817-3.955 12.451-11.65 22.827-19.174 33.251-8.043 11.129-16.645 21.877-24.621 33.072-7.328 10.223-6.746 15.376 2.357 24.255zm0 0" fill-rule="evenodd" clip-rule="evenodd"/></symbol><symbol viewBox="0 0 793.7 737" id="vk-logo_" xmlns="http://www.w3.org/2000/svg"><path d="M381.2 368.1c6-7.6 3.9-22.8-4.5-27.6 2.2-1.4 3.9-3.3 5.8-3.4 6.3-.5 12.6-.5 18.8-.3 4.1.1 5.8 2.9 5.7 6.7 0 5.8-.4 11.6-.2 17.5.1 2.1 1.4 4.1 2.2 6.2 1.7-1.2 4-2 5-3.6 4-6.5 7.8-13.1 11.2-19.9 1.5-3 3.2-4.7 6.8-4.6 5.5.2 11-.1 16.5 0 5.2.1 6.6 2.2 4.5 7.1-1.2 2.7-2.8 5.3-4.4 7.8-2.5 3.7-5.3 7.3-8 10.8-6.7 8.6-6.6 8.6 1.1 16.2 3.8 3.7 7.5 7.6 10.5 11.9 3.5 4.9 1.6 8.3-4.3 8.5-5 .2-10.1.8-14.9.1-3.4-.4-6.9-2.2-9.7-4.3-3.3-2.5-5.8-6-8.7-8.9-2.9-2.9-5-1.6-6.4 1.6-.4.9-.5 1.9-.7 2.9-1.8 8.6-1.8 8.5-10.3 8.6-14.1.2-25.5-5.9-33.2-17.1-8.5-12.4-15.6-25.8-23-39-2.4-4.2-.9-6.1 3.9-6.4.5 0 1 .1 1.5 0 11.5-1.9 19.6.9 23.4 13.4 1.7 6.1 5.6 12 11.4 15.8z"/></symbol></svg>