<svg width="14" height="14" viewBox="0 0 14 14" fill="none" xmlns="http://www.w3.org/2000/svg">
<path d="M11.9497 2.05026C10.6276 0.72811 8.86974 0 7 0C5.13026 0 3.37239 0.72811 2.05026 2.05026C0.72811 3.37239 0 5.13026 0 7C0 8.86974 0.72811 10.6276 2.05026 11.9497C3.37239 13.2719 5.13026 14 7 14C8.86974 14 10.6276 13.2719 11.9497 11.9497C13.2719 10.6276 14 8.86974 14 7C14 5.13026 13.2719 3.37239 11.9497 2.05026ZM7 13.5579C3.38395 13.5579 0.442094 10.616 0.442094 7C0.442094 3.38395 3.38395 0.442094 7 0.442094C10.616 0.442094 13.5579 3.38395 13.5579 7C13.5579 10.616 10.616 13.5579 7 13.5579Z" fill="white"/>
<path d="M2.59108 5.29834C2.59108 5.05583 2.72617 4.93457 2.99635 4.93457C3.26654 4.93457 3.40163 5.05583 3.40163 5.29834C3.40163 5.4139 3.36745 5.50423 3.29909 5.56934C3.23236 5.63281 3.13145 5.66455 2.99635 5.66455C2.72617 5.66455 2.59108 5.54248 2.59108 5.29834ZM3.36745 8.7334H2.62282V6.00391H3.36745V8.7334ZM6.59499 8.7334H5.85036V7.13916C5.85036 6.94222 5.81699 6.79492 5.75026 6.69727C5.68516 6.59798 5.5818 6.54834 5.4402 6.54834C5.24977 6.54834 5.11143 6.61833 5.02516 6.7583C4.9389 6.89827 4.89577 7.12858 4.89577 7.44922V8.7334H4.15114V6.00391H4.71999L4.82008 6.35303H4.86159C4.93483 6.2277 5.04062 6.13005 5.17897 6.06006C5.31732 5.98844 5.47601 5.95264 5.65505 5.95264C6.06357 5.95264 6.34027 6.0861 6.48512 6.35303H6.55104C6.62428 6.22607 6.73171 6.1276 6.87331 6.05762C7.01654 5.98763 7.17767 5.95264 7.35671 5.95264C7.66595 5.95264 7.89951 6.03239 8.05739 6.19189C8.21689 6.34977 8.29665 6.60368 8.29665 6.95361V8.7334H7.54958V7.13916C7.54958 6.94222 7.51621 6.79492 7.44948 6.69727C7.38437 6.59798 7.28102 6.54834 7.13942 6.54834C6.95713 6.54834 6.82041 6.61344 6.72926 6.74365C6.63975 6.87386 6.59499 7.08057 6.59499 7.36377V8.7334ZM9.65651 7.36377C9.65651 7.63395 9.70046 7.83822 9.78835 7.97656C9.87786 8.11491 10.0227 8.18408 10.2229 8.18408C10.4215 8.18408 10.5639 8.11572 10.6502 7.979C10.7381 7.84066 10.782 7.63558 10.782 7.36377C10.782 7.09359 10.7381 6.89095 10.6502 6.75586C10.5623 6.62077 10.4182 6.55322 10.218 6.55322C10.0195 6.55322 9.87624 6.62077 9.78835 6.75586C9.70046 6.88932 9.65651 7.09196 9.65651 7.36377ZM11.5437 7.36377C11.5437 7.80811 11.4265 8.1556 11.1922 8.40625C10.9578 8.6569 10.6314 8.78223 10.2132 8.78223C9.95111 8.78223 9.71999 8.72526 9.51979 8.61133C9.3196 8.49577 9.16579 8.33057 9.05837 8.11572C8.95094 7.90088 8.89723 7.65023 8.89723 7.36377C8.89723 6.91781 9.01361 6.57113 9.24635 6.32373C9.4791 6.07633 9.80625 5.95264 10.2278 5.95264C10.4898 5.95264 10.721 6.0096 10.9212 6.12354C11.1214 6.23747 11.2752 6.40104 11.3826 6.61426C11.49 6.82747 11.5437 7.07731 11.5437 7.36377Z" fill="white"/>
</svg>
