<svg width="14" height="14" viewBox="0 0 14 14" fill="none" xmlns="http://www.w3.org/2000/svg">
<path d="M9.9387 0H4.06104C3.4945 0 3.0332 0.4613 3.0332 1.02783V12.9719C3.0332 13.5387 3.4945 14 4.06104 14H9.93847C10.5052 14 10.9665 13.5387 10.9665 12.9722V1.02783C10.9665 0.4613 10.5052 0 9.9387 0ZM3.49987 1.86667H10.4999V10.7333H3.49987V1.86667ZM4.06104 0.466667H9.93847C10.2481 0.466667 10.4999 0.718433 10.4999 1.02783V1.4H3.49987V1.02783C3.49987 0.718433 3.75164 0.466667 4.06104 0.466667ZM9.9387 13.5333H4.06104C3.75164 13.5333 3.49987 13.2816 3.49987 12.9722V11.2H10.4999V12.9722C10.4999 13.2816 10.2481 13.5333 9.9387 13.5333Z" fill="white"/>
<path d="M6.99974 11.4333C6.48501 11.4333 6.06641 11.8519 6.06641 12.3667C6.06641 12.8814 6.48501 13.3 6.99974 13.3C7.51447 13.3 7.93307 12.8814 7.93307 12.3667C7.93307 11.8519 7.51447 11.4333 6.99974 11.4333ZM6.99974 12.8333C6.74237 12.8333 6.53307 12.624 6.53307 12.3667C6.53307 12.1093 6.74237 11.9 6.99974 11.9C7.25711 11.9 7.46641 12.1093 7.46641 12.3667C7.46641 12.624 7.25711 12.8333 6.99974 12.8333Z" fill="white"/>
<path d="M6.06683 1.16662H7.00016C7.1292 1.16662 7.2335 1.06232 7.2335 0.933285C7.2335 0.804251 7.1292 0.699951 7.00016 0.699951H6.06683C5.9378 0.699951 5.8335 0.804251 5.8335 0.933285C5.8335 1.06232 5.9378 1.16662 6.06683 1.16662Z" fill="white"/>
<path d="M7.70013 1.16662H7.93346C8.0625 1.16662 8.1668 1.06232 8.1668 0.933285C8.1668 0.804251 8.0625 0.699951 7.93346 0.699951H7.70013C7.5711 0.699951 7.4668 0.804251 7.4668 0.933285C7.4668 1.06232 7.5711 1.16662 7.70013 1.16662Z" fill="white"/>
<path d="M13.2094 1.06611C13.1182 0.974872 12.9707 0.974872 12.8795 1.06611C12.7882 1.15734 12.7882 1.30481 12.8795 1.39604C13.7512 2.26777 13.7512 3.68621 12.8795 4.55817C12.7882 4.64941 12.7882 4.79687 12.8795 4.88811C12.925 4.93361 12.9847 4.95647 13.0444 4.95647C13.1042 4.95647 13.1639 4.93361 13.2094 4.88811C14.2631 3.83461 14.2631 2.11984 13.2094 1.06611Z" fill="white"/>
<path d="M12.227 1.59711C12.1357 1.50588 11.9883 1.50588 11.897 1.59711C11.8058 1.68834 11.8058 1.83581 11.897 1.92704C12.1857 2.21568 12.3446 2.60021 12.3446 3.00948C12.3446 3.41874 12.1857 3.80304 11.897 4.09168C11.8058 4.18291 11.8058 4.33038 11.897 4.42161C11.9425 4.46711 12.0023 4.48998 12.062 4.48998C12.1217 4.48998 12.1815 4.46711 12.227 4.42161C12.6038 4.04501 12.8112 3.54334 12.8112 3.00948C12.8112 2.47561 12.604 1.97371 12.227 1.59711Z" fill="white"/>
<path d="M1.12121 1.39604C1.21244 1.30481 1.21244 1.15734 1.12121 1.06611C1.02998 0.974872 0.88251 0.974872 0.791277 1.06611C-0.262457 2.11984 -0.262457 3.83437 0.791277 4.88811C0.836777 4.93361 0.89651 4.95647 0.956243 4.95647C1.01598 4.95647 1.07571 4.93361 1.12121 4.88811C1.21244 4.79687 1.21244 4.64941 1.12121 4.55817C0.249243 3.68644 0.249243 2.26801 1.12121 1.39604Z" fill="white"/>
<path d="M2.10317 1.53278C2.01193 1.44155 1.86447 1.44155 1.77323 1.53278C1.3964 1.90938 1.18896 2.41105 1.18896 2.94491C1.18896 3.47878 1.3964 3.98045 1.77323 4.35728C1.81873 4.40278 1.87846 4.42565 1.9382 4.42565C1.99793 4.42565 2.05766 4.40278 2.10317 4.35728C2.1944 4.26605 2.1944 4.11858 2.10317 4.02735C1.81453 3.73871 1.65563 3.35418 1.65563 2.94491C1.65563 2.53565 1.8143 2.15135 2.10317 1.86271C2.19416 1.77171 2.19416 1.62401 2.10317 1.53278Z" fill="white"/>
</svg>
