<svg width="14" height="14" viewBox="0 0 14 14" fill="none" xmlns="http://www.w3.org/2000/svg">
<path d="M11.9497 2.05026C10.6276 0.72811 8.86974 0 7 0C5.13026 0 3.37239 0.72811 2.05026 2.05026C0.72811 3.37239 0 5.13026 0 7C0 8.86974 0.72811 10.6276 2.05026 11.9497C3.37239 13.2719 5.13026 14 7 14C8.86974 14 10.6276 13.2719 11.9497 11.9497C13.2719 10.6276 14 8.86974 14 7C14 5.13026 13.2719 3.37239 11.9497 2.05026ZM7 13.5579C3.38395 13.5579 0.442094 10.616 0.442094 7C0.442094 3.38395 3.38395 0.442094 7 0.442094C10.616 0.442094 13.5579 3.38395 13.5579 7C13.5579 10.616 10.616 13.5579 7 13.5579Z" fill="white"/>
<path d="M10.9644 2.69706C10.8966 2.64592 10.8054 2.63827 10.7299 2.67731L2.18251 7.09836C2.10863 7.13656 2.06245 7.21304 2.06299 7.29622C2.06354 7.3794 2.11076 7.45522 2.18519 7.49243L4.42093 8.61025V10.8253C4.42093 10.8832 4.44064 10.9406 4.48054 10.9827C4.52467 11.0292 4.58332 11.0526 4.642 11.0526C4.67897 11.0526 4.71594 11.0433 4.74938 11.0248L7.30722 9.60373L9.26496 10.4427C9.3066 10.4606 9.3527 10.468 9.39727 10.4597C9.48901 10.4425 9.55721 10.3722 9.5746 10.2854L10.0699 7.80872C10.0973 7.67192 9.99265 7.54431 9.85315 7.54431C9.74776 7.54425 9.65706 7.61863 9.63639 7.72193L9.19446 9.93152L7.38171 9.15463C7.3189 9.1277 7.2471 9.13139 7.18727 9.16456L4.86305 10.4558V8.47361C4.86305 8.38988 4.81574 8.31338 4.74085 8.27589L2.77169 7.29132L10.5245 3.28125L9.85167 6.64516C9.82433 6.78196 9.92894 6.90958 10.0685 6.90958C10.1738 6.90958 10.2645 6.83517 10.2852 6.73187L11.0482 2.91695C11.0649 2.83366 11.0323 2.74816 10.9644 2.69706Z" fill="white"/>
<path d="M9.53125 4.50507C9.46177 4.41713 9.33741 4.39503 9.24193 4.45385L5.41037 6.81176C5.34499 6.85198 5.30518 6.92326 5.30518 7.00002V9.35792C5.30515 9.46046 5.37564 9.54949 5.47539 9.57307C5.49237 9.57708 5.50941 9.57903 5.52625 9.57903C5.60847 9.57903 5.68585 9.53292 5.72389 9.4568L6.59205 7.72047L9.51408 4.79844C9.59335 4.71914 9.60073 4.59306 9.53125 4.50507ZM6.25408 7.43317C6.23732 7.44996 6.22332 7.46937 6.21271 7.49062L5.74727 8.42148V7.12353L7.87012 5.81713L6.25408 7.43317Z" fill="white"/>
</svg>
