<svg width="14" height="14" viewBox="0 0 14 14" fill="none" xmlns="http://www.w3.org/2000/svg">
<path d="M8.33305 0H5.66641C2.8734 0 0.601074 2.27179 0.601074 5.06427V7.46644C0.601074 9.546 1.87894 11.4149 3.8004 12.1761V13.7334C3.8004 13.839 3.86252 13.9344 3.95904 13.9771C3.9937 13.9925 4.03049 14 4.06701 14C4.1318 14 4.19605 13.9763 4.24591 13.9309L5.79199 12.5307H8.33305C11.1261 12.5307 13.3984 10.2589 13.3984 7.46644V5.06427C13.3984 2.27179 11.1261 0 8.33305 0ZM12.8652 7.46644C12.8652 9.96484 10.8323 11.9975 8.33305 11.9975H5.68907C5.62296 11.9975 5.55923 12.022 5.51018 12.0665L4.33363 13.1322V11.9914C4.33363 11.8783 4.26244 11.7775 4.1558 11.7402C2.34871 11.1011 1.1343 9.38363 1.1343 7.46644V5.06427C1.1343 2.56586 3.16747 0.533222 5.66641 0.533222H8.33305C10.8323 0.533222 12.8652 2.56586 12.8652 5.06427V7.46644Z" fill="white"/>
<path d="M10.5232 8.12971L8.88459 7.0654C8.70543 6.94889 8.49214 6.90943 8.28338 6.95262C8.07436 6.99661 7.89466 7.12005 7.77815 7.30001L7.7011 7.41839C6.99192 7.18404 6.20995 6.88463 5.74178 5.52945L5.93561 5.36095C6.26834 5.07168 6.30326 4.56565 6.01399 4.23239L4.73212 2.75777C4.63561 2.64659 4.46711 2.63512 4.35594 2.73137L3.55104 3.43096C2.84505 4.0447 3.17485 4.95251 3.28336 5.25084C3.28816 5.26417 3.29403 5.27697 3.30096 5.2895C3.32895 5.33962 3.99734 6.53244 5.07685 7.63194C6.16062 8.73598 8.11728 9.7555 8.17727 9.78509C8.40069 9.93013 8.6521 9.99971 8.90085 9.99971C9.33756 9.99971 9.76574 9.78563 10.0212 9.39317L10.6018 8.49896C10.6818 8.37499 10.6466 8.20996 10.5232 8.12971ZM9.57378 9.10257C9.33356 9.47262 8.83713 9.57767 8.44521 9.32492C8.42575 9.31479 6.48189 8.30247 5.45731 7.25869C4.49964 6.28316 3.86377 5.19939 3.77712 5.04822C3.56597 4.45608 3.60329 4.09215 3.90083 3.83354L4.50471 3.30885L5.61167 4.58218C5.71005 4.69523 5.69859 4.86052 5.58608 4.95837L5.25895 5.24258C5.17923 5.3119 5.14777 5.42147 5.17896 5.52225C5.73671 7.33467 6.82129 7.6906 7.61312 7.95054L7.72856 7.98867C7.84401 8.02759 7.97038 7.98307 8.0365 7.88123L8.22553 7.59009C8.26445 7.52983 8.32417 7.48904 8.39349 7.47438C8.46308 7.45945 8.53399 7.47331 8.59425 7.5125L10.0094 8.43151L9.57378 9.10257Z" fill="white"/>
<path d="M7.60832 4.33161C7.46648 4.29082 7.31905 4.3732 7.27879 4.51504C7.23853 4.65661 7.32064 4.80404 7.46222 4.8443C7.85947 4.95734 8.17593 5.27434 8.28791 5.67186C8.32097 5.78917 8.42788 5.86622 8.54439 5.86622C8.56838 5.86622 8.59264 5.86302 8.61691 5.85636C8.75848 5.81636 8.84113 5.6692 8.80113 5.52736C8.6393 4.95308 8.18206 4.49477 7.60832 4.33161Z" fill="white"/>
<path d="M9.63712 5.92386C9.66112 5.92386 9.68538 5.92066 9.70964 5.914C9.85148 5.87401 9.93386 5.72657 9.89387 5.585C9.57927 4.46977 8.69172 3.58035 7.57729 3.26309C7.43572 3.22229 7.28828 3.30521 7.24803 3.44678C7.20777 3.58835 7.28988 3.73579 7.43145 3.77604C8.36912 4.04266 9.1159 4.79157 9.38064 5.72977C9.41397 5.84708 9.52061 5.92386 9.63712 5.92386Z" fill="white"/>
<path d="M7.46281 2.02143C7.32097 1.98063 7.17354 2.06302 7.13328 2.20512C7.09302 2.34669 7.17514 2.49413 7.31671 2.53439C8.90544 2.98629 10.171 4.25483 10.6195 5.84463C10.6525 5.96193 10.7595 6.03898 10.876 6.03898C10.9 6.03898 10.9242 6.03579 10.9485 6.02912C11.09 5.98913 11.1727 5.84169 11.1327 5.70012C10.6344 3.93329 9.22831 2.52399 7.46281 2.02143Z" fill="white"/>
</svg>
