<svg width="14" height="14" viewBox="0 0 14 14" fill="none" xmlns="http://www.w3.org/2000/svg">
<g clip-path="url(#clip0)">
<path d="M7 0C3.14004 0 0 3.14004 0 7C0 8.31681 0.365885 9.59512 1.05996 10.7052C0.783462 11.6738 0.284038 13.5062 0.278654 13.5253C0.252808 13.6201 0.280538 13.7213 0.351346 13.7895C0.422154 13.8576 0.524462 13.8818 0.617615 13.8533L3.39231 12.9998C4.47919 13.6546 5.72385 14 7 14C10.86 14 14 10.86 14 7C14 3.14004 10.86 0 7 0ZM7 13.4615C5.78335 13.4615 4.59819 13.1215 3.57242 12.4786C3.52908 12.4514 3.47927 12.4377 3.42946 12.4377C3.40281 12.4377 3.37615 12.4417 3.35031 12.4495L0.9275 13.1953C1.10546 12.5456 1.42531 11.3836 1.61081 10.7372C1.63235 10.6623 1.62023 10.5816 1.57796 10.5162C0.897885 9.46966 0.538462 8.25381 0.538462 7C0.538462 3.43727 3.43727 0.538462 7 0.538462C10.5627 0.538462 13.4615 3.43727 13.4615 7C13.4615 10.5627 10.5627 13.4615 7 13.4615Z" fill="white"/>
<path d="M11.5731 8.64925C11.0761 8.37329 10.6529 8.09652 10.344 7.8946C10.1082 7.7406 9.93777 7.62941 9.81285 7.56667C9.46366 7.39248 9.19901 7.51552 9.09831 7.61729C9.08566 7.62994 9.07435 7.64367 9.06466 7.65821C8.702 8.20233 8.22843 8.72275 8.08977 8.75075C7.92958 8.72571 7.17977 8.29952 6.43454 7.67894C5.6737 7.04491 5.19501 6.43779 5.12474 6.02425C5.61285 5.52187 5.78866 5.20579 5.78866 4.8461C5.78866 4.47537 4.92389 2.92756 4.76747 2.77114C4.61051 2.61444 4.25701 2.58994 3.71666 2.69764C3.6647 2.70814 3.61677 2.73371 3.57908 2.77114C3.51366 2.83656 1.98281 4.39729 2.71027 6.2889C3.50881 8.36494 5.55847 10.7781 8.17162 11.1701C8.46858 11.2145 8.74697 11.2366 9.00758 11.2366C10.5449 11.2366 11.4522 10.4631 11.7077 8.92871C11.7268 8.81644 11.6727 8.70444 11.5731 8.64925ZM8.25158 10.6375C5.4882 10.2232 3.74762 7.48537 3.21293 6.0956C2.68254 4.71714 3.66066 3.4881 3.9062 3.21025C4.10597 3.17633 4.31624 3.16206 4.40401 3.17579C4.58735 3.43075 5.2222 4.63017 5.2502 4.8461C5.2502 4.98744 5.20416 5.18425 4.65601 5.73267C4.60539 5.78302 4.57712 5.8514 4.57712 5.92302C4.57712 7.33271 7.55051 9.28841 8.07712 9.28841C8.53508 9.28841 9.13224 8.51867 9.47227 8.0171C9.49193 8.01791 9.52504 8.02464 9.57216 8.04833C9.66908 8.09706 9.83708 8.20664 10.0495 8.34556C10.33 8.5289 10.7027 8.77229 11.1426 9.02456C10.9428 9.98571 10.3844 10.9579 8.25158 10.6375Z" fill="white"/>
</g>
<defs>
<clipPath id="clip0">
<rect width="14" height="14" fill="white"/>
</clipPath>
</defs>
</svg>
